%TF.GenerationSoftware,KiCad,Pcbnew,(5.1.6)-1*%
%TF.CreationDate,2020-07-11T20:12:46-04:00*%
%TF.ProjectId,4x5,3478352e-6b69-4636-9164-5f7063625858,rev?*%
%TF.SameCoordinates,Original*%
%TF.FileFunction,Copper,L2,Bot*%
%TF.FilePolarity,Positive*%
%FSLAX46Y46*%
G04 Gerber Fmt 4.6, Leading zero omitted, Abs format (unit mm)*
G04 Created by KiCad (PCBNEW (5.1.6)-1) date 2020-07-11 20:12:46*
%MOMM*%
%LPD*%
G01*
G04 APERTURE LIST*
%TA.AperFunction,ComponentPad*%
%ADD10O,1.000000X2.100000*%
%TD*%
%TA.AperFunction,ComponentPad*%
%ADD11O,1.000000X1.600000*%
%TD*%
%TA.AperFunction,ComponentPad*%
%ADD12C,2.250000*%
%TD*%
%TA.AperFunction,ViaPad*%
%ADD13C,0.800000*%
%TD*%
%TA.AperFunction,Conductor*%
%ADD14C,0.381000*%
%TD*%
%TA.AperFunction,Conductor*%
%ADD15C,0.254000*%
%TD*%
%TA.AperFunction,Conductor*%
%ADD16C,0.025400*%
%TD*%
G04 APERTURE END LIST*
D10*
%TO.P,USB1,13*%
%TO.N,GND*%
X210606100Y-86129600D03*
X201966100Y-86129600D03*
D11*
X210606100Y-81949600D03*
X201966100Y-81949600D03*
%TD*%
D12*
%TO.P,MX6,1*%
%TO.N,col2*%
X227925000Y-126968750D03*
%TA.AperFunction,ComponentPad*%
G36*
G01*
X229986317Y-129266095D02*
X229986317Y-129266095D01*
G75*
G02*
X228397655Y-129180067I-751317J837345D01*
G01*
X227087653Y-127720067D01*
G75*
G02*
X227173681Y-126131405I837345J751317D01*
G01*
X227173681Y-126131405D01*
G75*
G02*
X228762343Y-126217433I751317J-837345D01*
G01*
X230072345Y-127677433D01*
G75*
G02*
X229986317Y-129266095I-837345J-751317D01*
G01*
G37*
%TD.AperFunction*%
%TO.P,MX6,2*%
%TO.N,Net-(D6-Pad2)*%
X222885000Y-125888750D03*
%TA.AperFunction,ComponentPad*%
G36*
G01*
X223002403Y-127591084D02*
X223002403Y-127591084D01*
G75*
G02*
X221802666Y-126546153I-77403J1122334D01*
G01*
X221762666Y-125966153D01*
G75*
G02*
X222807597Y-124766416I1122334J77403D01*
G01*
X222807597Y-124766416D01*
G75*
G02*
X224007334Y-125811347I77403J-1122334D01*
G01*
X224047334Y-126391347D01*
G75*
G02*
X223002403Y-127591084I-1122334J-77403D01*
G01*
G37*
%TD.AperFunction*%
%TD*%
%TO.P,MX5,1*%
%TO.N,col1*%
X208875000Y-126968750D03*
%TA.AperFunction,ComponentPad*%
G36*
G01*
X210936317Y-129266095D02*
X210936317Y-129266095D01*
G75*
G02*
X209347655Y-129180067I-751317J837345D01*
G01*
X208037653Y-127720067D01*
G75*
G02*
X208123681Y-126131405I837345J751317D01*
G01*
X208123681Y-126131405D01*
G75*
G02*
X209712343Y-126217433I751317J-837345D01*
G01*
X211022345Y-127677433D01*
G75*
G02*
X210936317Y-129266095I-837345J-751317D01*
G01*
G37*
%TD.AperFunction*%
%TO.P,MX5,2*%
%TO.N,Net-(D5-Pad2)*%
X203835000Y-125888750D03*
%TA.AperFunction,ComponentPad*%
G36*
G01*
X203952403Y-127591084D02*
X203952403Y-127591084D01*
G75*
G02*
X202752666Y-126546153I-77403J1122334D01*
G01*
X202712666Y-125966153D01*
G75*
G02*
X203757597Y-124766416I1122334J77403D01*
G01*
X203757597Y-124766416D01*
G75*
G02*
X204957334Y-125811347I77403J-1122334D01*
G01*
X204997334Y-126391347D01*
G75*
G02*
X203952403Y-127591084I-1122334J-77403D01*
G01*
G37*
%TD.AperFunction*%
%TD*%
%TO.P,MX4,1*%
%TO.N,col0*%
X189825000Y-126968750D03*
%TA.AperFunction,ComponentPad*%
G36*
G01*
X191886317Y-129266095D02*
X191886317Y-129266095D01*
G75*
G02*
X190297655Y-129180067I-751317J837345D01*
G01*
X188987653Y-127720067D01*
G75*
G02*
X189073681Y-126131405I837345J751317D01*
G01*
X189073681Y-126131405D01*
G75*
G02*
X190662343Y-126217433I751317J-837345D01*
G01*
X191972345Y-127677433D01*
G75*
G02*
X191886317Y-129266095I-837345J-751317D01*
G01*
G37*
%TD.AperFunction*%
%TO.P,MX4,2*%
%TO.N,Net-(D4-Pad2)*%
X184785000Y-125888750D03*
%TA.AperFunction,ComponentPad*%
G36*
G01*
X184902403Y-127591084D02*
X184902403Y-127591084D01*
G75*
G02*
X183702666Y-126546153I-77403J1122334D01*
G01*
X183662666Y-125966153D01*
G75*
G02*
X184707597Y-124766416I1122334J77403D01*
G01*
X184707597Y-124766416D01*
G75*
G02*
X185907334Y-125811347I77403J-1122334D01*
G01*
X185947334Y-126391347D01*
G75*
G02*
X184902403Y-127591084I-1122334J-77403D01*
G01*
G37*
%TD.AperFunction*%
%TD*%
%TO.P,MX3,1*%
%TO.N,col2*%
X227925000Y-107918750D03*
%TA.AperFunction,ComponentPad*%
G36*
G01*
X229986317Y-110216095D02*
X229986317Y-110216095D01*
G75*
G02*
X228397655Y-110130067I-751317J837345D01*
G01*
X227087653Y-108670067D01*
G75*
G02*
X227173681Y-107081405I837345J751317D01*
G01*
X227173681Y-107081405D01*
G75*
G02*
X228762343Y-107167433I751317J-837345D01*
G01*
X230072345Y-108627433D01*
G75*
G02*
X229986317Y-110216095I-837345J-751317D01*
G01*
G37*
%TD.AperFunction*%
%TO.P,MX3,2*%
%TO.N,Net-(D3-Pad2)*%
X222885000Y-106838750D03*
%TA.AperFunction,ComponentPad*%
G36*
G01*
X223002403Y-108541084D02*
X223002403Y-108541084D01*
G75*
G02*
X221802666Y-107496153I-77403J1122334D01*
G01*
X221762666Y-106916153D01*
G75*
G02*
X222807597Y-105716416I1122334J77403D01*
G01*
X222807597Y-105716416D01*
G75*
G02*
X224007334Y-106761347I77403J-1122334D01*
G01*
X224047334Y-107341347D01*
G75*
G02*
X223002403Y-108541084I-1122334J-77403D01*
G01*
G37*
%TD.AperFunction*%
%TD*%
%TO.P,MX2,1*%
%TO.N,col1*%
X208875000Y-107918750D03*
%TA.AperFunction,ComponentPad*%
G36*
G01*
X210936317Y-110216095D02*
X210936317Y-110216095D01*
G75*
G02*
X209347655Y-110130067I-751317J837345D01*
G01*
X208037653Y-108670067D01*
G75*
G02*
X208123681Y-107081405I837345J751317D01*
G01*
X208123681Y-107081405D01*
G75*
G02*
X209712343Y-107167433I751317J-837345D01*
G01*
X211022345Y-108627433D01*
G75*
G02*
X210936317Y-110216095I-837345J-751317D01*
G01*
G37*
%TD.AperFunction*%
%TO.P,MX2,2*%
%TO.N,Net-(D2-Pad2)*%
X203835000Y-106838750D03*
%TA.AperFunction,ComponentPad*%
G36*
G01*
X203952403Y-108541084D02*
X203952403Y-108541084D01*
G75*
G02*
X202752666Y-107496153I-77403J1122334D01*
G01*
X202712666Y-106916153D01*
G75*
G02*
X203757597Y-105716416I1122334J77403D01*
G01*
X203757597Y-105716416D01*
G75*
G02*
X204957334Y-106761347I77403J-1122334D01*
G01*
X204997334Y-107341347D01*
G75*
G02*
X203952403Y-108541084I-1122334J-77403D01*
G01*
G37*
%TD.AperFunction*%
%TD*%
%TO.P,MX1,1*%
%TO.N,col0*%
X189825000Y-107918750D03*
%TA.AperFunction,ComponentPad*%
G36*
G01*
X191886317Y-110216095D02*
X191886317Y-110216095D01*
G75*
G02*
X190297655Y-110130067I-751317J837345D01*
G01*
X188987653Y-108670067D01*
G75*
G02*
X189073681Y-107081405I837345J751317D01*
G01*
X189073681Y-107081405D01*
G75*
G02*
X190662343Y-107167433I751317J-837345D01*
G01*
X191972345Y-108627433D01*
G75*
G02*
X191886317Y-110216095I-837345J-751317D01*
G01*
G37*
%TD.AperFunction*%
%TO.P,MX1,2*%
%TO.N,Net-(D1-Pad2)*%
X184785000Y-106838750D03*
%TA.AperFunction,ComponentPad*%
G36*
G01*
X184902403Y-108541084D02*
X184902403Y-108541084D01*
G75*
G02*
X183702666Y-107496153I-77403J1122334D01*
G01*
X183662666Y-106916153D01*
G75*
G02*
X184707597Y-105716416I1122334J77403D01*
G01*
X184707597Y-105716416D01*
G75*
G02*
X185907334Y-106761347I77403J-1122334D01*
G01*
X185947334Y-107341347D01*
G75*
G02*
X184902403Y-108541084I-1122334J-77403D01*
G01*
G37*
%TD.AperFunction*%
%TD*%
D13*
%TO.N,GND*%
X227774500Y-103352600D03*
X230187500Y-133350000D03*
X230187500Y-114300000D03*
X209702400Y-92113100D03*
X211556600Y-92087700D03*
X203974700Y-94843600D03*
X230187500Y-133350000D03*
X230187500Y-134937500D03*
X230187500Y-114300000D03*
X230187500Y-115887500D03*
X233032300Y-85636100D03*
X233934000Y-94818200D03*
%TO.N,+5V*%
X220472000Y-102908100D03*
X227431600Y-104533700D03*
%TO.N,col0*%
X216693750Y-91281250D03*
%TO.N,col1*%
X216693750Y-90281247D03*
%TO.N,col2*%
X217942433Y-90251920D03*
%TO.N,row0*%
X232568750Y-113506250D03*
X218133428Y-89270327D03*
%TO.N,row1*%
X233568753Y-113506250D03*
X219075000Y-88900000D03*
%TD*%
D14*
%TO.N,GND*%
X209702400Y-92113100D02*
X211531200Y-92113100D01*
X211531200Y-92113100D02*
X211556600Y-92087700D01*
X206971900Y-94843600D02*
X209702400Y-92113100D01*
X203974700Y-94843600D02*
X206971900Y-94843600D01*
X230187500Y-133350000D02*
X230187500Y-134937500D01*
X230187500Y-114300000D02*
X230187500Y-115887500D01*
%TO.N,+5V*%
X221798334Y-104234434D02*
X220472000Y-102908100D01*
X221798334Y-104234434D02*
X221841244Y-104275287D01*
X221841244Y-104275287D02*
X221886107Y-104313986D01*
X221886107Y-104313986D02*
X221932814Y-104350437D01*
X221932814Y-104350437D02*
X221981254Y-104384553D01*
X221981254Y-104384553D02*
X222031310Y-104416250D01*
X222031310Y-104416250D02*
X222082861Y-104445453D01*
X222082861Y-104445453D02*
X222135782Y-104472092D01*
X222135782Y-104472092D02*
X222189947Y-104496102D01*
X222189947Y-104496102D02*
X222245225Y-104517425D01*
X222245225Y-104517425D02*
X222301483Y-104536009D01*
X222301483Y-104536009D02*
X222358584Y-104551812D01*
X222358584Y-104551812D02*
X222416392Y-104564793D01*
X222416392Y-104564793D02*
X222474768Y-104574922D01*
X222474768Y-104574922D02*
X222533570Y-104582175D01*
X222533570Y-104582175D02*
X222592658Y-104586533D01*
X222592658Y-104586533D02*
X222651888Y-104587988D01*
X222592658Y-104586533D02*
X227378767Y-104586533D01*
X227378767Y-104586533D02*
X227431600Y-104533700D01*
D15*
%TO.N,col0*%
X191135000Y-128278750D02*
X189825000Y-126968750D01*
X191135000Y-128428750D02*
X191135000Y-128278750D01*
X191135000Y-109378750D02*
X191135000Y-108108750D01*
X191135000Y-109378750D02*
X191135000Y-128428750D01*
X202946250Y-109378750D02*
X203183169Y-109372933D01*
X191135000Y-109378750D02*
X202946250Y-109378750D01*
X203183169Y-109372933D02*
X203419518Y-109355499D01*
X207712339Y-106611013D02*
X207679657Y-106645342D01*
X205321406Y-109001945D02*
X207712339Y-106611013D01*
X205321406Y-109001945D02*
X205278495Y-109042798D01*
X205278495Y-109042798D02*
X205233632Y-109081497D01*
X205233632Y-109081497D02*
X205186924Y-109117948D01*
X205186924Y-109117948D02*
X205138484Y-109152063D01*
X205138484Y-109152063D02*
X205088429Y-109183761D01*
X205088429Y-109183761D02*
X205036878Y-109212964D01*
X205036878Y-109212964D02*
X204983957Y-109239602D01*
X204983957Y-109239602D02*
X204929792Y-109263612D01*
X204929792Y-109263612D02*
X204874514Y-109284935D01*
X204874514Y-109284935D02*
X204818257Y-109303520D01*
X204818257Y-109303520D02*
X204761155Y-109319322D01*
X204761155Y-109319322D02*
X204703347Y-109332304D01*
X204703347Y-109332304D02*
X204644972Y-109342433D01*
X204644972Y-109342433D02*
X204586170Y-109349685D01*
X204586170Y-109349685D02*
X204527082Y-109354044D01*
X204527082Y-109354044D02*
X204467853Y-109355499D01*
X204467853Y-109355499D02*
X203419518Y-109355499D01*
X207743298Y-106575123D02*
X207712339Y-106611013D01*
X207799752Y-106499005D02*
X207772459Y-106537757D01*
X207825110Y-106458960D02*
X207799752Y-106499005D01*
X207848472Y-106417720D02*
X207825110Y-106458960D01*
X207869783Y-106375383D02*
X207848472Y-106417720D01*
X207920917Y-106242823D02*
X207906049Y-106287829D01*
X207943944Y-106150895D02*
X207933559Y-106197142D01*
X207952047Y-106104195D02*
X207943944Y-106150895D01*
X208078394Y-105368328D02*
X208054385Y-105422493D01*
X208236500Y-105118652D02*
X208200048Y-105165360D01*
X207961336Y-106009883D02*
X207957849Y-106057153D01*
X208105033Y-105315407D02*
X208078394Y-105368328D01*
X208200048Y-105165360D02*
X208165933Y-105213800D01*
X207888991Y-106332051D02*
X207869783Y-106375383D01*
X208165933Y-105213800D02*
X208134236Y-105263856D01*
X207772459Y-106537757D02*
X207743298Y-106575123D01*
X207963953Y-105825204D02*
X207962500Y-105884434D01*
X208134236Y-105263856D02*
X208105033Y-105315407D01*
X207906049Y-106287829D02*
X207888991Y-106332051D01*
X207933559Y-106197142D02*
X207920917Y-106242823D01*
X208275199Y-105073789D02*
X208236500Y-105118652D01*
X207968312Y-105766116D02*
X207963953Y-105825204D01*
X208316053Y-105030880D02*
X208275199Y-105073789D01*
X208033062Y-105477771D02*
X208014477Y-105534029D01*
X208014477Y-105534029D02*
X207998675Y-105591130D01*
X207998675Y-105591130D02*
X207985693Y-105648938D01*
X207957849Y-106057153D02*
X207952047Y-106104195D01*
X208054385Y-105422493D02*
X208033062Y-105477771D01*
X207975564Y-105707314D02*
X207968312Y-105766116D01*
X207985693Y-105648938D02*
X207975564Y-105707314D01*
X207962500Y-105884434D02*
X207962500Y-105962500D01*
X207962500Y-105962500D02*
X207961336Y-106009883D01*
X218492846Y-93080346D02*
X216693750Y-91281250D01*
X218492846Y-93080346D02*
X218533699Y-93123256D01*
X218533699Y-93123256D02*
X218572398Y-93168119D01*
X218572398Y-93168119D02*
X218608849Y-93214827D01*
X218608849Y-93214827D02*
X218642964Y-93263267D01*
X218642964Y-93263267D02*
X218674662Y-93313323D01*
X218674662Y-93313323D02*
X218703865Y-93364873D01*
X218703865Y-93364873D02*
X218730503Y-93417795D01*
X218730503Y-93417795D02*
X218754513Y-93471960D01*
X218754513Y-93471960D02*
X218775836Y-93527237D01*
X218775836Y-93527237D02*
X218794421Y-93583495D01*
X218794421Y-93583495D02*
X218810223Y-93640596D01*
X218810223Y-93640596D02*
X218823204Y-93698405D01*
X218823204Y-93698405D02*
X218833333Y-93756780D01*
X218833333Y-93756780D02*
X218840586Y-93815582D01*
X218840586Y-93815582D02*
X218844944Y-93874670D01*
X218844944Y-93874670D02*
X218846400Y-93933900D01*
X218492846Y-94854085D02*
X208316053Y-105030880D01*
X218492846Y-94854085D02*
X218533699Y-94811174D01*
X218533699Y-94811174D02*
X218572398Y-94766311D01*
X218572398Y-94766311D02*
X218608849Y-94719604D01*
X218608849Y-94719604D02*
X218642965Y-94671164D01*
X218642965Y-94671164D02*
X218674662Y-94621108D01*
X218674662Y-94621108D02*
X218703865Y-94569557D01*
X218703865Y-94569557D02*
X218730504Y-94516636D01*
X218730504Y-94516636D02*
X218754513Y-94462471D01*
X218754513Y-94462471D02*
X218775836Y-94407193D01*
X218775836Y-94407193D02*
X218794421Y-94350936D01*
X218794421Y-94350936D02*
X218810224Y-94293834D01*
X218810224Y-94293834D02*
X218823205Y-94236026D01*
X218823205Y-94236026D02*
X218833334Y-94177651D01*
X218833334Y-94177651D02*
X218840586Y-94118849D01*
X218840586Y-94118849D02*
X218844945Y-94059761D01*
X218844945Y-94059761D02*
X218846400Y-94000532D01*
X218846400Y-94000532D02*
X218846400Y-93933900D01*
%TO.N,col1*%
X210185000Y-109378750D02*
X210185000Y-128428750D01*
X216693750Y-90281247D02*
X216769709Y-90281247D01*
X210538553Y-103786446D02*
X210497699Y-103829355D01*
X210497699Y-103829355D02*
X210459000Y-103874218D01*
X210459000Y-103874218D02*
X210422548Y-103920926D01*
X210422548Y-103920926D02*
X210388433Y-103969366D01*
X210388433Y-103969366D02*
X210356736Y-104019422D01*
X210356736Y-104019422D02*
X210327533Y-104070973D01*
X210327533Y-104070973D02*
X210300894Y-104123894D01*
X210300894Y-104123894D02*
X210276885Y-104178059D01*
X210276885Y-104178059D02*
X210255562Y-104233337D01*
X210255562Y-104233337D02*
X210236977Y-104289595D01*
X210236977Y-104289595D02*
X210221175Y-104346696D01*
X210221175Y-104346696D02*
X210208193Y-104404504D01*
X210208193Y-104404504D02*
X210198064Y-104462880D01*
X210198064Y-104462880D02*
X210190812Y-104521682D01*
X210190812Y-104521682D02*
X210186453Y-104580770D01*
X210186453Y-104580770D02*
X210185000Y-104640000D01*
X210185000Y-104640000D02*
X210185000Y-109378750D01*
X219529010Y-93540548D02*
X219527554Y-93481318D01*
X219527554Y-93481318D02*
X219523196Y-93422230D01*
X219523196Y-93422230D02*
X219515943Y-93363428D01*
X219515943Y-93363428D02*
X219505814Y-93305053D01*
X219505814Y-93305053D02*
X219492833Y-93247244D01*
X219492833Y-93247244D02*
X219477031Y-93190143D01*
X219477031Y-93190143D02*
X219458446Y-93133885D01*
X219458446Y-93133885D02*
X219437123Y-93078608D01*
X219437123Y-93078608D02*
X219413113Y-93024443D01*
X219413113Y-93024443D02*
X219386475Y-92971521D01*
X219386475Y-92971521D02*
X219357272Y-92919970D01*
X219357272Y-92919970D02*
X219325574Y-92869915D01*
X219325574Y-92869915D02*
X219291459Y-92821475D01*
X219291459Y-92821475D02*
X219255008Y-92774767D01*
X219255008Y-92774767D02*
X219216309Y-92729904D01*
X219216309Y-92729904D02*
X219175456Y-92686994D01*
X219175456Y-92686994D02*
X216769709Y-90281247D01*
X219175456Y-95149543D02*
X210538553Y-103786446D01*
X219175456Y-95149543D02*
X219216309Y-95106632D01*
X219216309Y-95106632D02*
X219255008Y-95061769D01*
X219255008Y-95061769D02*
X219291459Y-95015061D01*
X219291459Y-95015061D02*
X219325574Y-94966621D01*
X219325574Y-94966621D02*
X219357272Y-94916566D01*
X219357272Y-94916566D02*
X219386475Y-94865015D01*
X219386475Y-94865015D02*
X219413113Y-94812094D01*
X219413113Y-94812094D02*
X219437123Y-94757929D01*
X219437123Y-94757929D02*
X219458446Y-94702651D01*
X219458446Y-94702651D02*
X219477031Y-94646394D01*
X219477031Y-94646394D02*
X219492833Y-94589292D01*
X219492833Y-94589292D02*
X219505815Y-94531484D01*
X219505815Y-94531484D02*
X219515944Y-94473109D01*
X219515944Y-94473109D02*
X219523196Y-94414307D01*
X219523196Y-94414307D02*
X219527555Y-94355219D01*
X219527555Y-94355219D02*
X219529010Y-94295990D01*
X219529010Y-94295990D02*
X219529010Y-93540548D01*
%TO.N,col2*%
X229235000Y-109378750D02*
X229235000Y-128428750D01*
X229235000Y-102044487D02*
X229235000Y-109378750D01*
X229235000Y-102044487D02*
X229233544Y-101985257D01*
X229233544Y-101985257D02*
X229229186Y-101926169D01*
X229229186Y-101926169D02*
X229221933Y-101867367D01*
X229221933Y-101867367D02*
X229211804Y-101808992D01*
X229211804Y-101808992D02*
X229198823Y-101751183D01*
X229198823Y-101751183D02*
X229183021Y-101694082D01*
X229183021Y-101694082D02*
X229164436Y-101637824D01*
X229164436Y-101637824D02*
X229143113Y-101582547D01*
X229143113Y-101582547D02*
X229119103Y-101528382D01*
X229119103Y-101528382D02*
X229092465Y-101475460D01*
X229092465Y-101475460D02*
X229063262Y-101423909D01*
X229063262Y-101423909D02*
X229031564Y-101373854D01*
X229031564Y-101373854D02*
X228997449Y-101325414D01*
X228997449Y-101325414D02*
X228960998Y-101278706D01*
X228960998Y-101278706D02*
X228922299Y-101233843D01*
X228922299Y-101233843D02*
X228881446Y-101190933D01*
X228881446Y-101190933D02*
X217942433Y-90251920D01*
%TO.N,row0*%
X218133428Y-89366953D02*
X218133428Y-89270327D01*
X232568750Y-104302275D02*
X232568750Y-113506250D01*
X232568750Y-104302275D02*
X232567294Y-104243045D01*
X232567294Y-104243045D02*
X232562936Y-104183957D01*
X232562936Y-104183957D02*
X232555683Y-104125155D01*
X232555683Y-104125155D02*
X232545554Y-104066780D01*
X232545554Y-104066780D02*
X232532573Y-104008971D01*
X232532573Y-104008971D02*
X232516771Y-103951870D01*
X232516771Y-103951870D02*
X232498186Y-103895612D01*
X232498186Y-103895612D02*
X232476863Y-103840335D01*
X232476863Y-103840335D02*
X232452853Y-103786170D01*
X232452853Y-103786170D02*
X232426215Y-103733248D01*
X232426215Y-103733248D02*
X232397012Y-103681697D01*
X232397012Y-103681697D02*
X232365314Y-103631642D01*
X232365314Y-103631642D02*
X232331199Y-103583202D01*
X232331199Y-103583202D02*
X232294748Y-103536494D01*
X232294748Y-103536494D02*
X232256049Y-103491631D01*
X232256049Y-103491631D02*
X232215196Y-103448721D01*
X232215196Y-103448721D02*
X218133428Y-89366953D01*
%TO.N,row1*%
X233568753Y-103893753D02*
X233568753Y-113506250D01*
X233568753Y-103893753D02*
X233567297Y-103834523D01*
X233567297Y-103834523D02*
X233562939Y-103775435D01*
X233562939Y-103775435D02*
X233555686Y-103716633D01*
X233555686Y-103716633D02*
X233545557Y-103658258D01*
X233545557Y-103658258D02*
X233532576Y-103600449D01*
X233532576Y-103600449D02*
X233516774Y-103543348D01*
X233516774Y-103543348D02*
X233498189Y-103487090D01*
X233498189Y-103487090D02*
X233476866Y-103431813D01*
X233476866Y-103431813D02*
X233452856Y-103377648D01*
X233452856Y-103377648D02*
X233426218Y-103324726D01*
X233426218Y-103324726D02*
X233397015Y-103273175D01*
X233397015Y-103273175D02*
X233365317Y-103223120D01*
X233365317Y-103223120D02*
X233331202Y-103174680D01*
X233331202Y-103174680D02*
X233294751Y-103127972D01*
X233294751Y-103127972D02*
X233256052Y-103083109D01*
X233256052Y-103083109D02*
X233215199Y-103040199D01*
X233215199Y-103040199D02*
X219075000Y-88900000D01*
%TD*%
%TO.N,GND*%
G36*
X211280800Y-83473133D02*
G01*
X211318540Y-83597543D01*
X211379825Y-83712200D01*
X211462302Y-83812698D01*
X211562800Y-83895175D01*
X211677457Y-83956460D01*
X211801867Y-83994200D01*
X211898831Y-84003750D01*
X211931250Y-84006943D01*
X211963669Y-84003750D01*
X230948972Y-84003750D01*
X231623307Y-84069869D01*
X232240913Y-84256335D01*
X232810537Y-84559211D01*
X233310475Y-84966951D01*
X233721706Y-85464043D01*
X234028545Y-86031532D01*
X234219320Y-86647824D01*
X234290001Y-87320310D01*
X234290001Y-103491461D01*
X234289940Y-103491111D01*
X234284947Y-103473070D01*
X234280156Y-103451733D01*
X234276955Y-103433284D01*
X234271962Y-103415242D01*
X234267862Y-103396983D01*
X234261990Y-103379207D01*
X234256154Y-103358121D01*
X234252054Y-103339861D01*
X234246183Y-103322089D01*
X234241189Y-103304043D01*
X234234452Y-103286578D01*
X234227589Y-103265803D01*
X234222597Y-103247765D01*
X234215865Y-103230313D01*
X234209990Y-103212529D01*
X234202398Y-103195401D01*
X234194536Y-103175020D01*
X234188659Y-103157231D01*
X234181068Y-103140106D01*
X234174335Y-103122652D01*
X234165922Y-103105938D01*
X234157057Y-103085941D01*
X234150323Y-103068482D01*
X234141904Y-103051755D01*
X234134315Y-103034636D01*
X234125090Y-103018352D01*
X234115257Y-102998816D01*
X234107672Y-102981705D01*
X234098449Y-102965423D01*
X234090031Y-102948700D01*
X234080012Y-102932877D01*
X234069232Y-102913849D01*
X234060810Y-102897117D01*
X234050796Y-102881304D01*
X234041575Y-102865026D01*
X234030794Y-102849717D01*
X234019088Y-102831233D01*
X234009868Y-102814957D01*
X233999090Y-102799653D01*
X233989066Y-102783824D01*
X233977550Y-102769068D01*
X233964968Y-102751202D01*
X233954949Y-102735381D01*
X233943432Y-102720623D01*
X233932653Y-102705318D01*
X233920422Y-102691139D01*
X233906970Y-102673901D01*
X233896190Y-102658595D01*
X233883962Y-102644420D01*
X233872447Y-102629664D01*
X233859541Y-102616108D01*
X233845255Y-102599547D01*
X233833739Y-102584790D01*
X233820830Y-102571231D01*
X233808600Y-102557053D01*
X233795040Y-102544143D01*
X233786429Y-102535098D01*
X233780478Y-102527847D01*
X233760601Y-102507970D01*
X233741273Y-102487669D01*
X233734190Y-102481559D01*
X220110000Y-88857370D01*
X220110000Y-88798061D01*
X220070226Y-88598102D01*
X219992205Y-88409744D01*
X219878937Y-88240226D01*
X219734774Y-88096063D01*
X219565256Y-87982795D01*
X219376898Y-87904774D01*
X219176939Y-87865000D01*
X218973061Y-87865000D01*
X218773102Y-87904774D01*
X218584744Y-87982795D01*
X218415226Y-88096063D01*
X218271063Y-88240226D01*
X218269765Y-88242169D01*
X218235367Y-88235327D01*
X218031489Y-88235327D01*
X217831530Y-88275101D01*
X217643172Y-88353122D01*
X217473654Y-88466390D01*
X217329491Y-88610553D01*
X217216223Y-88780071D01*
X217138202Y-88968429D01*
X217098428Y-89168388D01*
X217098428Y-89328594D01*
X216995648Y-89286021D01*
X216795689Y-89246247D01*
X216591811Y-89246247D01*
X216391852Y-89286021D01*
X216203494Y-89364042D01*
X216033976Y-89477310D01*
X215889813Y-89621473D01*
X215776545Y-89790991D01*
X215698524Y-89979349D01*
X215658750Y-90179308D01*
X215658750Y-90383186D01*
X215698524Y-90583145D01*
X215776545Y-90771503D01*
X215783057Y-90781249D01*
X215776545Y-90790994D01*
X215698524Y-90979352D01*
X215658750Y-91179311D01*
X215658750Y-91383189D01*
X215698524Y-91583148D01*
X215776545Y-91771506D01*
X215889813Y-91941024D01*
X216033976Y-92085187D01*
X216203494Y-92198455D01*
X216391852Y-92276476D01*
X216591811Y-92316250D01*
X216651120Y-92316250D01*
X217947437Y-93612568D01*
X217968924Y-93635137D01*
X217983178Y-93651662D01*
X217996622Y-93668888D01*
X218009194Y-93686739D01*
X218020877Y-93705189D01*
X218031639Y-93724186D01*
X218041452Y-93743680D01*
X218050309Y-93763662D01*
X218058164Y-93784025D01*
X218065011Y-93804751D01*
X218070835Y-93825797D01*
X218075618Y-93847096D01*
X218079354Y-93868625D01*
X218082028Y-93890299D01*
X218083634Y-93912080D01*
X218084400Y-93943252D01*
X218084400Y-93991180D01*
X218083634Y-94022357D01*
X218082028Y-94044134D01*
X218079354Y-94065812D01*
X218075620Y-94087334D01*
X218070839Y-94108623D01*
X218065014Y-94129673D01*
X218058167Y-94150398D01*
X218050303Y-94170783D01*
X218041455Y-94190745D01*
X218031637Y-94210249D01*
X218020878Y-94229241D01*
X218009193Y-94247696D01*
X217996626Y-94265539D01*
X217983189Y-94282757D01*
X217968920Y-94299299D01*
X217947437Y-94321863D01*
X207797080Y-104472223D01*
X207789992Y-104478337D01*
X207770632Y-104498671D01*
X207750774Y-104518529D01*
X207744834Y-104525767D01*
X207736212Y-104534822D01*
X207722652Y-104547733D01*
X207710429Y-104561902D01*
X207697524Y-104575457D01*
X207686002Y-104590220D01*
X207671725Y-104606772D01*
X207658811Y-104620335D01*
X207647285Y-104635104D01*
X207635061Y-104649275D01*
X207624286Y-104664574D01*
X207610829Y-104681818D01*
X207598597Y-104695998D01*
X207587818Y-104711303D01*
X207576307Y-104726053D01*
X207566292Y-104741868D01*
X207553693Y-104759758D01*
X207542174Y-104774518D01*
X207532160Y-104790332D01*
X207521382Y-104805636D01*
X207512153Y-104821928D01*
X207500452Y-104840405D01*
X207489676Y-104855707D01*
X207480450Y-104871994D01*
X207470432Y-104887814D01*
X207462014Y-104904538D01*
X207451244Y-104923549D01*
X207441229Y-104939365D01*
X207432807Y-104956097D01*
X207423579Y-104972386D01*
X207415998Y-104989488D01*
X207406162Y-105009029D01*
X207396930Y-105025326D01*
X207389353Y-105042420D01*
X207380934Y-105059146D01*
X207374193Y-105076621D01*
X207365329Y-105096618D01*
X207356914Y-105113336D01*
X207350177Y-105130802D01*
X207342588Y-105147922D01*
X207336716Y-105165697D01*
X207328847Y-105186097D01*
X207321261Y-105203211D01*
X207315390Y-105220985D01*
X207308652Y-105238451D01*
X207303658Y-105256497D01*
X207296801Y-105277253D01*
X207290062Y-105294724D01*
X207285066Y-105312776D01*
X207279197Y-105330543D01*
X207275098Y-105348798D01*
X207269263Y-105369880D01*
X207263393Y-105387649D01*
X207259290Y-105405918D01*
X207254296Y-105423965D01*
X207251096Y-105442406D01*
X207246303Y-105463752D01*
X207241310Y-105481793D01*
X207238112Y-105500226D01*
X207234010Y-105518490D01*
X207231717Y-105537078D01*
X207227978Y-105558627D01*
X207223875Y-105576899D01*
X207221583Y-105595481D01*
X207218384Y-105613919D01*
X207217007Y-105632588D01*
X207214330Y-105654296D01*
X207211131Y-105672730D01*
X207209754Y-105691402D01*
X207207461Y-105709991D01*
X207207002Y-105728704D01*
X207205392Y-105750522D01*
X207203101Y-105769102D01*
X207202642Y-105787798D01*
X207201265Y-105806468D01*
X207201725Y-105825199D01*
X207201418Y-105837684D01*
X207200500Y-105847009D01*
X207200500Y-105875118D01*
X207199812Y-105903161D01*
X207200500Y-105912486D01*
X207200500Y-105953149D01*
X207200025Y-105972485D01*
X207199291Y-105982440D01*
X207198067Y-105992357D01*
X207196361Y-106002189D01*
X207194173Y-106011934D01*
X207191509Y-106021560D01*
X207188375Y-106031046D01*
X207184783Y-106040358D01*
X207180738Y-106049483D01*
X207176244Y-106058413D01*
X207171326Y-106067093D01*
X207165986Y-106075526D01*
X207160231Y-106083698D01*
X207154089Y-106091568D01*
X207153687Y-106092034D01*
X205629977Y-107615744D01*
X205636777Y-107383906D01*
X205595000Y-106778137D01*
X205595000Y-106665405D01*
X205566205Y-106520642D01*
X205541684Y-106375209D01*
X205532442Y-106350904D01*
X205527364Y-106325377D01*
X205470879Y-106189010D01*
X205418459Y-106051158D01*
X205404652Y-106029122D01*
X205394692Y-106005077D01*
X205312684Y-105882343D01*
X205234381Y-105757374D01*
X205216541Y-105738456D01*
X205202081Y-105716815D01*
X205097705Y-105612439D01*
X204996526Y-105505146D01*
X204975338Y-105490072D01*
X204956935Y-105471669D01*
X204834191Y-105389654D01*
X204714034Y-105304169D01*
X204690317Y-105293520D01*
X204668673Y-105279058D01*
X204532298Y-105222570D01*
X204397761Y-105162163D01*
X204372414Y-105156344D01*
X204348373Y-105146386D01*
X204203606Y-105117590D01*
X204059862Y-105084590D01*
X204033872Y-105083828D01*
X204008345Y-105078750D01*
X203860749Y-105078750D01*
X203713323Y-105074426D01*
X203687677Y-105078750D01*
X203661655Y-105078750D01*
X203516892Y-105107545D01*
X203371459Y-105132066D01*
X203347154Y-105141308D01*
X203321627Y-105146386D01*
X203185260Y-105202871D01*
X203047408Y-105255291D01*
X203025372Y-105269098D01*
X203001327Y-105279058D01*
X202878593Y-105361066D01*
X202753624Y-105439369D01*
X202734706Y-105457209D01*
X202713065Y-105471669D01*
X202608689Y-105576045D01*
X202501396Y-105677224D01*
X202486322Y-105698412D01*
X202467919Y-105716815D01*
X202385904Y-105839559D01*
X202300419Y-105959716D01*
X202289770Y-105983433D01*
X202275308Y-106005077D01*
X202218820Y-106141452D01*
X202158413Y-106275989D01*
X202152594Y-106301336D01*
X202142636Y-106325377D01*
X202113840Y-106470144D01*
X202080840Y-106613888D01*
X202080078Y-106639878D01*
X202075000Y-106665405D01*
X202075000Y-106813005D01*
X202073223Y-106873593D01*
X202075000Y-106899360D01*
X202075000Y-107012095D01*
X202086901Y-107071925D01*
X202125119Y-107626090D01*
X202168316Y-107882292D01*
X202291541Y-108206342D01*
X202475619Y-108500127D01*
X202585597Y-108616750D01*
X193555489Y-108616750D01*
X193401243Y-108611348D01*
X193266333Y-108596690D01*
X193139337Y-108572881D01*
X193019370Y-108540240D01*
X192905411Y-108498859D01*
X192796373Y-108448555D01*
X192691265Y-108388890D01*
X192589203Y-108319173D01*
X192489560Y-108238574D01*
X192403483Y-108157106D01*
X191218729Y-106836697D01*
X191192081Y-106796815D01*
X191103153Y-106707887D01*
X191077241Y-106679008D01*
X191042124Y-106646858D01*
X190946935Y-106551669D01*
X190914419Y-106529942D01*
X190885605Y-106503563D01*
X190770606Y-106433849D01*
X190658673Y-106359058D01*
X190622545Y-106344094D01*
X190589137Y-106323841D01*
X190462734Y-106277898D01*
X190338373Y-106226386D01*
X190300022Y-106218757D01*
X190263302Y-106205411D01*
X190130359Y-106185009D01*
X189998345Y-106158750D01*
X189959246Y-106158750D01*
X189920624Y-106152823D01*
X189786241Y-106158750D01*
X189651655Y-106158750D01*
X189613311Y-106166377D01*
X189574272Y-106168099D01*
X189443612Y-106200132D01*
X189311627Y-106226386D01*
X189275514Y-106241345D01*
X189237554Y-106250651D01*
X189115647Y-106307563D01*
X188991327Y-106359058D01*
X188958824Y-106380776D01*
X188923412Y-106397308D01*
X188814950Y-106476909D01*
X188703065Y-106551669D01*
X188675425Y-106579309D01*
X188643917Y-106602433D01*
X188553066Y-106701668D01*
X188457919Y-106796815D01*
X188436202Y-106829316D01*
X188409811Y-106858143D01*
X188340065Y-106973196D01*
X188265308Y-107085077D01*
X188250350Y-107121188D01*
X188230089Y-107154611D01*
X188184126Y-107281070D01*
X188132636Y-107405377D01*
X188125011Y-107443711D01*
X188111659Y-107480446D01*
X188091249Y-107613441D01*
X188065000Y-107745405D01*
X188065000Y-107784489D01*
X188059071Y-107823124D01*
X188065000Y-107957552D01*
X188065000Y-108092095D01*
X188072625Y-108130427D01*
X188074347Y-108169476D01*
X188106389Y-108300171D01*
X188132636Y-108432123D01*
X188147591Y-108468227D01*
X188156899Y-108506194D01*
X188213822Y-108628123D01*
X188265308Y-108752423D01*
X188287023Y-108784921D01*
X188303556Y-108820336D01*
X188383166Y-108928809D01*
X188457919Y-109040685D01*
X188546808Y-109129574D01*
X189882756Y-110618492D01*
X189908212Y-110641797D01*
X189994824Y-110733310D01*
X190075423Y-110832953D01*
X190145140Y-110935015D01*
X190204805Y-111040123D01*
X190255109Y-111149161D01*
X190296490Y-111263120D01*
X190329131Y-111383087D01*
X190352940Y-111510083D01*
X190367598Y-111644993D01*
X190373000Y-111799242D01*
X190373001Y-125290729D01*
X190338373Y-125276386D01*
X190300022Y-125268757D01*
X190263302Y-125255411D01*
X190130359Y-125235009D01*
X189998345Y-125208750D01*
X189959246Y-125208750D01*
X189920624Y-125202823D01*
X189786241Y-125208750D01*
X189651655Y-125208750D01*
X189613311Y-125216377D01*
X189574272Y-125218099D01*
X189443612Y-125250132D01*
X189311627Y-125276386D01*
X189275514Y-125291345D01*
X189237554Y-125300651D01*
X189115647Y-125357563D01*
X188991327Y-125409058D01*
X188958824Y-125430776D01*
X188923412Y-125447308D01*
X188814950Y-125526909D01*
X188703065Y-125601669D01*
X188675425Y-125629309D01*
X188643917Y-125652433D01*
X188553066Y-125751668D01*
X188457919Y-125846815D01*
X188436202Y-125879316D01*
X188409811Y-125908143D01*
X188340065Y-126023196D01*
X188265308Y-126135077D01*
X188250350Y-126171188D01*
X188230089Y-126204611D01*
X188184126Y-126331070D01*
X188132636Y-126455377D01*
X188125011Y-126493711D01*
X188111659Y-126530446D01*
X188091249Y-126663441D01*
X188065000Y-126795405D01*
X188065000Y-126834489D01*
X188059071Y-126873124D01*
X188065000Y-127007552D01*
X188065000Y-127142095D01*
X188072625Y-127180427D01*
X188074347Y-127219476D01*
X188106389Y-127350171D01*
X188132636Y-127482123D01*
X188147591Y-127518227D01*
X188156899Y-127556194D01*
X188213822Y-127678123D01*
X188265308Y-127802423D01*
X188287023Y-127834921D01*
X188303556Y-127870336D01*
X188383166Y-127978809D01*
X188457919Y-128090685D01*
X188546808Y-128179574D01*
X189882756Y-129668492D01*
X190074392Y-129843937D01*
X190370861Y-130023659D01*
X190696695Y-130142089D01*
X191039373Y-130194677D01*
X191108186Y-130191642D01*
X191066856Y-130253497D01*
X190953029Y-130528299D01*
X190895000Y-130820028D01*
X190895000Y-131117472D01*
X190953029Y-131409201D01*
X191066856Y-131684003D01*
X191232107Y-131931319D01*
X191442431Y-132141643D01*
X191689747Y-132306894D01*
X191964549Y-132420721D01*
X192256278Y-132478750D01*
X192553722Y-132478750D01*
X192845451Y-132420721D01*
X193120253Y-132306894D01*
X193367569Y-132141643D01*
X193577893Y-131931319D01*
X193743144Y-131684003D01*
X193856971Y-131409201D01*
X193915000Y-131117472D01*
X193915000Y-130820028D01*
X199785000Y-130820028D01*
X199785000Y-131117472D01*
X199843029Y-131409201D01*
X199956856Y-131684003D01*
X200122107Y-131931319D01*
X200332431Y-132141643D01*
X200579747Y-132306894D01*
X200854549Y-132420721D01*
X201146278Y-132478750D01*
X201443722Y-132478750D01*
X201735451Y-132420721D01*
X202010253Y-132306894D01*
X202257569Y-132141643D01*
X202467893Y-131931319D01*
X202633144Y-131684003D01*
X202746971Y-131409201D01*
X202805000Y-131117472D01*
X202805000Y-130820028D01*
X202783080Y-130709826D01*
X203746100Y-130709826D01*
X203746100Y-131227674D01*
X203847127Y-131735572D01*
X204045299Y-132214001D01*
X204333000Y-132644576D01*
X204699174Y-133010750D01*
X205129749Y-133298451D01*
X205608178Y-133496623D01*
X206116076Y-133597650D01*
X206633924Y-133597650D01*
X207141822Y-133496623D01*
X207620251Y-133298451D01*
X208050826Y-133010750D01*
X208417000Y-132644576D01*
X208704701Y-132214001D01*
X208902873Y-131735572D01*
X209003900Y-131227674D01*
X209003900Y-130709826D01*
X208902873Y-130201928D01*
X208704701Y-129723499D01*
X208417000Y-129292924D01*
X208050826Y-128926750D01*
X207620251Y-128639049D01*
X207141822Y-128440877D01*
X206633924Y-128339850D01*
X206116076Y-128339850D01*
X205608178Y-128440877D01*
X205129749Y-128639049D01*
X204699174Y-128926750D01*
X204333000Y-129292924D01*
X204045299Y-129723499D01*
X203847127Y-130201928D01*
X203746100Y-130709826D01*
X202783080Y-130709826D01*
X202746971Y-130528299D01*
X202633144Y-130253497D01*
X202467893Y-130006181D01*
X202257569Y-129795857D01*
X202010253Y-129630606D01*
X201735451Y-129516779D01*
X201443722Y-129458750D01*
X201146278Y-129458750D01*
X200854549Y-129516779D01*
X200579747Y-129630606D01*
X200332431Y-129795857D01*
X200122107Y-130006181D01*
X199956856Y-130253497D01*
X199843029Y-130528299D01*
X199785000Y-130820028D01*
X193915000Y-130820028D01*
X193856971Y-130528299D01*
X193743144Y-130253497D01*
X193577893Y-130006181D01*
X193367569Y-129795857D01*
X193120253Y-129630606D01*
X192845451Y-129516779D01*
X192567125Y-129461416D01*
X192729909Y-129192889D01*
X192848339Y-128867054D01*
X192900927Y-128524376D01*
X192885651Y-128178023D01*
X192803099Y-127841305D01*
X192656442Y-127527163D01*
X192502716Y-127317702D01*
X192193818Y-126973434D01*
X192124860Y-126872484D01*
X192065195Y-126767376D01*
X192014891Y-126658338D01*
X191973510Y-126544379D01*
X191940869Y-126424412D01*
X191917060Y-126297416D01*
X191902402Y-126162506D01*
X191897000Y-126008261D01*
X191897000Y-125923593D01*
X202073223Y-125923593D01*
X202075000Y-125949360D01*
X202075000Y-126062095D01*
X202086901Y-126121925D01*
X202125119Y-126676090D01*
X202168316Y-126932292D01*
X202291541Y-127256342D01*
X202475619Y-127550127D01*
X202713474Y-127802354D01*
X202995966Y-128003332D01*
X203312239Y-128145337D01*
X203650138Y-128222911D01*
X203996677Y-128233074D01*
X204338541Y-128175434D01*
X204662592Y-128052209D01*
X204956376Y-127868131D01*
X205208604Y-127630276D01*
X205409581Y-127347784D01*
X205551587Y-127031512D01*
X205629160Y-126693613D01*
X205636777Y-126433906D01*
X205595000Y-125828137D01*
X205595000Y-125715405D01*
X205566205Y-125570642D01*
X205541684Y-125425209D01*
X205532442Y-125400904D01*
X205527364Y-125375377D01*
X205470879Y-125239010D01*
X205418459Y-125101158D01*
X205404652Y-125079122D01*
X205394692Y-125055077D01*
X205312684Y-124932343D01*
X205234381Y-124807374D01*
X205216541Y-124788456D01*
X205202081Y-124766815D01*
X205097705Y-124662439D01*
X204996526Y-124555146D01*
X204975338Y-124540072D01*
X204956935Y-124521669D01*
X204834191Y-124439654D01*
X204714034Y-124354169D01*
X204690317Y-124343520D01*
X204668673Y-124329058D01*
X204532298Y-124272570D01*
X204397761Y-124212163D01*
X204372414Y-124206344D01*
X204348373Y-124196386D01*
X204203606Y-124167590D01*
X204059862Y-124134590D01*
X204033872Y-124133828D01*
X204008345Y-124128750D01*
X203860749Y-124128750D01*
X203713323Y-124124426D01*
X203687677Y-124128750D01*
X203661655Y-124128750D01*
X203516892Y-124157545D01*
X203371459Y-124182066D01*
X203347154Y-124191308D01*
X203321627Y-124196386D01*
X203185260Y-124252871D01*
X203047408Y-124305291D01*
X203025372Y-124319098D01*
X203001327Y-124329058D01*
X202878593Y-124411066D01*
X202753624Y-124489369D01*
X202734706Y-124507209D01*
X202713065Y-124521669D01*
X202608689Y-124626045D01*
X202501396Y-124727224D01*
X202486322Y-124748412D01*
X202467919Y-124766815D01*
X202385904Y-124889559D01*
X202300419Y-125009716D01*
X202289770Y-125033433D01*
X202275308Y-125055077D01*
X202218820Y-125191452D01*
X202158413Y-125325989D01*
X202152594Y-125351336D01*
X202142636Y-125375377D01*
X202113840Y-125520144D01*
X202080840Y-125663888D01*
X202080078Y-125689878D01*
X202075000Y-125715405D01*
X202075000Y-125863005D01*
X202073223Y-125923593D01*
X191897000Y-125923593D01*
X191897000Y-113342741D01*
X191964549Y-113370721D01*
X192256278Y-113428750D01*
X192553722Y-113428750D01*
X192845451Y-113370721D01*
X193120253Y-113256894D01*
X193367569Y-113091643D01*
X193577893Y-112881319D01*
X193743144Y-112634003D01*
X193856971Y-112359201D01*
X193915000Y-112067472D01*
X193915000Y-111770028D01*
X199785000Y-111770028D01*
X199785000Y-112067472D01*
X199843029Y-112359201D01*
X199956856Y-112634003D01*
X200122107Y-112881319D01*
X200332431Y-113091643D01*
X200579747Y-113256894D01*
X200854549Y-113370721D01*
X201146278Y-113428750D01*
X201443722Y-113428750D01*
X201735451Y-113370721D01*
X202010253Y-113256894D01*
X202257569Y-113091643D01*
X202467893Y-112881319D01*
X202633144Y-112634003D01*
X202746971Y-112359201D01*
X202805000Y-112067472D01*
X202805000Y-111770028D01*
X202746971Y-111478299D01*
X202633144Y-111203497D01*
X202467893Y-110956181D01*
X202257569Y-110745857D01*
X202010253Y-110580606D01*
X201735451Y-110466779D01*
X201443722Y-110408750D01*
X201146278Y-110408750D01*
X200854549Y-110466779D01*
X200579747Y-110580606D01*
X200332431Y-110745857D01*
X200122107Y-110956181D01*
X199956856Y-111203497D01*
X199843029Y-111478299D01*
X199785000Y-111770028D01*
X193915000Y-111770028D01*
X193856971Y-111478299D01*
X193743144Y-111203497D01*
X193577893Y-110956181D01*
X193367569Y-110745857D01*
X193120253Y-110580606D01*
X192845451Y-110466779D01*
X192614735Y-110420886D01*
X192691265Y-110368610D01*
X192796373Y-110308945D01*
X192905411Y-110258641D01*
X193019370Y-110217260D01*
X193139337Y-110184619D01*
X193266333Y-110160810D01*
X193401243Y-110146152D01*
X193555489Y-110140750D01*
X202918198Y-110140750D01*
X202927539Y-110141439D01*
X202955598Y-110140750D01*
X202983676Y-110140750D01*
X202993001Y-110139832D01*
X203183183Y-110135162D01*
X203201900Y-110135621D01*
X203220576Y-110134243D01*
X203239286Y-110133784D01*
X203257859Y-110131493D01*
X203447580Y-110117499D01*
X204439810Y-110117499D01*
X204449152Y-110118188D01*
X204457952Y-110117972D01*
X204333000Y-110242924D01*
X204045299Y-110673499D01*
X203847127Y-111151928D01*
X203746100Y-111659826D01*
X203746100Y-112177674D01*
X203847127Y-112685572D01*
X204045299Y-113164001D01*
X204333000Y-113594576D01*
X204699174Y-113960750D01*
X205129749Y-114248451D01*
X205608178Y-114446623D01*
X206116076Y-114547650D01*
X206633924Y-114547650D01*
X207141822Y-114446623D01*
X207620251Y-114248451D01*
X208050826Y-113960750D01*
X208417000Y-113594576D01*
X208704701Y-113164001D01*
X208902873Y-112685572D01*
X209003900Y-112177674D01*
X209003900Y-111659826D01*
X208902873Y-111151928D01*
X208704701Y-110673499D01*
X208417000Y-110242924D01*
X208050826Y-109876750D01*
X207620251Y-109589049D01*
X207141822Y-109390877D01*
X206633924Y-109289850D01*
X206116076Y-109289850D01*
X206109903Y-109291078D01*
X207145446Y-108255536D01*
X207156389Y-108300171D01*
X207182636Y-108432123D01*
X207197591Y-108468227D01*
X207206899Y-108506194D01*
X207263822Y-108628123D01*
X207315308Y-108752423D01*
X207337023Y-108784921D01*
X207353556Y-108820336D01*
X207433166Y-108928809D01*
X207507919Y-109040685D01*
X207596808Y-109129574D01*
X208932756Y-110618492D01*
X208958212Y-110641797D01*
X209044824Y-110733310D01*
X209125423Y-110832953D01*
X209195140Y-110935015D01*
X209254805Y-111040123D01*
X209305109Y-111149161D01*
X209346490Y-111263120D01*
X209379131Y-111383087D01*
X209402940Y-111510083D01*
X209417598Y-111644993D01*
X209423000Y-111799242D01*
X209423001Y-125290729D01*
X209388373Y-125276386D01*
X209350022Y-125268757D01*
X209313302Y-125255411D01*
X209180359Y-125235009D01*
X209048345Y-125208750D01*
X209009246Y-125208750D01*
X208970624Y-125202823D01*
X208836241Y-125208750D01*
X208701655Y-125208750D01*
X208663311Y-125216377D01*
X208624272Y-125218099D01*
X208493612Y-125250132D01*
X208361627Y-125276386D01*
X208325514Y-125291345D01*
X208287554Y-125300651D01*
X208165647Y-125357563D01*
X208041327Y-125409058D01*
X208008824Y-125430776D01*
X207973412Y-125447308D01*
X207864950Y-125526909D01*
X207753065Y-125601669D01*
X207725425Y-125629309D01*
X207693917Y-125652433D01*
X207603066Y-125751668D01*
X207507919Y-125846815D01*
X207486202Y-125879316D01*
X207459811Y-125908143D01*
X207390065Y-126023196D01*
X207315308Y-126135077D01*
X207300350Y-126171188D01*
X207280089Y-126204611D01*
X207234126Y-126331070D01*
X207182636Y-126455377D01*
X207175011Y-126493711D01*
X207161659Y-126530446D01*
X207141249Y-126663441D01*
X207115000Y-126795405D01*
X207115000Y-126834489D01*
X207109071Y-126873124D01*
X207115000Y-127007552D01*
X207115000Y-127142095D01*
X207122625Y-127180427D01*
X207124347Y-127219476D01*
X207156389Y-127350171D01*
X207182636Y-127482123D01*
X207197591Y-127518227D01*
X207206899Y-127556194D01*
X207263822Y-127678123D01*
X207315308Y-127802423D01*
X207337023Y-127834921D01*
X207353556Y-127870336D01*
X207433166Y-127978809D01*
X207507919Y-128090685D01*
X207596808Y-128179574D01*
X208932756Y-129668492D01*
X209124392Y-129843937D01*
X209420861Y-130023659D01*
X209746695Y-130142089D01*
X210089373Y-130194677D01*
X210158186Y-130191642D01*
X210116856Y-130253497D01*
X210003029Y-130528299D01*
X209945000Y-130820028D01*
X209945000Y-131117472D01*
X210003029Y-131409201D01*
X210116856Y-131684003D01*
X210282107Y-131931319D01*
X210492431Y-132141643D01*
X210739747Y-132306894D01*
X211014549Y-132420721D01*
X211306278Y-132478750D01*
X211603722Y-132478750D01*
X211895451Y-132420721D01*
X212170253Y-132306894D01*
X212417569Y-132141643D01*
X212627893Y-131931319D01*
X212793144Y-131684003D01*
X212906971Y-131409201D01*
X212965000Y-131117472D01*
X212965000Y-130820028D01*
X218835000Y-130820028D01*
X218835000Y-131117472D01*
X218893029Y-131409201D01*
X219006856Y-131684003D01*
X219172107Y-131931319D01*
X219382431Y-132141643D01*
X219629747Y-132306894D01*
X219904549Y-132420721D01*
X220196278Y-132478750D01*
X220493722Y-132478750D01*
X220785451Y-132420721D01*
X221060253Y-132306894D01*
X221307569Y-132141643D01*
X221517893Y-131931319D01*
X221683144Y-131684003D01*
X221796971Y-131409201D01*
X221855000Y-131117472D01*
X221855000Y-130820028D01*
X221833080Y-130709826D01*
X222796100Y-130709826D01*
X222796100Y-131227674D01*
X222897127Y-131735572D01*
X223095299Y-132214001D01*
X223383000Y-132644576D01*
X223749174Y-133010750D01*
X224179749Y-133298451D01*
X224658178Y-133496623D01*
X225166076Y-133597650D01*
X225683924Y-133597650D01*
X226191822Y-133496623D01*
X226670251Y-133298451D01*
X227100826Y-133010750D01*
X227467000Y-132644576D01*
X227754701Y-132214001D01*
X227952873Y-131735572D01*
X228053900Y-131227674D01*
X228053900Y-130709826D01*
X227952873Y-130201928D01*
X227754701Y-129723499D01*
X227467000Y-129292924D01*
X227100826Y-128926750D01*
X226670251Y-128639049D01*
X226191822Y-128440877D01*
X225683924Y-128339850D01*
X225166076Y-128339850D01*
X224658178Y-128440877D01*
X224179749Y-128639049D01*
X223749174Y-128926750D01*
X223383000Y-129292924D01*
X223095299Y-129723499D01*
X222897127Y-130201928D01*
X222796100Y-130709826D01*
X221833080Y-130709826D01*
X221796971Y-130528299D01*
X221683144Y-130253497D01*
X221517893Y-130006181D01*
X221307569Y-129795857D01*
X221060253Y-129630606D01*
X220785451Y-129516779D01*
X220493722Y-129458750D01*
X220196278Y-129458750D01*
X219904549Y-129516779D01*
X219629747Y-129630606D01*
X219382431Y-129795857D01*
X219172107Y-130006181D01*
X219006856Y-130253497D01*
X218893029Y-130528299D01*
X218835000Y-130820028D01*
X212965000Y-130820028D01*
X212906971Y-130528299D01*
X212793144Y-130253497D01*
X212627893Y-130006181D01*
X212417569Y-129795857D01*
X212170253Y-129630606D01*
X211895451Y-129516779D01*
X211617125Y-129461416D01*
X211779909Y-129192889D01*
X211898339Y-128867054D01*
X211950927Y-128524376D01*
X211935651Y-128178023D01*
X211853099Y-127841305D01*
X211706442Y-127527163D01*
X211552716Y-127317702D01*
X211243818Y-126973434D01*
X211174860Y-126872484D01*
X211115195Y-126767376D01*
X211064891Y-126658338D01*
X211023510Y-126544379D01*
X210990869Y-126424412D01*
X210967060Y-126297416D01*
X210952402Y-126162506D01*
X210947000Y-126008261D01*
X210947000Y-125923593D01*
X221123223Y-125923593D01*
X221125000Y-125949360D01*
X221125000Y-126062095D01*
X221136901Y-126121925D01*
X221175119Y-126676090D01*
X221218316Y-126932292D01*
X221341541Y-127256342D01*
X221525619Y-127550127D01*
X221763474Y-127802354D01*
X222045966Y-128003332D01*
X222362239Y-128145337D01*
X222700138Y-128222911D01*
X223046677Y-128233074D01*
X223388541Y-128175434D01*
X223712592Y-128052209D01*
X224006376Y-127868131D01*
X224258604Y-127630276D01*
X224459581Y-127347784D01*
X224601587Y-127031512D01*
X224679160Y-126693613D01*
X224686777Y-126433906D01*
X224645000Y-125828137D01*
X224645000Y-125715405D01*
X224616205Y-125570642D01*
X224591684Y-125425209D01*
X224582442Y-125400904D01*
X224577364Y-125375377D01*
X224520879Y-125239010D01*
X224468459Y-125101158D01*
X224454652Y-125079122D01*
X224444692Y-125055077D01*
X224362684Y-124932343D01*
X224284381Y-124807374D01*
X224266541Y-124788456D01*
X224252081Y-124766815D01*
X224147705Y-124662439D01*
X224046526Y-124555146D01*
X224025338Y-124540072D01*
X224006935Y-124521669D01*
X223884191Y-124439654D01*
X223764034Y-124354169D01*
X223740317Y-124343520D01*
X223718673Y-124329058D01*
X223582298Y-124272570D01*
X223447761Y-124212163D01*
X223422414Y-124206344D01*
X223398373Y-124196386D01*
X223253606Y-124167590D01*
X223109862Y-124134590D01*
X223083872Y-124133828D01*
X223058345Y-124128750D01*
X222910749Y-124128750D01*
X222763323Y-124124426D01*
X222737677Y-124128750D01*
X222711655Y-124128750D01*
X222566892Y-124157545D01*
X222421459Y-124182066D01*
X222397154Y-124191308D01*
X222371627Y-124196386D01*
X222235260Y-124252871D01*
X222097408Y-124305291D01*
X222075372Y-124319098D01*
X222051327Y-124329058D01*
X221928593Y-124411066D01*
X221803624Y-124489369D01*
X221784706Y-124507209D01*
X221763065Y-124521669D01*
X221658689Y-124626045D01*
X221551396Y-124727224D01*
X221536322Y-124748412D01*
X221517919Y-124766815D01*
X221435904Y-124889559D01*
X221350419Y-125009716D01*
X221339770Y-125033433D01*
X221325308Y-125055077D01*
X221268820Y-125191452D01*
X221208413Y-125325989D01*
X221202594Y-125351336D01*
X221192636Y-125375377D01*
X221163840Y-125520144D01*
X221130840Y-125663888D01*
X221130078Y-125689878D01*
X221125000Y-125715405D01*
X221125000Y-125863005D01*
X221123223Y-125923593D01*
X210947000Y-125923593D01*
X210947000Y-113342741D01*
X211014549Y-113370721D01*
X211306278Y-113428750D01*
X211603722Y-113428750D01*
X211895451Y-113370721D01*
X212170253Y-113256894D01*
X212417569Y-113091643D01*
X212627893Y-112881319D01*
X212793144Y-112634003D01*
X212906971Y-112359201D01*
X212965000Y-112067472D01*
X212965000Y-111770028D01*
X218835000Y-111770028D01*
X218835000Y-112067472D01*
X218893029Y-112359201D01*
X219006856Y-112634003D01*
X219172107Y-112881319D01*
X219382431Y-113091643D01*
X219629747Y-113256894D01*
X219904549Y-113370721D01*
X220196278Y-113428750D01*
X220493722Y-113428750D01*
X220785451Y-113370721D01*
X221060253Y-113256894D01*
X221307569Y-113091643D01*
X221517893Y-112881319D01*
X221683144Y-112634003D01*
X221796971Y-112359201D01*
X221855000Y-112067472D01*
X221855000Y-111770028D01*
X221833080Y-111659826D01*
X222796100Y-111659826D01*
X222796100Y-112177674D01*
X222897127Y-112685572D01*
X223095299Y-113164001D01*
X223383000Y-113594576D01*
X223749174Y-113960750D01*
X224179749Y-114248451D01*
X224658178Y-114446623D01*
X225166076Y-114547650D01*
X225683924Y-114547650D01*
X226191822Y-114446623D01*
X226670251Y-114248451D01*
X227100826Y-113960750D01*
X227467000Y-113594576D01*
X227754701Y-113164001D01*
X227952873Y-112685572D01*
X228053900Y-112177674D01*
X228053900Y-111659826D01*
X227952873Y-111151928D01*
X227754701Y-110673499D01*
X227467000Y-110242924D01*
X227100826Y-109876750D01*
X226670251Y-109589049D01*
X226191822Y-109390877D01*
X225683924Y-109289850D01*
X225166076Y-109289850D01*
X224658178Y-109390877D01*
X224179749Y-109589049D01*
X223749174Y-109876750D01*
X223383000Y-110242924D01*
X223095299Y-110673499D01*
X222897127Y-111151928D01*
X222796100Y-111659826D01*
X221833080Y-111659826D01*
X221796971Y-111478299D01*
X221683144Y-111203497D01*
X221517893Y-110956181D01*
X221307569Y-110745857D01*
X221060253Y-110580606D01*
X220785451Y-110466779D01*
X220493722Y-110408750D01*
X220196278Y-110408750D01*
X219904549Y-110466779D01*
X219629747Y-110580606D01*
X219382431Y-110745857D01*
X219172107Y-110956181D01*
X219006856Y-111203497D01*
X218893029Y-111478299D01*
X218835000Y-111770028D01*
X212965000Y-111770028D01*
X212906971Y-111478299D01*
X212793144Y-111203497D01*
X212627893Y-110956181D01*
X212417569Y-110745857D01*
X212170253Y-110580606D01*
X211895451Y-110466779D01*
X211617125Y-110411416D01*
X211779909Y-110142889D01*
X211898339Y-109817054D01*
X211950927Y-109474376D01*
X211935651Y-109128023D01*
X211853099Y-108791305D01*
X211706442Y-108477163D01*
X211552716Y-108267702D01*
X211243818Y-107923434D01*
X211174860Y-107822484D01*
X211115195Y-107717376D01*
X211064891Y-107608338D01*
X211023510Y-107494379D01*
X210990869Y-107374412D01*
X210967060Y-107247416D01*
X210952402Y-107112506D01*
X210947000Y-106958261D01*
X210947000Y-104649310D01*
X210947764Y-104618173D01*
X210949370Y-104596397D01*
X210952045Y-104574711D01*
X210955775Y-104553212D01*
X210960559Y-104531910D01*
X210966385Y-104510857D01*
X210973235Y-104490122D01*
X210981098Y-104469739D01*
X210989937Y-104449797D01*
X210999763Y-104430278D01*
X211010520Y-104411289D01*
X211022206Y-104392833D01*
X211034774Y-104374987D01*
X211048204Y-104357779D01*
X211062468Y-104341243D01*
X211083980Y-104318649D01*
X212596468Y-102806161D01*
X219437000Y-102806161D01*
X219437000Y-103010039D01*
X219476774Y-103209998D01*
X219554795Y-103398356D01*
X219668063Y-103567874D01*
X219812226Y-103712037D01*
X219981744Y-103825305D01*
X220170102Y-103903326D01*
X220331996Y-103935528D01*
X221193128Y-104796662D01*
X221199753Y-104804342D01*
X221221761Y-104825295D01*
X221243292Y-104846826D01*
X221251148Y-104853274D01*
X221257360Y-104859188D01*
X221271344Y-104873875D01*
X221286703Y-104887124D01*
X221301404Y-104901120D01*
X221317400Y-104913603D01*
X221331573Y-104925829D01*
X221346260Y-104939812D01*
X221362251Y-104952292D01*
X221377621Y-104965550D01*
X221394208Y-104977232D01*
X221408961Y-104988745D01*
X221424323Y-105001997D01*
X221440907Y-105013677D01*
X221456906Y-105026163D01*
X221474053Y-105037021D01*
X221489351Y-105047796D01*
X221505359Y-105060288D01*
X221522502Y-105071143D01*
X221539074Y-105082815D01*
X221556725Y-105092814D01*
X221572552Y-105102837D01*
X221589141Y-105114520D01*
X221606797Y-105124522D01*
X221623938Y-105135376D01*
X221642061Y-105144498D01*
X221658345Y-105153723D01*
X221675476Y-105164571D01*
X221693604Y-105173696D01*
X221711262Y-105183699D01*
X221729806Y-105191919D01*
X221746515Y-105200330D01*
X221764178Y-105210336D01*
X221782733Y-105218561D01*
X221800843Y-105227677D01*
X221819767Y-105234977D01*
X221836886Y-105242565D01*
X221855019Y-105251693D01*
X221873952Y-105258996D01*
X221892491Y-105267214D01*
X221911756Y-105273578D01*
X221929232Y-105280319D01*
X221947789Y-105288545D01*
X221967055Y-105294909D01*
X221985969Y-105302205D01*
X222005521Y-105307616D01*
X222007573Y-105308294D01*
X221928593Y-105361066D01*
X221803624Y-105439369D01*
X221784706Y-105457209D01*
X221763065Y-105471669D01*
X221658689Y-105576045D01*
X221551396Y-105677224D01*
X221536322Y-105698412D01*
X221517919Y-105716815D01*
X221435904Y-105839559D01*
X221350419Y-105959716D01*
X221339770Y-105983433D01*
X221325308Y-106005077D01*
X221268820Y-106141452D01*
X221208413Y-106275989D01*
X221202594Y-106301336D01*
X221192636Y-106325377D01*
X221163840Y-106470144D01*
X221130840Y-106613888D01*
X221130078Y-106639878D01*
X221125000Y-106665405D01*
X221125000Y-106813005D01*
X221123223Y-106873593D01*
X221125000Y-106899360D01*
X221125000Y-107012095D01*
X221136901Y-107071925D01*
X221175119Y-107626090D01*
X221218316Y-107882292D01*
X221341541Y-108206342D01*
X221525619Y-108500127D01*
X221763474Y-108752354D01*
X222045966Y-108953332D01*
X222362239Y-109095337D01*
X222700138Y-109172911D01*
X223046677Y-109183074D01*
X223388541Y-109125434D01*
X223712592Y-109002209D01*
X224006376Y-108818131D01*
X224258604Y-108580276D01*
X224459581Y-108297784D01*
X224601587Y-107981512D01*
X224679160Y-107643613D01*
X224686777Y-107383906D01*
X224645000Y-106778137D01*
X224645000Y-106665405D01*
X224616205Y-106520642D01*
X224591684Y-106375209D01*
X224582442Y-106350904D01*
X224577364Y-106325377D01*
X224520879Y-106189010D01*
X224468459Y-106051158D01*
X224454652Y-106029122D01*
X224444692Y-106005077D01*
X224362684Y-105882343D01*
X224284381Y-105757374D01*
X224266541Y-105738456D01*
X224252081Y-105716815D01*
X224147705Y-105612439D01*
X224046526Y-105505146D01*
X224025338Y-105490072D01*
X224006935Y-105471669D01*
X223917684Y-105412033D01*
X226883168Y-105412033D01*
X226941344Y-105450905D01*
X227129702Y-105528926D01*
X227329661Y-105568700D01*
X227533539Y-105568700D01*
X227733498Y-105528926D01*
X227921856Y-105450905D01*
X228091374Y-105337637D01*
X228235537Y-105193474D01*
X228348805Y-105023956D01*
X228426826Y-104835598D01*
X228466600Y-104635639D01*
X228466600Y-104431761D01*
X228426826Y-104231802D01*
X228348805Y-104043444D01*
X228235537Y-103873926D01*
X228091374Y-103729763D01*
X227921856Y-103616495D01*
X227733498Y-103538474D01*
X227533539Y-103498700D01*
X227329661Y-103498700D01*
X227129702Y-103538474D01*
X226941344Y-103616495D01*
X226771826Y-103729763D01*
X226740556Y-103761033D01*
X222623053Y-103761033D01*
X222614504Y-103760403D01*
X222595940Y-103758113D01*
X222577474Y-103754909D01*
X222559232Y-103750812D01*
X222541189Y-103745819D01*
X222523402Y-103739943D01*
X222505948Y-103733210D01*
X222488842Y-103725628D01*
X222472120Y-103717210D01*
X222455819Y-103707977D01*
X222440018Y-103697971D01*
X222424719Y-103687196D01*
X222409958Y-103675676D01*
X222395775Y-103663441D01*
X222374927Y-103643593D01*
X221499428Y-102768096D01*
X221467226Y-102606202D01*
X221389205Y-102417844D01*
X221275937Y-102248326D01*
X221131774Y-102104163D01*
X220962256Y-101990895D01*
X220773898Y-101912874D01*
X220573939Y-101873100D01*
X220370061Y-101873100D01*
X220170102Y-101912874D01*
X219981744Y-101990895D01*
X219812226Y-102104163D01*
X219668063Y-102248326D01*
X219554795Y-102417844D01*
X219476774Y-102606202D01*
X219437000Y-102806161D01*
X212596468Y-102806161D01*
X219694452Y-95708178D01*
X219701536Y-95702067D01*
X219720855Y-95681775D01*
X219740735Y-95661895D01*
X219746690Y-95654639D01*
X219755298Y-95645597D01*
X219768857Y-95632688D01*
X219781091Y-95618505D01*
X219794002Y-95604944D01*
X219805516Y-95590190D01*
X219819798Y-95573633D01*
X219832704Y-95560077D01*
X219844219Y-95545321D01*
X219856447Y-95531146D01*
X219867227Y-95515840D01*
X219880679Y-95498602D01*
X219892910Y-95484423D01*
X219903689Y-95469118D01*
X219915206Y-95454360D01*
X219925225Y-95438539D01*
X219937807Y-95420673D01*
X219949323Y-95405917D01*
X219959347Y-95390088D01*
X219970125Y-95374784D01*
X219979345Y-95358508D01*
X219991051Y-95340024D01*
X220001832Y-95324715D01*
X220011053Y-95308437D01*
X220021067Y-95292624D01*
X220029489Y-95275892D01*
X220040269Y-95256863D01*
X220050285Y-95241046D01*
X220058702Y-95224323D01*
X220067929Y-95208036D01*
X220075514Y-95190924D01*
X220085343Y-95171397D01*
X220094572Y-95155106D01*
X220102162Y-95137985D01*
X220110577Y-95121266D01*
X220117310Y-95103810D01*
X220126178Y-95083806D01*
X220134594Y-95067086D01*
X220141328Y-95049630D01*
X220148916Y-95032511D01*
X220154792Y-95014724D01*
X220162662Y-94994321D01*
X220170245Y-94977215D01*
X220176115Y-94959445D01*
X220182856Y-94941971D01*
X220187850Y-94923926D01*
X220194706Y-94903171D01*
X220201447Y-94885696D01*
X220206440Y-94867653D01*
X220212310Y-94849885D01*
X220216411Y-94831622D01*
X220222245Y-94810543D01*
X220228115Y-94792773D01*
X220232218Y-94774504D01*
X220237213Y-94756453D01*
X220240413Y-94738011D01*
X220245202Y-94716683D01*
X220250198Y-94698631D01*
X220253398Y-94680188D01*
X220257498Y-94661931D01*
X220259791Y-94643345D01*
X220263529Y-94621802D01*
X220267633Y-94603523D01*
X220269926Y-94584934D01*
X220273123Y-94566506D01*
X220274499Y-94547848D01*
X220277179Y-94526124D01*
X220280377Y-94507692D01*
X220281754Y-94489024D01*
X220284047Y-94470433D01*
X220284506Y-94451718D01*
X220286114Y-94429931D01*
X220288406Y-94411347D01*
X220288866Y-94392622D01*
X220290243Y-94373956D01*
X220289784Y-94355251D01*
X220290091Y-94342746D01*
X220291010Y-94333416D01*
X220291010Y-94305338D01*
X220291699Y-94277289D01*
X220291010Y-94267947D01*
X220291010Y-93678127D01*
X228336018Y-101723135D01*
X228357524Y-101745724D01*
X228371778Y-101762249D01*
X228385222Y-101779475D01*
X228397799Y-101797333D01*
X228409483Y-101815783D01*
X228420234Y-101834762D01*
X228430052Y-101854267D01*
X228438909Y-101874249D01*
X228446764Y-101894612D01*
X228453611Y-101915338D01*
X228459435Y-101936384D01*
X228464220Y-101957690D01*
X228467954Y-101979212D01*
X228470628Y-102000886D01*
X228472234Y-102022667D01*
X228473000Y-102053839D01*
X228473001Y-106240729D01*
X228438373Y-106226386D01*
X228400022Y-106218757D01*
X228363302Y-106205411D01*
X228230359Y-106185009D01*
X228098345Y-106158750D01*
X228059246Y-106158750D01*
X228020624Y-106152823D01*
X227886241Y-106158750D01*
X227751655Y-106158750D01*
X227713311Y-106166377D01*
X227674272Y-106168099D01*
X227543612Y-106200132D01*
X227411627Y-106226386D01*
X227375514Y-106241345D01*
X227337554Y-106250651D01*
X227215647Y-106307563D01*
X227091327Y-106359058D01*
X227058824Y-106380776D01*
X227023412Y-106397308D01*
X226914950Y-106476909D01*
X226803065Y-106551669D01*
X226775425Y-106579309D01*
X226743917Y-106602433D01*
X226653066Y-106701668D01*
X226557919Y-106796815D01*
X226536202Y-106829316D01*
X226509811Y-106858143D01*
X226440065Y-106973196D01*
X226365308Y-107085077D01*
X226350350Y-107121188D01*
X226330089Y-107154611D01*
X226284126Y-107281070D01*
X226232636Y-107405377D01*
X226225011Y-107443711D01*
X226211659Y-107480446D01*
X226191249Y-107613441D01*
X226165000Y-107745405D01*
X226165000Y-107784489D01*
X226159071Y-107823124D01*
X226165000Y-107957552D01*
X226165000Y-108092095D01*
X226172625Y-108130427D01*
X226174347Y-108169476D01*
X226206389Y-108300171D01*
X226232636Y-108432123D01*
X226247591Y-108468227D01*
X226256899Y-108506194D01*
X226313822Y-108628123D01*
X226365308Y-108752423D01*
X226387023Y-108784921D01*
X226403556Y-108820336D01*
X226483166Y-108928809D01*
X226557919Y-109040685D01*
X226646808Y-109129574D01*
X227982756Y-110618492D01*
X228008212Y-110641797D01*
X228094824Y-110733310D01*
X228175423Y-110832953D01*
X228245140Y-110935015D01*
X228304805Y-111040123D01*
X228355109Y-111149161D01*
X228396490Y-111263120D01*
X228429131Y-111383087D01*
X228452940Y-111510083D01*
X228467598Y-111644993D01*
X228473000Y-111799242D01*
X228473001Y-125290729D01*
X228438373Y-125276386D01*
X228400022Y-125268757D01*
X228363302Y-125255411D01*
X228230359Y-125235009D01*
X228098345Y-125208750D01*
X228059246Y-125208750D01*
X228020624Y-125202823D01*
X227886241Y-125208750D01*
X227751655Y-125208750D01*
X227713311Y-125216377D01*
X227674272Y-125218099D01*
X227543612Y-125250132D01*
X227411627Y-125276386D01*
X227375514Y-125291345D01*
X227337554Y-125300651D01*
X227215647Y-125357563D01*
X227091327Y-125409058D01*
X227058824Y-125430776D01*
X227023412Y-125447308D01*
X226914950Y-125526909D01*
X226803065Y-125601669D01*
X226775425Y-125629309D01*
X226743917Y-125652433D01*
X226653066Y-125751668D01*
X226557919Y-125846815D01*
X226536202Y-125879316D01*
X226509811Y-125908143D01*
X226440065Y-126023196D01*
X226365308Y-126135077D01*
X226350350Y-126171188D01*
X226330089Y-126204611D01*
X226284126Y-126331070D01*
X226232636Y-126455377D01*
X226225011Y-126493711D01*
X226211659Y-126530446D01*
X226191249Y-126663441D01*
X226165000Y-126795405D01*
X226165000Y-126834489D01*
X226159071Y-126873124D01*
X226165000Y-127007552D01*
X226165000Y-127142095D01*
X226172625Y-127180427D01*
X226174347Y-127219476D01*
X226206389Y-127350171D01*
X226232636Y-127482123D01*
X226247591Y-127518227D01*
X226256899Y-127556194D01*
X226313822Y-127678123D01*
X226365308Y-127802423D01*
X226387023Y-127834921D01*
X226403556Y-127870336D01*
X226483166Y-127978809D01*
X226557919Y-128090685D01*
X226646808Y-128179574D01*
X227982756Y-129668492D01*
X228174392Y-129843937D01*
X228470861Y-130023659D01*
X228796695Y-130142089D01*
X229139373Y-130194677D01*
X229208186Y-130191642D01*
X229166856Y-130253497D01*
X229053029Y-130528299D01*
X228995000Y-130820028D01*
X228995000Y-131117472D01*
X229053029Y-131409201D01*
X229166856Y-131684003D01*
X229332107Y-131931319D01*
X229542431Y-132141643D01*
X229789747Y-132306894D01*
X230064549Y-132420721D01*
X230356278Y-132478750D01*
X230653722Y-132478750D01*
X230945451Y-132420721D01*
X231220253Y-132306894D01*
X231467569Y-132141643D01*
X231677893Y-131931319D01*
X231843144Y-131684003D01*
X231956971Y-131409201D01*
X232015000Y-131117472D01*
X232015000Y-130820028D01*
X231956971Y-130528299D01*
X231843144Y-130253497D01*
X231677893Y-130006181D01*
X231467569Y-129795857D01*
X231220253Y-129630606D01*
X230945451Y-129516779D01*
X230667125Y-129461416D01*
X230829909Y-129192889D01*
X230948339Y-128867054D01*
X231000927Y-128524376D01*
X230985651Y-128178023D01*
X230903099Y-127841305D01*
X230756442Y-127527163D01*
X230602716Y-127317702D01*
X230293818Y-126973434D01*
X230224860Y-126872484D01*
X230165195Y-126767376D01*
X230114891Y-126658338D01*
X230073510Y-126544379D01*
X230040869Y-126424412D01*
X230017060Y-126297416D01*
X230002402Y-126162506D01*
X229997000Y-126008261D01*
X229997000Y-113342741D01*
X230064549Y-113370721D01*
X230356278Y-113428750D01*
X230653722Y-113428750D01*
X230945451Y-113370721D01*
X231220253Y-113256894D01*
X231467569Y-113091643D01*
X231677893Y-112881319D01*
X231806751Y-112688469D01*
X231806751Y-112804538D01*
X231764813Y-112846476D01*
X231651545Y-113015994D01*
X231573524Y-113204352D01*
X231533750Y-113404311D01*
X231533750Y-113608189D01*
X231573524Y-113808148D01*
X231651545Y-113996506D01*
X231764813Y-114166024D01*
X231908976Y-114310187D01*
X232078494Y-114423455D01*
X232266852Y-114501476D01*
X232466811Y-114541250D01*
X232670689Y-114541250D01*
X232870648Y-114501476D01*
X233059006Y-114423455D01*
X233068752Y-114416943D01*
X233078497Y-114423455D01*
X233266855Y-114501476D01*
X233466814Y-114541250D01*
X233670692Y-114541250D01*
X233870651Y-114501476D01*
X234059009Y-114423455D01*
X234228527Y-114310187D01*
X234290000Y-114248714D01*
X234290000Y-136492721D01*
X234223881Y-137167057D01*
X234037415Y-137784661D01*
X233734542Y-138354284D01*
X233326797Y-138854228D01*
X232829710Y-139265454D01*
X232262219Y-139572295D01*
X231645926Y-139763070D01*
X230973449Y-139833750D01*
X181801029Y-139833750D01*
X181126693Y-139767631D01*
X180509089Y-139581165D01*
X179939466Y-139278292D01*
X179439522Y-138870547D01*
X179028296Y-138373460D01*
X178721455Y-137805969D01*
X178530680Y-137189676D01*
X178460000Y-136517199D01*
X178460000Y-130820028D01*
X180735000Y-130820028D01*
X180735000Y-131117472D01*
X180793029Y-131409201D01*
X180906856Y-131684003D01*
X181072107Y-131931319D01*
X181282431Y-132141643D01*
X181529747Y-132306894D01*
X181804549Y-132420721D01*
X182096278Y-132478750D01*
X182393722Y-132478750D01*
X182685451Y-132420721D01*
X182960253Y-132306894D01*
X183207569Y-132141643D01*
X183417893Y-131931319D01*
X183583144Y-131684003D01*
X183696971Y-131409201D01*
X183755000Y-131117472D01*
X183755000Y-130820028D01*
X183733080Y-130709826D01*
X184696100Y-130709826D01*
X184696100Y-131227674D01*
X184797127Y-131735572D01*
X184995299Y-132214001D01*
X185283000Y-132644576D01*
X185649174Y-133010750D01*
X186079749Y-133298451D01*
X186558178Y-133496623D01*
X187066076Y-133597650D01*
X187583924Y-133597650D01*
X188091822Y-133496623D01*
X188570251Y-133298451D01*
X189000826Y-133010750D01*
X189367000Y-132644576D01*
X189654701Y-132214001D01*
X189852873Y-131735572D01*
X189953900Y-131227674D01*
X189953900Y-130709826D01*
X189852873Y-130201928D01*
X189654701Y-129723499D01*
X189367000Y-129292924D01*
X189000826Y-128926750D01*
X188570251Y-128639049D01*
X188091822Y-128440877D01*
X187583924Y-128339850D01*
X187066076Y-128339850D01*
X186558178Y-128440877D01*
X186079749Y-128639049D01*
X185649174Y-128926750D01*
X185283000Y-129292924D01*
X184995299Y-129723499D01*
X184797127Y-130201928D01*
X184696100Y-130709826D01*
X183733080Y-130709826D01*
X183696971Y-130528299D01*
X183583144Y-130253497D01*
X183417893Y-130006181D01*
X183207569Y-129795857D01*
X182960253Y-129630606D01*
X182685451Y-129516779D01*
X182393722Y-129458750D01*
X182096278Y-129458750D01*
X181804549Y-129516779D01*
X181529747Y-129630606D01*
X181282431Y-129795857D01*
X181072107Y-130006181D01*
X180906856Y-130253497D01*
X180793029Y-130528299D01*
X180735000Y-130820028D01*
X178460000Y-130820028D01*
X178460000Y-125923593D01*
X183023223Y-125923593D01*
X183025000Y-125949360D01*
X183025000Y-126062095D01*
X183036901Y-126121925D01*
X183075119Y-126676090D01*
X183118316Y-126932292D01*
X183241541Y-127256342D01*
X183425619Y-127550127D01*
X183663474Y-127802354D01*
X183945966Y-128003332D01*
X184262239Y-128145337D01*
X184600138Y-128222911D01*
X184946677Y-128233074D01*
X185288541Y-128175434D01*
X185612592Y-128052209D01*
X185906376Y-127868131D01*
X186158604Y-127630276D01*
X186359581Y-127347784D01*
X186501587Y-127031512D01*
X186579160Y-126693613D01*
X186586777Y-126433906D01*
X186545000Y-125828137D01*
X186545000Y-125715405D01*
X186516205Y-125570642D01*
X186491684Y-125425209D01*
X186482442Y-125400904D01*
X186477364Y-125375377D01*
X186420879Y-125239010D01*
X186368459Y-125101158D01*
X186354652Y-125079122D01*
X186344692Y-125055077D01*
X186262684Y-124932343D01*
X186184381Y-124807374D01*
X186166541Y-124788456D01*
X186152081Y-124766815D01*
X186047705Y-124662439D01*
X185946526Y-124555146D01*
X185925338Y-124540072D01*
X185906935Y-124521669D01*
X185784191Y-124439654D01*
X185664034Y-124354169D01*
X185640317Y-124343520D01*
X185618673Y-124329058D01*
X185482298Y-124272570D01*
X185347761Y-124212163D01*
X185322414Y-124206344D01*
X185298373Y-124196386D01*
X185153606Y-124167590D01*
X185009862Y-124134590D01*
X184983872Y-124133828D01*
X184958345Y-124128750D01*
X184810749Y-124128750D01*
X184663323Y-124124426D01*
X184637677Y-124128750D01*
X184611655Y-124128750D01*
X184466892Y-124157545D01*
X184321459Y-124182066D01*
X184297154Y-124191308D01*
X184271627Y-124196386D01*
X184135260Y-124252871D01*
X183997408Y-124305291D01*
X183975372Y-124319098D01*
X183951327Y-124329058D01*
X183828593Y-124411066D01*
X183703624Y-124489369D01*
X183684706Y-124507209D01*
X183663065Y-124521669D01*
X183558689Y-124626045D01*
X183451396Y-124727224D01*
X183436322Y-124748412D01*
X183417919Y-124766815D01*
X183335904Y-124889559D01*
X183250419Y-125009716D01*
X183239770Y-125033433D01*
X183225308Y-125055077D01*
X183168820Y-125191452D01*
X183108413Y-125325989D01*
X183102594Y-125351336D01*
X183092636Y-125375377D01*
X183063840Y-125520144D01*
X183030840Y-125663888D01*
X183030078Y-125689878D01*
X183025000Y-125715405D01*
X183025000Y-125863005D01*
X183023223Y-125923593D01*
X178460000Y-125923593D01*
X178460000Y-111770028D01*
X180735000Y-111770028D01*
X180735000Y-112067472D01*
X180793029Y-112359201D01*
X180906856Y-112634003D01*
X181072107Y-112881319D01*
X181282431Y-113091643D01*
X181529747Y-113256894D01*
X181804549Y-113370721D01*
X182096278Y-113428750D01*
X182393722Y-113428750D01*
X182685451Y-113370721D01*
X182960253Y-113256894D01*
X183207569Y-113091643D01*
X183417893Y-112881319D01*
X183583144Y-112634003D01*
X183696971Y-112359201D01*
X183755000Y-112067472D01*
X183755000Y-111770028D01*
X183733080Y-111659826D01*
X184696100Y-111659826D01*
X184696100Y-112177674D01*
X184797127Y-112685572D01*
X184995299Y-113164001D01*
X185283000Y-113594576D01*
X185649174Y-113960750D01*
X186079749Y-114248451D01*
X186558178Y-114446623D01*
X187066076Y-114547650D01*
X187583924Y-114547650D01*
X188091822Y-114446623D01*
X188570251Y-114248451D01*
X189000826Y-113960750D01*
X189367000Y-113594576D01*
X189654701Y-113164001D01*
X189852873Y-112685572D01*
X189953900Y-112177674D01*
X189953900Y-111659826D01*
X189852873Y-111151928D01*
X189654701Y-110673499D01*
X189367000Y-110242924D01*
X189000826Y-109876750D01*
X188570251Y-109589049D01*
X188091822Y-109390877D01*
X187583924Y-109289850D01*
X187066076Y-109289850D01*
X186558178Y-109390877D01*
X186079749Y-109589049D01*
X185649174Y-109876750D01*
X185283000Y-110242924D01*
X184995299Y-110673499D01*
X184797127Y-111151928D01*
X184696100Y-111659826D01*
X183733080Y-111659826D01*
X183696971Y-111478299D01*
X183583144Y-111203497D01*
X183417893Y-110956181D01*
X183207569Y-110745857D01*
X182960253Y-110580606D01*
X182685451Y-110466779D01*
X182393722Y-110408750D01*
X182096278Y-110408750D01*
X181804549Y-110466779D01*
X181529747Y-110580606D01*
X181282431Y-110745857D01*
X181072107Y-110956181D01*
X180906856Y-111203497D01*
X180793029Y-111478299D01*
X180735000Y-111770028D01*
X178460000Y-111770028D01*
X178460000Y-106873593D01*
X183023223Y-106873593D01*
X183025000Y-106899360D01*
X183025000Y-107012095D01*
X183036901Y-107071925D01*
X183075119Y-107626090D01*
X183118316Y-107882292D01*
X183241541Y-108206342D01*
X183425619Y-108500127D01*
X183663474Y-108752354D01*
X183945966Y-108953332D01*
X184262239Y-109095337D01*
X184600138Y-109172911D01*
X184946677Y-109183074D01*
X185288541Y-109125434D01*
X185612592Y-109002209D01*
X185906376Y-108818131D01*
X186158604Y-108580276D01*
X186359581Y-108297784D01*
X186501587Y-107981512D01*
X186579160Y-107643613D01*
X186586777Y-107383906D01*
X186545000Y-106778137D01*
X186545000Y-106665405D01*
X186516205Y-106520642D01*
X186491684Y-106375209D01*
X186482442Y-106350904D01*
X186477364Y-106325377D01*
X186420879Y-106189010D01*
X186368459Y-106051158D01*
X186354652Y-106029122D01*
X186344692Y-106005077D01*
X186262684Y-105882343D01*
X186184381Y-105757374D01*
X186166541Y-105738456D01*
X186152081Y-105716815D01*
X186047705Y-105612439D01*
X185946526Y-105505146D01*
X185925338Y-105490072D01*
X185906935Y-105471669D01*
X185784191Y-105389654D01*
X185664034Y-105304169D01*
X185640317Y-105293520D01*
X185618673Y-105279058D01*
X185482298Y-105222570D01*
X185347761Y-105162163D01*
X185322414Y-105156344D01*
X185298373Y-105146386D01*
X185153606Y-105117590D01*
X185009862Y-105084590D01*
X184983872Y-105083828D01*
X184958345Y-105078750D01*
X184810749Y-105078750D01*
X184663323Y-105074426D01*
X184637677Y-105078750D01*
X184611655Y-105078750D01*
X184466892Y-105107545D01*
X184321459Y-105132066D01*
X184297154Y-105141308D01*
X184271627Y-105146386D01*
X184135260Y-105202871D01*
X183997408Y-105255291D01*
X183975372Y-105269098D01*
X183951327Y-105279058D01*
X183828593Y-105361066D01*
X183703624Y-105439369D01*
X183684706Y-105457209D01*
X183663065Y-105471669D01*
X183558689Y-105576045D01*
X183451396Y-105677224D01*
X183436322Y-105698412D01*
X183417919Y-105716815D01*
X183335904Y-105839559D01*
X183250419Y-105959716D01*
X183239770Y-105983433D01*
X183225308Y-106005077D01*
X183168820Y-106141452D01*
X183108413Y-106275989D01*
X183102594Y-106301336D01*
X183092636Y-106325377D01*
X183063840Y-106470144D01*
X183030840Y-106613888D01*
X183030078Y-106639878D01*
X183025000Y-106665405D01*
X183025000Y-106813005D01*
X183023223Y-106873593D01*
X178460000Y-106873593D01*
X178460000Y-88136506D01*
X178531431Y-87359138D01*
X178735082Y-86637041D01*
X178922694Y-86256600D01*
X200831100Y-86256600D01*
X200831100Y-86806600D01*
X200877685Y-87025587D01*
X200966097Y-87231278D01*
X201092939Y-87415769D01*
X201253336Y-87571969D01*
X201441124Y-87693876D01*
X201664226Y-87773719D01*
X201839100Y-87647554D01*
X201839100Y-86256600D01*
X200831100Y-86256600D01*
X178922694Y-86256600D01*
X179066913Y-85964155D01*
X179448908Y-85452600D01*
X200831100Y-85452600D01*
X200831100Y-86002600D01*
X201839100Y-86002600D01*
X201839100Y-84611646D01*
X202093100Y-84611646D01*
X202093100Y-86002600D01*
X202113100Y-86002600D01*
X202113100Y-86256600D01*
X202093100Y-86256600D01*
X202093100Y-87647554D01*
X202267974Y-87773719D01*
X202491076Y-87693876D01*
X202678864Y-87571969D01*
X202839261Y-87415769D01*
X202966103Y-87231278D01*
X203054515Y-87025587D01*
X203101100Y-86806600D01*
X203101100Y-86516504D01*
X203116078Y-86522708D01*
X203301548Y-86559600D01*
X203490652Y-86559600D01*
X203676122Y-86522708D01*
X203850831Y-86450341D01*
X204008064Y-86345281D01*
X204141781Y-86211564D01*
X204246841Y-86054331D01*
X204319208Y-85879622D01*
X204356100Y-85694152D01*
X204356100Y-85505048D01*
X208216100Y-85505048D01*
X208216100Y-85694152D01*
X208252992Y-85879622D01*
X208325359Y-86054331D01*
X208430419Y-86211564D01*
X208564136Y-86345281D01*
X208721369Y-86450341D01*
X208896078Y-86522708D01*
X209081548Y-86559600D01*
X209270652Y-86559600D01*
X209456122Y-86522708D01*
X209471100Y-86516504D01*
X209471100Y-86806600D01*
X209517685Y-87025587D01*
X209606097Y-87231278D01*
X209732939Y-87415769D01*
X209893336Y-87571969D01*
X210081124Y-87693876D01*
X210304226Y-87773719D01*
X210479100Y-87647554D01*
X210479100Y-86256600D01*
X210733100Y-86256600D01*
X210733100Y-87647554D01*
X210907974Y-87773719D01*
X211131076Y-87693876D01*
X211318864Y-87571969D01*
X211479261Y-87415769D01*
X211606103Y-87231278D01*
X211694515Y-87025587D01*
X211741100Y-86806600D01*
X211741100Y-86256600D01*
X210733100Y-86256600D01*
X210479100Y-86256600D01*
X210459100Y-86256600D01*
X210459100Y-86002600D01*
X210479100Y-86002600D01*
X210479100Y-84611646D01*
X210733100Y-84611646D01*
X210733100Y-86002600D01*
X211741100Y-86002600D01*
X211741100Y-85452600D01*
X211694515Y-85233613D01*
X211606103Y-85027922D01*
X211479261Y-84843431D01*
X211318864Y-84687231D01*
X211131076Y-84565324D01*
X210907974Y-84485481D01*
X210733100Y-84611646D01*
X210479100Y-84611646D01*
X210304226Y-84485481D01*
X210081124Y-84565324D01*
X209893336Y-84687231D01*
X209748984Y-84827806D01*
X209630831Y-84748859D01*
X209456122Y-84676492D01*
X209270652Y-84639600D01*
X209081548Y-84639600D01*
X208896078Y-84676492D01*
X208721369Y-84748859D01*
X208564136Y-84853919D01*
X208430419Y-84987636D01*
X208325359Y-85144869D01*
X208252992Y-85319578D01*
X208216100Y-85505048D01*
X204356100Y-85505048D01*
X204319208Y-85319578D01*
X204246841Y-85144869D01*
X204141781Y-84987636D01*
X204008064Y-84853919D01*
X203850831Y-84748859D01*
X203676122Y-84676492D01*
X203490652Y-84639600D01*
X203301548Y-84639600D01*
X203116078Y-84676492D01*
X202941369Y-84748859D01*
X202823216Y-84827806D01*
X202678864Y-84687231D01*
X202491076Y-84565324D01*
X202267974Y-84485481D01*
X202093100Y-84611646D01*
X201839100Y-84611646D01*
X201664226Y-84485481D01*
X201441124Y-84565324D01*
X201253336Y-84687231D01*
X201092939Y-84843431D01*
X200966097Y-85027922D01*
X200877685Y-85233613D01*
X200831100Y-85452600D01*
X179448908Y-85452600D01*
X179515816Y-85363000D01*
X180066748Y-84853724D01*
X180701267Y-84453372D01*
X181398115Y-84175358D01*
X182146754Y-84026444D01*
X182579791Y-84003750D01*
X200786331Y-84003750D01*
X200818750Y-84006943D01*
X200851169Y-84003750D01*
X200948133Y-83994200D01*
X201072543Y-83956460D01*
X201187200Y-83895175D01*
X201287698Y-83812698D01*
X201370175Y-83712200D01*
X201431460Y-83597543D01*
X201469200Y-83473133D01*
X201469435Y-83470750D01*
X211280565Y-83470750D01*
X211280800Y-83473133D01*
G37*
X211280800Y-83473133D02*
X211318540Y-83597543D01*
X211379825Y-83712200D01*
X211462302Y-83812698D01*
X211562800Y-83895175D01*
X211677457Y-83956460D01*
X211801867Y-83994200D01*
X211898831Y-84003750D01*
X211931250Y-84006943D01*
X211963669Y-84003750D01*
X230948972Y-84003750D01*
X231623307Y-84069869D01*
X232240913Y-84256335D01*
X232810537Y-84559211D01*
X233310475Y-84966951D01*
X233721706Y-85464043D01*
X234028545Y-86031532D01*
X234219320Y-86647824D01*
X234290001Y-87320310D01*
X234290001Y-103491461D01*
X234289940Y-103491111D01*
X234284947Y-103473070D01*
X234280156Y-103451733D01*
X234276955Y-103433284D01*
X234271962Y-103415242D01*
X234267862Y-103396983D01*
X234261990Y-103379207D01*
X234256154Y-103358121D01*
X234252054Y-103339861D01*
X234246183Y-103322089D01*
X234241189Y-103304043D01*
X234234452Y-103286578D01*
X234227589Y-103265803D01*
X234222597Y-103247765D01*
X234215865Y-103230313D01*
X234209990Y-103212529D01*
X234202398Y-103195401D01*
X234194536Y-103175020D01*
X234188659Y-103157231D01*
X234181068Y-103140106D01*
X234174335Y-103122652D01*
X234165922Y-103105938D01*
X234157057Y-103085941D01*
X234150323Y-103068482D01*
X234141904Y-103051755D01*
X234134315Y-103034636D01*
X234125090Y-103018352D01*
X234115257Y-102998816D01*
X234107672Y-102981705D01*
X234098449Y-102965423D01*
X234090031Y-102948700D01*
X234080012Y-102932877D01*
X234069232Y-102913849D01*
X234060810Y-102897117D01*
X234050796Y-102881304D01*
X234041575Y-102865026D01*
X234030794Y-102849717D01*
X234019088Y-102831233D01*
X234009868Y-102814957D01*
X233999090Y-102799653D01*
X233989066Y-102783824D01*
X233977550Y-102769068D01*
X233964968Y-102751202D01*
X233954949Y-102735381D01*
X233943432Y-102720623D01*
X233932653Y-102705318D01*
X233920422Y-102691139D01*
X233906970Y-102673901D01*
X233896190Y-102658595D01*
X233883962Y-102644420D01*
X233872447Y-102629664D01*
X233859541Y-102616108D01*
X233845255Y-102599547D01*
X233833739Y-102584790D01*
X233820830Y-102571231D01*
X233808600Y-102557053D01*
X233795040Y-102544143D01*
X233786429Y-102535098D01*
X233780478Y-102527847D01*
X233760601Y-102507970D01*
X233741273Y-102487669D01*
X233734190Y-102481559D01*
X220110000Y-88857370D01*
X220110000Y-88798061D01*
X220070226Y-88598102D01*
X219992205Y-88409744D01*
X219878937Y-88240226D01*
X219734774Y-88096063D01*
X219565256Y-87982795D01*
X219376898Y-87904774D01*
X219176939Y-87865000D01*
X218973061Y-87865000D01*
X218773102Y-87904774D01*
X218584744Y-87982795D01*
X218415226Y-88096063D01*
X218271063Y-88240226D01*
X218269765Y-88242169D01*
X218235367Y-88235327D01*
X218031489Y-88235327D01*
X217831530Y-88275101D01*
X217643172Y-88353122D01*
X217473654Y-88466390D01*
X217329491Y-88610553D01*
X217216223Y-88780071D01*
X217138202Y-88968429D01*
X217098428Y-89168388D01*
X217098428Y-89328594D01*
X216995648Y-89286021D01*
X216795689Y-89246247D01*
X216591811Y-89246247D01*
X216391852Y-89286021D01*
X216203494Y-89364042D01*
X216033976Y-89477310D01*
X215889813Y-89621473D01*
X215776545Y-89790991D01*
X215698524Y-89979349D01*
X215658750Y-90179308D01*
X215658750Y-90383186D01*
X215698524Y-90583145D01*
X215776545Y-90771503D01*
X215783057Y-90781249D01*
X215776545Y-90790994D01*
X215698524Y-90979352D01*
X215658750Y-91179311D01*
X215658750Y-91383189D01*
X215698524Y-91583148D01*
X215776545Y-91771506D01*
X215889813Y-91941024D01*
X216033976Y-92085187D01*
X216203494Y-92198455D01*
X216391852Y-92276476D01*
X216591811Y-92316250D01*
X216651120Y-92316250D01*
X217947437Y-93612568D01*
X217968924Y-93635137D01*
X217983178Y-93651662D01*
X217996622Y-93668888D01*
X218009194Y-93686739D01*
X218020877Y-93705189D01*
X218031639Y-93724186D01*
X218041452Y-93743680D01*
X218050309Y-93763662D01*
X218058164Y-93784025D01*
X218065011Y-93804751D01*
X218070835Y-93825797D01*
X218075618Y-93847096D01*
X218079354Y-93868625D01*
X218082028Y-93890299D01*
X218083634Y-93912080D01*
X218084400Y-93943252D01*
X218084400Y-93991180D01*
X218083634Y-94022357D01*
X218082028Y-94044134D01*
X218079354Y-94065812D01*
X218075620Y-94087334D01*
X218070839Y-94108623D01*
X218065014Y-94129673D01*
X218058167Y-94150398D01*
X218050303Y-94170783D01*
X218041455Y-94190745D01*
X218031637Y-94210249D01*
X218020878Y-94229241D01*
X218009193Y-94247696D01*
X217996626Y-94265539D01*
X217983189Y-94282757D01*
X217968920Y-94299299D01*
X217947437Y-94321863D01*
X207797080Y-104472223D01*
X207789992Y-104478337D01*
X207770632Y-104498671D01*
X207750774Y-104518529D01*
X207744834Y-104525767D01*
X207736212Y-104534822D01*
X207722652Y-104547733D01*
X207710429Y-104561902D01*
X207697524Y-104575457D01*
X207686002Y-104590220D01*
X207671725Y-104606772D01*
X207658811Y-104620335D01*
X207647285Y-104635104D01*
X207635061Y-104649275D01*
X207624286Y-104664574D01*
X207610829Y-104681818D01*
X207598597Y-104695998D01*
X207587818Y-104711303D01*
X207576307Y-104726053D01*
X207566292Y-104741868D01*
X207553693Y-104759758D01*
X207542174Y-104774518D01*
X207532160Y-104790332D01*
X207521382Y-104805636D01*
X207512153Y-104821928D01*
X207500452Y-104840405D01*
X207489676Y-104855707D01*
X207480450Y-104871994D01*
X207470432Y-104887814D01*
X207462014Y-104904538D01*
X207451244Y-104923549D01*
X207441229Y-104939365D01*
X207432807Y-104956097D01*
X207423579Y-104972386D01*
X207415998Y-104989488D01*
X207406162Y-105009029D01*
X207396930Y-105025326D01*
X207389353Y-105042420D01*
X207380934Y-105059146D01*
X207374193Y-105076621D01*
X207365329Y-105096618D01*
X207356914Y-105113336D01*
X207350177Y-105130802D01*
X207342588Y-105147922D01*
X207336716Y-105165697D01*
X207328847Y-105186097D01*
X207321261Y-105203211D01*
X207315390Y-105220985D01*
X207308652Y-105238451D01*
X207303658Y-105256497D01*
X207296801Y-105277253D01*
X207290062Y-105294724D01*
X207285066Y-105312776D01*
X207279197Y-105330543D01*
X207275098Y-105348798D01*
X207269263Y-105369880D01*
X207263393Y-105387649D01*
X207259290Y-105405918D01*
X207254296Y-105423965D01*
X207251096Y-105442406D01*
X207246303Y-105463752D01*
X207241310Y-105481793D01*
X207238112Y-105500226D01*
X207234010Y-105518490D01*
X207231717Y-105537078D01*
X207227978Y-105558627D01*
X207223875Y-105576899D01*
X207221583Y-105595481D01*
X207218384Y-105613919D01*
X207217007Y-105632588D01*
X207214330Y-105654296D01*
X207211131Y-105672730D01*
X207209754Y-105691402D01*
X207207461Y-105709991D01*
X207207002Y-105728704D01*
X207205392Y-105750522D01*
X207203101Y-105769102D01*
X207202642Y-105787798D01*
X207201265Y-105806468D01*
X207201725Y-105825199D01*
X207201418Y-105837684D01*
X207200500Y-105847009D01*
X207200500Y-105875118D01*
X207199812Y-105903161D01*
X207200500Y-105912486D01*
X207200500Y-105953149D01*
X207200025Y-105972485D01*
X207199291Y-105982440D01*
X207198067Y-105992357D01*
X207196361Y-106002189D01*
X207194173Y-106011934D01*
X207191509Y-106021560D01*
X207188375Y-106031046D01*
X207184783Y-106040358D01*
X207180738Y-106049483D01*
X207176244Y-106058413D01*
X207171326Y-106067093D01*
X207165986Y-106075526D01*
X207160231Y-106083698D01*
X207154089Y-106091568D01*
X207153687Y-106092034D01*
X205629977Y-107615744D01*
X205636777Y-107383906D01*
X205595000Y-106778137D01*
X205595000Y-106665405D01*
X205566205Y-106520642D01*
X205541684Y-106375209D01*
X205532442Y-106350904D01*
X205527364Y-106325377D01*
X205470879Y-106189010D01*
X205418459Y-106051158D01*
X205404652Y-106029122D01*
X205394692Y-106005077D01*
X205312684Y-105882343D01*
X205234381Y-105757374D01*
X205216541Y-105738456D01*
X205202081Y-105716815D01*
X205097705Y-105612439D01*
X204996526Y-105505146D01*
X204975338Y-105490072D01*
X204956935Y-105471669D01*
X204834191Y-105389654D01*
X204714034Y-105304169D01*
X204690317Y-105293520D01*
X204668673Y-105279058D01*
X204532298Y-105222570D01*
X204397761Y-105162163D01*
X204372414Y-105156344D01*
X204348373Y-105146386D01*
X204203606Y-105117590D01*
X204059862Y-105084590D01*
X204033872Y-105083828D01*
X204008345Y-105078750D01*
X203860749Y-105078750D01*
X203713323Y-105074426D01*
X203687677Y-105078750D01*
X203661655Y-105078750D01*
X203516892Y-105107545D01*
X203371459Y-105132066D01*
X203347154Y-105141308D01*
X203321627Y-105146386D01*
X203185260Y-105202871D01*
X203047408Y-105255291D01*
X203025372Y-105269098D01*
X203001327Y-105279058D01*
X202878593Y-105361066D01*
X202753624Y-105439369D01*
X202734706Y-105457209D01*
X202713065Y-105471669D01*
X202608689Y-105576045D01*
X202501396Y-105677224D01*
X202486322Y-105698412D01*
X202467919Y-105716815D01*
X202385904Y-105839559D01*
X202300419Y-105959716D01*
X202289770Y-105983433D01*
X202275308Y-106005077D01*
X202218820Y-106141452D01*
X202158413Y-106275989D01*
X202152594Y-106301336D01*
X202142636Y-106325377D01*
X202113840Y-106470144D01*
X202080840Y-106613888D01*
X202080078Y-106639878D01*
X202075000Y-106665405D01*
X202075000Y-106813005D01*
X202073223Y-106873593D01*
X202075000Y-106899360D01*
X202075000Y-107012095D01*
X202086901Y-107071925D01*
X202125119Y-107626090D01*
X202168316Y-107882292D01*
X202291541Y-108206342D01*
X202475619Y-108500127D01*
X202585597Y-108616750D01*
X193555489Y-108616750D01*
X193401243Y-108611348D01*
X193266333Y-108596690D01*
X193139337Y-108572881D01*
X193019370Y-108540240D01*
X192905411Y-108498859D01*
X192796373Y-108448555D01*
X192691265Y-108388890D01*
X192589203Y-108319173D01*
X192489560Y-108238574D01*
X192403483Y-108157106D01*
X191218729Y-106836697D01*
X191192081Y-106796815D01*
X191103153Y-106707887D01*
X191077241Y-106679008D01*
X191042124Y-106646858D01*
X190946935Y-106551669D01*
X190914419Y-106529942D01*
X190885605Y-106503563D01*
X190770606Y-106433849D01*
X190658673Y-106359058D01*
X190622545Y-106344094D01*
X190589137Y-106323841D01*
X190462734Y-106277898D01*
X190338373Y-106226386D01*
X190300022Y-106218757D01*
X190263302Y-106205411D01*
X190130359Y-106185009D01*
X189998345Y-106158750D01*
X189959246Y-106158750D01*
X189920624Y-106152823D01*
X189786241Y-106158750D01*
X189651655Y-106158750D01*
X189613311Y-106166377D01*
X189574272Y-106168099D01*
X189443612Y-106200132D01*
X189311627Y-106226386D01*
X189275514Y-106241345D01*
X189237554Y-106250651D01*
X189115647Y-106307563D01*
X188991327Y-106359058D01*
X188958824Y-106380776D01*
X188923412Y-106397308D01*
X188814950Y-106476909D01*
X188703065Y-106551669D01*
X188675425Y-106579309D01*
X188643917Y-106602433D01*
X188553066Y-106701668D01*
X188457919Y-106796815D01*
X188436202Y-106829316D01*
X188409811Y-106858143D01*
X188340065Y-106973196D01*
X188265308Y-107085077D01*
X188250350Y-107121188D01*
X188230089Y-107154611D01*
X188184126Y-107281070D01*
X188132636Y-107405377D01*
X188125011Y-107443711D01*
X188111659Y-107480446D01*
X188091249Y-107613441D01*
X188065000Y-107745405D01*
X188065000Y-107784489D01*
X188059071Y-107823124D01*
X188065000Y-107957552D01*
X188065000Y-108092095D01*
X188072625Y-108130427D01*
X188074347Y-108169476D01*
X188106389Y-108300171D01*
X188132636Y-108432123D01*
X188147591Y-108468227D01*
X188156899Y-108506194D01*
X188213822Y-108628123D01*
X188265308Y-108752423D01*
X188287023Y-108784921D01*
X188303556Y-108820336D01*
X188383166Y-108928809D01*
X188457919Y-109040685D01*
X188546808Y-109129574D01*
X189882756Y-110618492D01*
X189908212Y-110641797D01*
X189994824Y-110733310D01*
X190075423Y-110832953D01*
X190145140Y-110935015D01*
X190204805Y-111040123D01*
X190255109Y-111149161D01*
X190296490Y-111263120D01*
X190329131Y-111383087D01*
X190352940Y-111510083D01*
X190367598Y-111644993D01*
X190373000Y-111799242D01*
X190373001Y-125290729D01*
X190338373Y-125276386D01*
X190300022Y-125268757D01*
X190263302Y-125255411D01*
X190130359Y-125235009D01*
X189998345Y-125208750D01*
X189959246Y-125208750D01*
X189920624Y-125202823D01*
X189786241Y-125208750D01*
X189651655Y-125208750D01*
X189613311Y-125216377D01*
X189574272Y-125218099D01*
X189443612Y-125250132D01*
X189311627Y-125276386D01*
X189275514Y-125291345D01*
X189237554Y-125300651D01*
X189115647Y-125357563D01*
X188991327Y-125409058D01*
X188958824Y-125430776D01*
X188923412Y-125447308D01*
X188814950Y-125526909D01*
X188703065Y-125601669D01*
X188675425Y-125629309D01*
X188643917Y-125652433D01*
X188553066Y-125751668D01*
X188457919Y-125846815D01*
X188436202Y-125879316D01*
X188409811Y-125908143D01*
X188340065Y-126023196D01*
X188265308Y-126135077D01*
X188250350Y-126171188D01*
X188230089Y-126204611D01*
X188184126Y-126331070D01*
X188132636Y-126455377D01*
X188125011Y-126493711D01*
X188111659Y-126530446D01*
X188091249Y-126663441D01*
X188065000Y-126795405D01*
X188065000Y-126834489D01*
X188059071Y-126873124D01*
X188065000Y-127007552D01*
X188065000Y-127142095D01*
X188072625Y-127180427D01*
X188074347Y-127219476D01*
X188106389Y-127350171D01*
X188132636Y-127482123D01*
X188147591Y-127518227D01*
X188156899Y-127556194D01*
X188213822Y-127678123D01*
X188265308Y-127802423D01*
X188287023Y-127834921D01*
X188303556Y-127870336D01*
X188383166Y-127978809D01*
X188457919Y-128090685D01*
X188546808Y-128179574D01*
X189882756Y-129668492D01*
X190074392Y-129843937D01*
X190370861Y-130023659D01*
X190696695Y-130142089D01*
X191039373Y-130194677D01*
X191108186Y-130191642D01*
X191066856Y-130253497D01*
X190953029Y-130528299D01*
X190895000Y-130820028D01*
X190895000Y-131117472D01*
X190953029Y-131409201D01*
X191066856Y-131684003D01*
X191232107Y-131931319D01*
X191442431Y-132141643D01*
X191689747Y-132306894D01*
X191964549Y-132420721D01*
X192256278Y-132478750D01*
X192553722Y-132478750D01*
X192845451Y-132420721D01*
X193120253Y-132306894D01*
X193367569Y-132141643D01*
X193577893Y-131931319D01*
X193743144Y-131684003D01*
X193856971Y-131409201D01*
X193915000Y-131117472D01*
X193915000Y-130820028D01*
X199785000Y-130820028D01*
X199785000Y-131117472D01*
X199843029Y-131409201D01*
X199956856Y-131684003D01*
X200122107Y-131931319D01*
X200332431Y-132141643D01*
X200579747Y-132306894D01*
X200854549Y-132420721D01*
X201146278Y-132478750D01*
X201443722Y-132478750D01*
X201735451Y-132420721D01*
X202010253Y-132306894D01*
X202257569Y-132141643D01*
X202467893Y-131931319D01*
X202633144Y-131684003D01*
X202746971Y-131409201D01*
X202805000Y-131117472D01*
X202805000Y-130820028D01*
X202783080Y-130709826D01*
X203746100Y-130709826D01*
X203746100Y-131227674D01*
X203847127Y-131735572D01*
X204045299Y-132214001D01*
X204333000Y-132644576D01*
X204699174Y-133010750D01*
X205129749Y-133298451D01*
X205608178Y-133496623D01*
X206116076Y-133597650D01*
X206633924Y-133597650D01*
X207141822Y-133496623D01*
X207620251Y-133298451D01*
X208050826Y-133010750D01*
X208417000Y-132644576D01*
X208704701Y-132214001D01*
X208902873Y-131735572D01*
X209003900Y-131227674D01*
X209003900Y-130709826D01*
X208902873Y-130201928D01*
X208704701Y-129723499D01*
X208417000Y-129292924D01*
X208050826Y-128926750D01*
X207620251Y-128639049D01*
X207141822Y-128440877D01*
X206633924Y-128339850D01*
X206116076Y-128339850D01*
X205608178Y-128440877D01*
X205129749Y-128639049D01*
X204699174Y-128926750D01*
X204333000Y-129292924D01*
X204045299Y-129723499D01*
X203847127Y-130201928D01*
X203746100Y-130709826D01*
X202783080Y-130709826D01*
X202746971Y-130528299D01*
X202633144Y-130253497D01*
X202467893Y-130006181D01*
X202257569Y-129795857D01*
X202010253Y-129630606D01*
X201735451Y-129516779D01*
X201443722Y-129458750D01*
X201146278Y-129458750D01*
X200854549Y-129516779D01*
X200579747Y-129630606D01*
X200332431Y-129795857D01*
X200122107Y-130006181D01*
X199956856Y-130253497D01*
X199843029Y-130528299D01*
X199785000Y-130820028D01*
X193915000Y-130820028D01*
X193856971Y-130528299D01*
X193743144Y-130253497D01*
X193577893Y-130006181D01*
X193367569Y-129795857D01*
X193120253Y-129630606D01*
X192845451Y-129516779D01*
X192567125Y-129461416D01*
X192729909Y-129192889D01*
X192848339Y-128867054D01*
X192900927Y-128524376D01*
X192885651Y-128178023D01*
X192803099Y-127841305D01*
X192656442Y-127527163D01*
X192502716Y-127317702D01*
X192193818Y-126973434D01*
X192124860Y-126872484D01*
X192065195Y-126767376D01*
X192014891Y-126658338D01*
X191973510Y-126544379D01*
X191940869Y-126424412D01*
X191917060Y-126297416D01*
X191902402Y-126162506D01*
X191897000Y-126008261D01*
X191897000Y-125923593D01*
X202073223Y-125923593D01*
X202075000Y-125949360D01*
X202075000Y-126062095D01*
X202086901Y-126121925D01*
X202125119Y-126676090D01*
X202168316Y-126932292D01*
X202291541Y-127256342D01*
X202475619Y-127550127D01*
X202713474Y-127802354D01*
X202995966Y-128003332D01*
X203312239Y-128145337D01*
X203650138Y-128222911D01*
X203996677Y-128233074D01*
X204338541Y-128175434D01*
X204662592Y-128052209D01*
X204956376Y-127868131D01*
X205208604Y-127630276D01*
X205409581Y-127347784D01*
X205551587Y-127031512D01*
X205629160Y-126693613D01*
X205636777Y-126433906D01*
X205595000Y-125828137D01*
X205595000Y-125715405D01*
X205566205Y-125570642D01*
X205541684Y-125425209D01*
X205532442Y-125400904D01*
X205527364Y-125375377D01*
X205470879Y-125239010D01*
X205418459Y-125101158D01*
X205404652Y-125079122D01*
X205394692Y-125055077D01*
X205312684Y-124932343D01*
X205234381Y-124807374D01*
X205216541Y-124788456D01*
X205202081Y-124766815D01*
X205097705Y-124662439D01*
X204996526Y-124555146D01*
X204975338Y-124540072D01*
X204956935Y-124521669D01*
X204834191Y-124439654D01*
X204714034Y-124354169D01*
X204690317Y-124343520D01*
X204668673Y-124329058D01*
X204532298Y-124272570D01*
X204397761Y-124212163D01*
X204372414Y-124206344D01*
X204348373Y-124196386D01*
X204203606Y-124167590D01*
X204059862Y-124134590D01*
X204033872Y-124133828D01*
X204008345Y-124128750D01*
X203860749Y-124128750D01*
X203713323Y-124124426D01*
X203687677Y-124128750D01*
X203661655Y-124128750D01*
X203516892Y-124157545D01*
X203371459Y-124182066D01*
X203347154Y-124191308D01*
X203321627Y-124196386D01*
X203185260Y-124252871D01*
X203047408Y-124305291D01*
X203025372Y-124319098D01*
X203001327Y-124329058D01*
X202878593Y-124411066D01*
X202753624Y-124489369D01*
X202734706Y-124507209D01*
X202713065Y-124521669D01*
X202608689Y-124626045D01*
X202501396Y-124727224D01*
X202486322Y-124748412D01*
X202467919Y-124766815D01*
X202385904Y-124889559D01*
X202300419Y-125009716D01*
X202289770Y-125033433D01*
X202275308Y-125055077D01*
X202218820Y-125191452D01*
X202158413Y-125325989D01*
X202152594Y-125351336D01*
X202142636Y-125375377D01*
X202113840Y-125520144D01*
X202080840Y-125663888D01*
X202080078Y-125689878D01*
X202075000Y-125715405D01*
X202075000Y-125863005D01*
X202073223Y-125923593D01*
X191897000Y-125923593D01*
X191897000Y-113342741D01*
X191964549Y-113370721D01*
X192256278Y-113428750D01*
X192553722Y-113428750D01*
X192845451Y-113370721D01*
X193120253Y-113256894D01*
X193367569Y-113091643D01*
X193577893Y-112881319D01*
X193743144Y-112634003D01*
X193856971Y-112359201D01*
X193915000Y-112067472D01*
X193915000Y-111770028D01*
X199785000Y-111770028D01*
X199785000Y-112067472D01*
X199843029Y-112359201D01*
X199956856Y-112634003D01*
X200122107Y-112881319D01*
X200332431Y-113091643D01*
X200579747Y-113256894D01*
X200854549Y-113370721D01*
X201146278Y-113428750D01*
X201443722Y-113428750D01*
X201735451Y-113370721D01*
X202010253Y-113256894D01*
X202257569Y-113091643D01*
X202467893Y-112881319D01*
X202633144Y-112634003D01*
X202746971Y-112359201D01*
X202805000Y-112067472D01*
X202805000Y-111770028D01*
X202746971Y-111478299D01*
X202633144Y-111203497D01*
X202467893Y-110956181D01*
X202257569Y-110745857D01*
X202010253Y-110580606D01*
X201735451Y-110466779D01*
X201443722Y-110408750D01*
X201146278Y-110408750D01*
X200854549Y-110466779D01*
X200579747Y-110580606D01*
X200332431Y-110745857D01*
X200122107Y-110956181D01*
X199956856Y-111203497D01*
X199843029Y-111478299D01*
X199785000Y-111770028D01*
X193915000Y-111770028D01*
X193856971Y-111478299D01*
X193743144Y-111203497D01*
X193577893Y-110956181D01*
X193367569Y-110745857D01*
X193120253Y-110580606D01*
X192845451Y-110466779D01*
X192614735Y-110420886D01*
X192691265Y-110368610D01*
X192796373Y-110308945D01*
X192905411Y-110258641D01*
X193019370Y-110217260D01*
X193139337Y-110184619D01*
X193266333Y-110160810D01*
X193401243Y-110146152D01*
X193555489Y-110140750D01*
X202918198Y-110140750D01*
X202927539Y-110141439D01*
X202955598Y-110140750D01*
X202983676Y-110140750D01*
X202993001Y-110139832D01*
X203183183Y-110135162D01*
X203201900Y-110135621D01*
X203220576Y-110134243D01*
X203239286Y-110133784D01*
X203257859Y-110131493D01*
X203447580Y-110117499D01*
X204439810Y-110117499D01*
X204449152Y-110118188D01*
X204457952Y-110117972D01*
X204333000Y-110242924D01*
X204045299Y-110673499D01*
X203847127Y-111151928D01*
X203746100Y-111659826D01*
X203746100Y-112177674D01*
X203847127Y-112685572D01*
X204045299Y-113164001D01*
X204333000Y-113594576D01*
X204699174Y-113960750D01*
X205129749Y-114248451D01*
X205608178Y-114446623D01*
X206116076Y-114547650D01*
X206633924Y-114547650D01*
X207141822Y-114446623D01*
X207620251Y-114248451D01*
X208050826Y-113960750D01*
X208417000Y-113594576D01*
X208704701Y-113164001D01*
X208902873Y-112685572D01*
X209003900Y-112177674D01*
X209003900Y-111659826D01*
X208902873Y-111151928D01*
X208704701Y-110673499D01*
X208417000Y-110242924D01*
X208050826Y-109876750D01*
X207620251Y-109589049D01*
X207141822Y-109390877D01*
X206633924Y-109289850D01*
X206116076Y-109289850D01*
X206109903Y-109291078D01*
X207145446Y-108255536D01*
X207156389Y-108300171D01*
X207182636Y-108432123D01*
X207197591Y-108468227D01*
X207206899Y-108506194D01*
X207263822Y-108628123D01*
X207315308Y-108752423D01*
X207337023Y-108784921D01*
X207353556Y-108820336D01*
X207433166Y-108928809D01*
X207507919Y-109040685D01*
X207596808Y-109129574D01*
X208932756Y-110618492D01*
X208958212Y-110641797D01*
X209044824Y-110733310D01*
X209125423Y-110832953D01*
X209195140Y-110935015D01*
X209254805Y-111040123D01*
X209305109Y-111149161D01*
X209346490Y-111263120D01*
X209379131Y-111383087D01*
X209402940Y-111510083D01*
X209417598Y-111644993D01*
X209423000Y-111799242D01*
X209423001Y-125290729D01*
X209388373Y-125276386D01*
X209350022Y-125268757D01*
X209313302Y-125255411D01*
X209180359Y-125235009D01*
X209048345Y-125208750D01*
X209009246Y-125208750D01*
X208970624Y-125202823D01*
X208836241Y-125208750D01*
X208701655Y-125208750D01*
X208663311Y-125216377D01*
X208624272Y-125218099D01*
X208493612Y-125250132D01*
X208361627Y-125276386D01*
X208325514Y-125291345D01*
X208287554Y-125300651D01*
X208165647Y-125357563D01*
X208041327Y-125409058D01*
X208008824Y-125430776D01*
X207973412Y-125447308D01*
X207864950Y-125526909D01*
X207753065Y-125601669D01*
X207725425Y-125629309D01*
X207693917Y-125652433D01*
X207603066Y-125751668D01*
X207507919Y-125846815D01*
X207486202Y-125879316D01*
X207459811Y-125908143D01*
X207390065Y-126023196D01*
X207315308Y-126135077D01*
X207300350Y-126171188D01*
X207280089Y-126204611D01*
X207234126Y-126331070D01*
X207182636Y-126455377D01*
X207175011Y-126493711D01*
X207161659Y-126530446D01*
X207141249Y-126663441D01*
X207115000Y-126795405D01*
X207115000Y-126834489D01*
X207109071Y-126873124D01*
X207115000Y-127007552D01*
X207115000Y-127142095D01*
X207122625Y-127180427D01*
X207124347Y-127219476D01*
X207156389Y-127350171D01*
X207182636Y-127482123D01*
X207197591Y-127518227D01*
X207206899Y-127556194D01*
X207263822Y-127678123D01*
X207315308Y-127802423D01*
X207337023Y-127834921D01*
X207353556Y-127870336D01*
X207433166Y-127978809D01*
X207507919Y-128090685D01*
X207596808Y-128179574D01*
X208932756Y-129668492D01*
X209124392Y-129843937D01*
X209420861Y-130023659D01*
X209746695Y-130142089D01*
X210089373Y-130194677D01*
X210158186Y-130191642D01*
X210116856Y-130253497D01*
X210003029Y-130528299D01*
X209945000Y-130820028D01*
X209945000Y-131117472D01*
X210003029Y-131409201D01*
X210116856Y-131684003D01*
X210282107Y-131931319D01*
X210492431Y-132141643D01*
X210739747Y-132306894D01*
X211014549Y-132420721D01*
X211306278Y-132478750D01*
X211603722Y-132478750D01*
X211895451Y-132420721D01*
X212170253Y-132306894D01*
X212417569Y-132141643D01*
X212627893Y-131931319D01*
X212793144Y-131684003D01*
X212906971Y-131409201D01*
X212965000Y-131117472D01*
X212965000Y-130820028D01*
X218835000Y-130820028D01*
X218835000Y-131117472D01*
X218893029Y-131409201D01*
X219006856Y-131684003D01*
X219172107Y-131931319D01*
X219382431Y-132141643D01*
X219629747Y-132306894D01*
X219904549Y-132420721D01*
X220196278Y-132478750D01*
X220493722Y-132478750D01*
X220785451Y-132420721D01*
X221060253Y-132306894D01*
X221307569Y-132141643D01*
X221517893Y-131931319D01*
X221683144Y-131684003D01*
X221796971Y-131409201D01*
X221855000Y-131117472D01*
X221855000Y-130820028D01*
X221833080Y-130709826D01*
X222796100Y-130709826D01*
X222796100Y-131227674D01*
X222897127Y-131735572D01*
X223095299Y-132214001D01*
X223383000Y-132644576D01*
X223749174Y-133010750D01*
X224179749Y-133298451D01*
X224658178Y-133496623D01*
X225166076Y-133597650D01*
X225683924Y-133597650D01*
X226191822Y-133496623D01*
X226670251Y-133298451D01*
X227100826Y-133010750D01*
X227467000Y-132644576D01*
X227754701Y-132214001D01*
X227952873Y-131735572D01*
X228053900Y-131227674D01*
X228053900Y-130709826D01*
X227952873Y-130201928D01*
X227754701Y-129723499D01*
X227467000Y-129292924D01*
X227100826Y-128926750D01*
X226670251Y-128639049D01*
X226191822Y-128440877D01*
X225683924Y-128339850D01*
X225166076Y-128339850D01*
X224658178Y-128440877D01*
X224179749Y-128639049D01*
X223749174Y-128926750D01*
X223383000Y-129292924D01*
X223095299Y-129723499D01*
X222897127Y-130201928D01*
X222796100Y-130709826D01*
X221833080Y-130709826D01*
X221796971Y-130528299D01*
X221683144Y-130253497D01*
X221517893Y-130006181D01*
X221307569Y-129795857D01*
X221060253Y-129630606D01*
X220785451Y-129516779D01*
X220493722Y-129458750D01*
X220196278Y-129458750D01*
X219904549Y-129516779D01*
X219629747Y-129630606D01*
X219382431Y-129795857D01*
X219172107Y-130006181D01*
X219006856Y-130253497D01*
X218893029Y-130528299D01*
X218835000Y-130820028D01*
X212965000Y-130820028D01*
X212906971Y-130528299D01*
X212793144Y-130253497D01*
X212627893Y-130006181D01*
X212417569Y-129795857D01*
X212170253Y-129630606D01*
X211895451Y-129516779D01*
X211617125Y-129461416D01*
X211779909Y-129192889D01*
X211898339Y-128867054D01*
X211950927Y-128524376D01*
X211935651Y-128178023D01*
X211853099Y-127841305D01*
X211706442Y-127527163D01*
X211552716Y-127317702D01*
X211243818Y-126973434D01*
X211174860Y-126872484D01*
X211115195Y-126767376D01*
X211064891Y-126658338D01*
X211023510Y-126544379D01*
X210990869Y-126424412D01*
X210967060Y-126297416D01*
X210952402Y-126162506D01*
X210947000Y-126008261D01*
X210947000Y-125923593D01*
X221123223Y-125923593D01*
X221125000Y-125949360D01*
X221125000Y-126062095D01*
X221136901Y-126121925D01*
X221175119Y-126676090D01*
X221218316Y-126932292D01*
X221341541Y-127256342D01*
X221525619Y-127550127D01*
X221763474Y-127802354D01*
X222045966Y-128003332D01*
X222362239Y-128145337D01*
X222700138Y-128222911D01*
X223046677Y-128233074D01*
X223388541Y-128175434D01*
X223712592Y-128052209D01*
X224006376Y-127868131D01*
X224258604Y-127630276D01*
X224459581Y-127347784D01*
X224601587Y-127031512D01*
X224679160Y-126693613D01*
X224686777Y-126433906D01*
X224645000Y-125828137D01*
X224645000Y-125715405D01*
X224616205Y-125570642D01*
X224591684Y-125425209D01*
X224582442Y-125400904D01*
X224577364Y-125375377D01*
X224520879Y-125239010D01*
X224468459Y-125101158D01*
X224454652Y-125079122D01*
X224444692Y-125055077D01*
X224362684Y-124932343D01*
X224284381Y-124807374D01*
X224266541Y-124788456D01*
X224252081Y-124766815D01*
X224147705Y-124662439D01*
X224046526Y-124555146D01*
X224025338Y-124540072D01*
X224006935Y-124521669D01*
X223884191Y-124439654D01*
X223764034Y-124354169D01*
X223740317Y-124343520D01*
X223718673Y-124329058D01*
X223582298Y-124272570D01*
X223447761Y-124212163D01*
X223422414Y-124206344D01*
X223398373Y-124196386D01*
X223253606Y-124167590D01*
X223109862Y-124134590D01*
X223083872Y-124133828D01*
X223058345Y-124128750D01*
X222910749Y-124128750D01*
X222763323Y-124124426D01*
X222737677Y-124128750D01*
X222711655Y-124128750D01*
X222566892Y-124157545D01*
X222421459Y-124182066D01*
X222397154Y-124191308D01*
X222371627Y-124196386D01*
X222235260Y-124252871D01*
X222097408Y-124305291D01*
X222075372Y-124319098D01*
X222051327Y-124329058D01*
X221928593Y-124411066D01*
X221803624Y-124489369D01*
X221784706Y-124507209D01*
X221763065Y-124521669D01*
X221658689Y-124626045D01*
X221551396Y-124727224D01*
X221536322Y-124748412D01*
X221517919Y-124766815D01*
X221435904Y-124889559D01*
X221350419Y-125009716D01*
X221339770Y-125033433D01*
X221325308Y-125055077D01*
X221268820Y-125191452D01*
X221208413Y-125325989D01*
X221202594Y-125351336D01*
X221192636Y-125375377D01*
X221163840Y-125520144D01*
X221130840Y-125663888D01*
X221130078Y-125689878D01*
X221125000Y-125715405D01*
X221125000Y-125863005D01*
X221123223Y-125923593D01*
X210947000Y-125923593D01*
X210947000Y-113342741D01*
X211014549Y-113370721D01*
X211306278Y-113428750D01*
X211603722Y-113428750D01*
X211895451Y-113370721D01*
X212170253Y-113256894D01*
X212417569Y-113091643D01*
X212627893Y-112881319D01*
X212793144Y-112634003D01*
X212906971Y-112359201D01*
X212965000Y-112067472D01*
X212965000Y-111770028D01*
X218835000Y-111770028D01*
X218835000Y-112067472D01*
X218893029Y-112359201D01*
X219006856Y-112634003D01*
X219172107Y-112881319D01*
X219382431Y-113091643D01*
X219629747Y-113256894D01*
X219904549Y-113370721D01*
X220196278Y-113428750D01*
X220493722Y-113428750D01*
X220785451Y-113370721D01*
X221060253Y-113256894D01*
X221307569Y-113091643D01*
X221517893Y-112881319D01*
X221683144Y-112634003D01*
X221796971Y-112359201D01*
X221855000Y-112067472D01*
X221855000Y-111770028D01*
X221833080Y-111659826D01*
X222796100Y-111659826D01*
X222796100Y-112177674D01*
X222897127Y-112685572D01*
X223095299Y-113164001D01*
X223383000Y-113594576D01*
X223749174Y-113960750D01*
X224179749Y-114248451D01*
X224658178Y-114446623D01*
X225166076Y-114547650D01*
X225683924Y-114547650D01*
X226191822Y-114446623D01*
X226670251Y-114248451D01*
X227100826Y-113960750D01*
X227467000Y-113594576D01*
X227754701Y-113164001D01*
X227952873Y-112685572D01*
X228053900Y-112177674D01*
X228053900Y-111659826D01*
X227952873Y-111151928D01*
X227754701Y-110673499D01*
X227467000Y-110242924D01*
X227100826Y-109876750D01*
X226670251Y-109589049D01*
X226191822Y-109390877D01*
X225683924Y-109289850D01*
X225166076Y-109289850D01*
X224658178Y-109390877D01*
X224179749Y-109589049D01*
X223749174Y-109876750D01*
X223383000Y-110242924D01*
X223095299Y-110673499D01*
X222897127Y-111151928D01*
X222796100Y-111659826D01*
X221833080Y-111659826D01*
X221796971Y-111478299D01*
X221683144Y-111203497D01*
X221517893Y-110956181D01*
X221307569Y-110745857D01*
X221060253Y-110580606D01*
X220785451Y-110466779D01*
X220493722Y-110408750D01*
X220196278Y-110408750D01*
X219904549Y-110466779D01*
X219629747Y-110580606D01*
X219382431Y-110745857D01*
X219172107Y-110956181D01*
X219006856Y-111203497D01*
X218893029Y-111478299D01*
X218835000Y-111770028D01*
X212965000Y-111770028D01*
X212906971Y-111478299D01*
X212793144Y-111203497D01*
X212627893Y-110956181D01*
X212417569Y-110745857D01*
X212170253Y-110580606D01*
X211895451Y-110466779D01*
X211617125Y-110411416D01*
X211779909Y-110142889D01*
X211898339Y-109817054D01*
X211950927Y-109474376D01*
X211935651Y-109128023D01*
X211853099Y-108791305D01*
X211706442Y-108477163D01*
X211552716Y-108267702D01*
X211243818Y-107923434D01*
X211174860Y-107822484D01*
X211115195Y-107717376D01*
X211064891Y-107608338D01*
X211023510Y-107494379D01*
X210990869Y-107374412D01*
X210967060Y-107247416D01*
X210952402Y-107112506D01*
X210947000Y-106958261D01*
X210947000Y-104649310D01*
X210947764Y-104618173D01*
X210949370Y-104596397D01*
X210952045Y-104574711D01*
X210955775Y-104553212D01*
X210960559Y-104531910D01*
X210966385Y-104510857D01*
X210973235Y-104490122D01*
X210981098Y-104469739D01*
X210989937Y-104449797D01*
X210999763Y-104430278D01*
X211010520Y-104411289D01*
X211022206Y-104392833D01*
X211034774Y-104374987D01*
X211048204Y-104357779D01*
X211062468Y-104341243D01*
X211083980Y-104318649D01*
X212596468Y-102806161D01*
X219437000Y-102806161D01*
X219437000Y-103010039D01*
X219476774Y-103209998D01*
X219554795Y-103398356D01*
X219668063Y-103567874D01*
X219812226Y-103712037D01*
X219981744Y-103825305D01*
X220170102Y-103903326D01*
X220331996Y-103935528D01*
X221193128Y-104796662D01*
X221199753Y-104804342D01*
X221221761Y-104825295D01*
X221243292Y-104846826D01*
X221251148Y-104853274D01*
X221257360Y-104859188D01*
X221271344Y-104873875D01*
X221286703Y-104887124D01*
X221301404Y-104901120D01*
X221317400Y-104913603D01*
X221331573Y-104925829D01*
X221346260Y-104939812D01*
X221362251Y-104952292D01*
X221377621Y-104965550D01*
X221394208Y-104977232D01*
X221408961Y-104988745D01*
X221424323Y-105001997D01*
X221440907Y-105013677D01*
X221456906Y-105026163D01*
X221474053Y-105037021D01*
X221489351Y-105047796D01*
X221505359Y-105060288D01*
X221522502Y-105071143D01*
X221539074Y-105082815D01*
X221556725Y-105092814D01*
X221572552Y-105102837D01*
X221589141Y-105114520D01*
X221606797Y-105124522D01*
X221623938Y-105135376D01*
X221642061Y-105144498D01*
X221658345Y-105153723D01*
X221675476Y-105164571D01*
X221693604Y-105173696D01*
X221711262Y-105183699D01*
X221729806Y-105191919D01*
X221746515Y-105200330D01*
X221764178Y-105210336D01*
X221782733Y-105218561D01*
X221800843Y-105227677D01*
X221819767Y-105234977D01*
X221836886Y-105242565D01*
X221855019Y-105251693D01*
X221873952Y-105258996D01*
X221892491Y-105267214D01*
X221911756Y-105273578D01*
X221929232Y-105280319D01*
X221947789Y-105288545D01*
X221967055Y-105294909D01*
X221985969Y-105302205D01*
X222005521Y-105307616D01*
X222007573Y-105308294D01*
X221928593Y-105361066D01*
X221803624Y-105439369D01*
X221784706Y-105457209D01*
X221763065Y-105471669D01*
X221658689Y-105576045D01*
X221551396Y-105677224D01*
X221536322Y-105698412D01*
X221517919Y-105716815D01*
X221435904Y-105839559D01*
X221350419Y-105959716D01*
X221339770Y-105983433D01*
X221325308Y-106005077D01*
X221268820Y-106141452D01*
X221208413Y-106275989D01*
X221202594Y-106301336D01*
X221192636Y-106325377D01*
X221163840Y-106470144D01*
X221130840Y-106613888D01*
X221130078Y-106639878D01*
X221125000Y-106665405D01*
X221125000Y-106813005D01*
X221123223Y-106873593D01*
X221125000Y-106899360D01*
X221125000Y-107012095D01*
X221136901Y-107071925D01*
X221175119Y-107626090D01*
X221218316Y-107882292D01*
X221341541Y-108206342D01*
X221525619Y-108500127D01*
X221763474Y-108752354D01*
X222045966Y-108953332D01*
X222362239Y-109095337D01*
X222700138Y-109172911D01*
X223046677Y-109183074D01*
X223388541Y-109125434D01*
X223712592Y-109002209D01*
X224006376Y-108818131D01*
X224258604Y-108580276D01*
X224459581Y-108297784D01*
X224601587Y-107981512D01*
X224679160Y-107643613D01*
X224686777Y-107383906D01*
X224645000Y-106778137D01*
X224645000Y-106665405D01*
X224616205Y-106520642D01*
X224591684Y-106375209D01*
X224582442Y-106350904D01*
X224577364Y-106325377D01*
X224520879Y-106189010D01*
X224468459Y-106051158D01*
X224454652Y-106029122D01*
X224444692Y-106005077D01*
X224362684Y-105882343D01*
X224284381Y-105757374D01*
X224266541Y-105738456D01*
X224252081Y-105716815D01*
X224147705Y-105612439D01*
X224046526Y-105505146D01*
X224025338Y-105490072D01*
X224006935Y-105471669D01*
X223917684Y-105412033D01*
X226883168Y-105412033D01*
X226941344Y-105450905D01*
X227129702Y-105528926D01*
X227329661Y-105568700D01*
X227533539Y-105568700D01*
X227733498Y-105528926D01*
X227921856Y-105450905D01*
X228091374Y-105337637D01*
X228235537Y-105193474D01*
X228348805Y-105023956D01*
X228426826Y-104835598D01*
X228466600Y-104635639D01*
X228466600Y-104431761D01*
X228426826Y-104231802D01*
X228348805Y-104043444D01*
X228235537Y-103873926D01*
X228091374Y-103729763D01*
X227921856Y-103616495D01*
X227733498Y-103538474D01*
X227533539Y-103498700D01*
X227329661Y-103498700D01*
X227129702Y-103538474D01*
X226941344Y-103616495D01*
X226771826Y-103729763D01*
X226740556Y-103761033D01*
X222623053Y-103761033D01*
X222614504Y-103760403D01*
X222595940Y-103758113D01*
X222577474Y-103754909D01*
X222559232Y-103750812D01*
X222541189Y-103745819D01*
X222523402Y-103739943D01*
X222505948Y-103733210D01*
X222488842Y-103725628D01*
X222472120Y-103717210D01*
X222455819Y-103707977D01*
X222440018Y-103697971D01*
X222424719Y-103687196D01*
X222409958Y-103675676D01*
X222395775Y-103663441D01*
X222374927Y-103643593D01*
X221499428Y-102768096D01*
X221467226Y-102606202D01*
X221389205Y-102417844D01*
X221275937Y-102248326D01*
X221131774Y-102104163D01*
X220962256Y-101990895D01*
X220773898Y-101912874D01*
X220573939Y-101873100D01*
X220370061Y-101873100D01*
X220170102Y-101912874D01*
X219981744Y-101990895D01*
X219812226Y-102104163D01*
X219668063Y-102248326D01*
X219554795Y-102417844D01*
X219476774Y-102606202D01*
X219437000Y-102806161D01*
X212596468Y-102806161D01*
X219694452Y-95708178D01*
X219701536Y-95702067D01*
X219720855Y-95681775D01*
X219740735Y-95661895D01*
X219746690Y-95654639D01*
X219755298Y-95645597D01*
X219768857Y-95632688D01*
X219781091Y-95618505D01*
X219794002Y-95604944D01*
X219805516Y-95590190D01*
X219819798Y-95573633D01*
X219832704Y-95560077D01*
X219844219Y-95545321D01*
X219856447Y-95531146D01*
X219867227Y-95515840D01*
X219880679Y-95498602D01*
X219892910Y-95484423D01*
X219903689Y-95469118D01*
X219915206Y-95454360D01*
X219925225Y-95438539D01*
X219937807Y-95420673D01*
X219949323Y-95405917D01*
X219959347Y-95390088D01*
X219970125Y-95374784D01*
X219979345Y-95358508D01*
X219991051Y-95340024D01*
X220001832Y-95324715D01*
X220011053Y-95308437D01*
X220021067Y-95292624D01*
X220029489Y-95275892D01*
X220040269Y-95256863D01*
X220050285Y-95241046D01*
X220058702Y-95224323D01*
X220067929Y-95208036D01*
X220075514Y-95190924D01*
X220085343Y-95171397D01*
X220094572Y-95155106D01*
X220102162Y-95137985D01*
X220110577Y-95121266D01*
X220117310Y-95103810D01*
X220126178Y-95083806D01*
X220134594Y-95067086D01*
X220141328Y-95049630D01*
X220148916Y-95032511D01*
X220154792Y-95014724D01*
X220162662Y-94994321D01*
X220170245Y-94977215D01*
X220176115Y-94959445D01*
X220182856Y-94941971D01*
X220187850Y-94923926D01*
X220194706Y-94903171D01*
X220201447Y-94885696D01*
X220206440Y-94867653D01*
X220212310Y-94849885D01*
X220216411Y-94831622D01*
X220222245Y-94810543D01*
X220228115Y-94792773D01*
X220232218Y-94774504D01*
X220237213Y-94756453D01*
X220240413Y-94738011D01*
X220245202Y-94716683D01*
X220250198Y-94698631D01*
X220253398Y-94680188D01*
X220257498Y-94661931D01*
X220259791Y-94643345D01*
X220263529Y-94621802D01*
X220267633Y-94603523D01*
X220269926Y-94584934D01*
X220273123Y-94566506D01*
X220274499Y-94547848D01*
X220277179Y-94526124D01*
X220280377Y-94507692D01*
X220281754Y-94489024D01*
X220284047Y-94470433D01*
X220284506Y-94451718D01*
X220286114Y-94429931D01*
X220288406Y-94411347D01*
X220288866Y-94392622D01*
X220290243Y-94373956D01*
X220289784Y-94355251D01*
X220290091Y-94342746D01*
X220291010Y-94333416D01*
X220291010Y-94305338D01*
X220291699Y-94277289D01*
X220291010Y-94267947D01*
X220291010Y-93678127D01*
X228336018Y-101723135D01*
X228357524Y-101745724D01*
X228371778Y-101762249D01*
X228385222Y-101779475D01*
X228397799Y-101797333D01*
X228409483Y-101815783D01*
X228420234Y-101834762D01*
X228430052Y-101854267D01*
X228438909Y-101874249D01*
X228446764Y-101894612D01*
X228453611Y-101915338D01*
X228459435Y-101936384D01*
X228464220Y-101957690D01*
X228467954Y-101979212D01*
X228470628Y-102000886D01*
X228472234Y-102022667D01*
X228473000Y-102053839D01*
X228473001Y-106240729D01*
X228438373Y-106226386D01*
X228400022Y-106218757D01*
X228363302Y-106205411D01*
X228230359Y-106185009D01*
X228098345Y-106158750D01*
X228059246Y-106158750D01*
X228020624Y-106152823D01*
X227886241Y-106158750D01*
X227751655Y-106158750D01*
X227713311Y-106166377D01*
X227674272Y-106168099D01*
X227543612Y-106200132D01*
X227411627Y-106226386D01*
X227375514Y-106241345D01*
X227337554Y-106250651D01*
X227215647Y-106307563D01*
X227091327Y-106359058D01*
X227058824Y-106380776D01*
X227023412Y-106397308D01*
X226914950Y-106476909D01*
X226803065Y-106551669D01*
X226775425Y-106579309D01*
X226743917Y-106602433D01*
X226653066Y-106701668D01*
X226557919Y-106796815D01*
X226536202Y-106829316D01*
X226509811Y-106858143D01*
X226440065Y-106973196D01*
X226365308Y-107085077D01*
X226350350Y-107121188D01*
X226330089Y-107154611D01*
X226284126Y-107281070D01*
X226232636Y-107405377D01*
X226225011Y-107443711D01*
X226211659Y-107480446D01*
X226191249Y-107613441D01*
X226165000Y-107745405D01*
X226165000Y-107784489D01*
X226159071Y-107823124D01*
X226165000Y-107957552D01*
X226165000Y-108092095D01*
X226172625Y-108130427D01*
X226174347Y-108169476D01*
X226206389Y-108300171D01*
X226232636Y-108432123D01*
X226247591Y-108468227D01*
X226256899Y-108506194D01*
X226313822Y-108628123D01*
X226365308Y-108752423D01*
X226387023Y-108784921D01*
X226403556Y-108820336D01*
X226483166Y-108928809D01*
X226557919Y-109040685D01*
X226646808Y-109129574D01*
X227982756Y-110618492D01*
X228008212Y-110641797D01*
X228094824Y-110733310D01*
X228175423Y-110832953D01*
X228245140Y-110935015D01*
X228304805Y-111040123D01*
X228355109Y-111149161D01*
X228396490Y-111263120D01*
X228429131Y-111383087D01*
X228452940Y-111510083D01*
X228467598Y-111644993D01*
X228473000Y-111799242D01*
X228473001Y-125290729D01*
X228438373Y-125276386D01*
X228400022Y-125268757D01*
X228363302Y-125255411D01*
X228230359Y-125235009D01*
X228098345Y-125208750D01*
X228059246Y-125208750D01*
X228020624Y-125202823D01*
X227886241Y-125208750D01*
X227751655Y-125208750D01*
X227713311Y-125216377D01*
X227674272Y-125218099D01*
X227543612Y-125250132D01*
X227411627Y-125276386D01*
X227375514Y-125291345D01*
X227337554Y-125300651D01*
X227215647Y-125357563D01*
X227091327Y-125409058D01*
X227058824Y-125430776D01*
X227023412Y-125447308D01*
X226914950Y-125526909D01*
X226803065Y-125601669D01*
X226775425Y-125629309D01*
X226743917Y-125652433D01*
X226653066Y-125751668D01*
X226557919Y-125846815D01*
X226536202Y-125879316D01*
X226509811Y-125908143D01*
X226440065Y-126023196D01*
X226365308Y-126135077D01*
X226350350Y-126171188D01*
X226330089Y-126204611D01*
X226284126Y-126331070D01*
X226232636Y-126455377D01*
X226225011Y-126493711D01*
X226211659Y-126530446D01*
X226191249Y-126663441D01*
X226165000Y-126795405D01*
X226165000Y-126834489D01*
X226159071Y-126873124D01*
X226165000Y-127007552D01*
X226165000Y-127142095D01*
X226172625Y-127180427D01*
X226174347Y-127219476D01*
X226206389Y-127350171D01*
X226232636Y-127482123D01*
X226247591Y-127518227D01*
X226256899Y-127556194D01*
X226313822Y-127678123D01*
X226365308Y-127802423D01*
X226387023Y-127834921D01*
X226403556Y-127870336D01*
X226483166Y-127978809D01*
X226557919Y-128090685D01*
X226646808Y-128179574D01*
X227982756Y-129668492D01*
X228174392Y-129843937D01*
X228470861Y-130023659D01*
X228796695Y-130142089D01*
X229139373Y-130194677D01*
X229208186Y-130191642D01*
X229166856Y-130253497D01*
X229053029Y-130528299D01*
X228995000Y-130820028D01*
X228995000Y-131117472D01*
X229053029Y-131409201D01*
X229166856Y-131684003D01*
X229332107Y-131931319D01*
X229542431Y-132141643D01*
X229789747Y-132306894D01*
X230064549Y-132420721D01*
X230356278Y-132478750D01*
X230653722Y-132478750D01*
X230945451Y-132420721D01*
X231220253Y-132306894D01*
X231467569Y-132141643D01*
X231677893Y-131931319D01*
X231843144Y-131684003D01*
X231956971Y-131409201D01*
X232015000Y-131117472D01*
X232015000Y-130820028D01*
X231956971Y-130528299D01*
X231843144Y-130253497D01*
X231677893Y-130006181D01*
X231467569Y-129795857D01*
X231220253Y-129630606D01*
X230945451Y-129516779D01*
X230667125Y-129461416D01*
X230829909Y-129192889D01*
X230948339Y-128867054D01*
X231000927Y-128524376D01*
X230985651Y-128178023D01*
X230903099Y-127841305D01*
X230756442Y-127527163D01*
X230602716Y-127317702D01*
X230293818Y-126973434D01*
X230224860Y-126872484D01*
X230165195Y-126767376D01*
X230114891Y-126658338D01*
X230073510Y-126544379D01*
X230040869Y-126424412D01*
X230017060Y-126297416D01*
X230002402Y-126162506D01*
X229997000Y-126008261D01*
X229997000Y-113342741D01*
X230064549Y-113370721D01*
X230356278Y-113428750D01*
X230653722Y-113428750D01*
X230945451Y-113370721D01*
X231220253Y-113256894D01*
X231467569Y-113091643D01*
X231677893Y-112881319D01*
X231806751Y-112688469D01*
X231806751Y-112804538D01*
X231764813Y-112846476D01*
X231651545Y-113015994D01*
X231573524Y-113204352D01*
X231533750Y-113404311D01*
X231533750Y-113608189D01*
X231573524Y-113808148D01*
X231651545Y-113996506D01*
X231764813Y-114166024D01*
X231908976Y-114310187D01*
X232078494Y-114423455D01*
X232266852Y-114501476D01*
X232466811Y-114541250D01*
X232670689Y-114541250D01*
X232870648Y-114501476D01*
X233059006Y-114423455D01*
X233068752Y-114416943D01*
X233078497Y-114423455D01*
X233266855Y-114501476D01*
X233466814Y-114541250D01*
X233670692Y-114541250D01*
X233870651Y-114501476D01*
X234059009Y-114423455D01*
X234228527Y-114310187D01*
X234290000Y-114248714D01*
X234290000Y-136492721D01*
X234223881Y-137167057D01*
X234037415Y-137784661D01*
X233734542Y-138354284D01*
X233326797Y-138854228D01*
X232829710Y-139265454D01*
X232262219Y-139572295D01*
X231645926Y-139763070D01*
X230973449Y-139833750D01*
X181801029Y-139833750D01*
X181126693Y-139767631D01*
X180509089Y-139581165D01*
X179939466Y-139278292D01*
X179439522Y-138870547D01*
X179028296Y-138373460D01*
X178721455Y-137805969D01*
X178530680Y-137189676D01*
X178460000Y-136517199D01*
X178460000Y-130820028D01*
X180735000Y-130820028D01*
X180735000Y-131117472D01*
X180793029Y-131409201D01*
X180906856Y-131684003D01*
X181072107Y-131931319D01*
X181282431Y-132141643D01*
X181529747Y-132306894D01*
X181804549Y-132420721D01*
X182096278Y-132478750D01*
X182393722Y-132478750D01*
X182685451Y-132420721D01*
X182960253Y-132306894D01*
X183207569Y-132141643D01*
X183417893Y-131931319D01*
X183583144Y-131684003D01*
X183696971Y-131409201D01*
X183755000Y-131117472D01*
X183755000Y-130820028D01*
X183733080Y-130709826D01*
X184696100Y-130709826D01*
X184696100Y-131227674D01*
X184797127Y-131735572D01*
X184995299Y-132214001D01*
X185283000Y-132644576D01*
X185649174Y-133010750D01*
X186079749Y-133298451D01*
X186558178Y-133496623D01*
X187066076Y-133597650D01*
X187583924Y-133597650D01*
X188091822Y-133496623D01*
X188570251Y-133298451D01*
X189000826Y-133010750D01*
X189367000Y-132644576D01*
X189654701Y-132214001D01*
X189852873Y-131735572D01*
X189953900Y-131227674D01*
X189953900Y-130709826D01*
X189852873Y-130201928D01*
X189654701Y-129723499D01*
X189367000Y-129292924D01*
X189000826Y-128926750D01*
X188570251Y-128639049D01*
X188091822Y-128440877D01*
X187583924Y-128339850D01*
X187066076Y-128339850D01*
X186558178Y-128440877D01*
X186079749Y-128639049D01*
X185649174Y-128926750D01*
X185283000Y-129292924D01*
X184995299Y-129723499D01*
X184797127Y-130201928D01*
X184696100Y-130709826D01*
X183733080Y-130709826D01*
X183696971Y-130528299D01*
X183583144Y-130253497D01*
X183417893Y-130006181D01*
X183207569Y-129795857D01*
X182960253Y-129630606D01*
X182685451Y-129516779D01*
X182393722Y-129458750D01*
X182096278Y-129458750D01*
X181804549Y-129516779D01*
X181529747Y-129630606D01*
X181282431Y-129795857D01*
X181072107Y-130006181D01*
X180906856Y-130253497D01*
X180793029Y-130528299D01*
X180735000Y-130820028D01*
X178460000Y-130820028D01*
X178460000Y-125923593D01*
X183023223Y-125923593D01*
X183025000Y-125949360D01*
X183025000Y-126062095D01*
X183036901Y-126121925D01*
X183075119Y-126676090D01*
X183118316Y-126932292D01*
X183241541Y-127256342D01*
X183425619Y-127550127D01*
X183663474Y-127802354D01*
X183945966Y-128003332D01*
X184262239Y-128145337D01*
X184600138Y-128222911D01*
X184946677Y-128233074D01*
X185288541Y-128175434D01*
X185612592Y-128052209D01*
X185906376Y-127868131D01*
X186158604Y-127630276D01*
X186359581Y-127347784D01*
X186501587Y-127031512D01*
X186579160Y-126693613D01*
X186586777Y-126433906D01*
X186545000Y-125828137D01*
X186545000Y-125715405D01*
X186516205Y-125570642D01*
X186491684Y-125425209D01*
X186482442Y-125400904D01*
X186477364Y-125375377D01*
X186420879Y-125239010D01*
X186368459Y-125101158D01*
X186354652Y-125079122D01*
X186344692Y-125055077D01*
X186262684Y-124932343D01*
X186184381Y-124807374D01*
X186166541Y-124788456D01*
X186152081Y-124766815D01*
X186047705Y-124662439D01*
X185946526Y-124555146D01*
X185925338Y-124540072D01*
X185906935Y-124521669D01*
X185784191Y-124439654D01*
X185664034Y-124354169D01*
X185640317Y-124343520D01*
X185618673Y-124329058D01*
X185482298Y-124272570D01*
X185347761Y-124212163D01*
X185322414Y-124206344D01*
X185298373Y-124196386D01*
X185153606Y-124167590D01*
X185009862Y-124134590D01*
X184983872Y-124133828D01*
X184958345Y-124128750D01*
X184810749Y-124128750D01*
X184663323Y-124124426D01*
X184637677Y-124128750D01*
X184611655Y-124128750D01*
X184466892Y-124157545D01*
X184321459Y-124182066D01*
X184297154Y-124191308D01*
X184271627Y-124196386D01*
X184135260Y-124252871D01*
X183997408Y-124305291D01*
X183975372Y-124319098D01*
X183951327Y-124329058D01*
X183828593Y-124411066D01*
X183703624Y-124489369D01*
X183684706Y-124507209D01*
X183663065Y-124521669D01*
X183558689Y-124626045D01*
X183451396Y-124727224D01*
X183436322Y-124748412D01*
X183417919Y-124766815D01*
X183335904Y-124889559D01*
X183250419Y-125009716D01*
X183239770Y-125033433D01*
X183225308Y-125055077D01*
X183168820Y-125191452D01*
X183108413Y-125325989D01*
X183102594Y-125351336D01*
X183092636Y-125375377D01*
X183063840Y-125520144D01*
X183030840Y-125663888D01*
X183030078Y-125689878D01*
X183025000Y-125715405D01*
X183025000Y-125863005D01*
X183023223Y-125923593D01*
X178460000Y-125923593D01*
X178460000Y-111770028D01*
X180735000Y-111770028D01*
X180735000Y-112067472D01*
X180793029Y-112359201D01*
X180906856Y-112634003D01*
X181072107Y-112881319D01*
X181282431Y-113091643D01*
X181529747Y-113256894D01*
X181804549Y-113370721D01*
X182096278Y-113428750D01*
X182393722Y-113428750D01*
X182685451Y-113370721D01*
X182960253Y-113256894D01*
X183207569Y-113091643D01*
X183417893Y-112881319D01*
X183583144Y-112634003D01*
X183696971Y-112359201D01*
X183755000Y-112067472D01*
X183755000Y-111770028D01*
X183733080Y-111659826D01*
X184696100Y-111659826D01*
X184696100Y-112177674D01*
X184797127Y-112685572D01*
X184995299Y-113164001D01*
X185283000Y-113594576D01*
X185649174Y-113960750D01*
X186079749Y-114248451D01*
X186558178Y-114446623D01*
X187066076Y-114547650D01*
X187583924Y-114547650D01*
X188091822Y-114446623D01*
X188570251Y-114248451D01*
X189000826Y-113960750D01*
X189367000Y-113594576D01*
X189654701Y-113164001D01*
X189852873Y-112685572D01*
X189953900Y-112177674D01*
X189953900Y-111659826D01*
X189852873Y-111151928D01*
X189654701Y-110673499D01*
X189367000Y-110242924D01*
X189000826Y-109876750D01*
X188570251Y-109589049D01*
X188091822Y-109390877D01*
X187583924Y-109289850D01*
X187066076Y-109289850D01*
X186558178Y-109390877D01*
X186079749Y-109589049D01*
X185649174Y-109876750D01*
X185283000Y-110242924D01*
X184995299Y-110673499D01*
X184797127Y-111151928D01*
X184696100Y-111659826D01*
X183733080Y-111659826D01*
X183696971Y-111478299D01*
X183583144Y-111203497D01*
X183417893Y-110956181D01*
X183207569Y-110745857D01*
X182960253Y-110580606D01*
X182685451Y-110466779D01*
X182393722Y-110408750D01*
X182096278Y-110408750D01*
X181804549Y-110466779D01*
X181529747Y-110580606D01*
X181282431Y-110745857D01*
X181072107Y-110956181D01*
X180906856Y-111203497D01*
X180793029Y-111478299D01*
X180735000Y-111770028D01*
X178460000Y-111770028D01*
X178460000Y-106873593D01*
X183023223Y-106873593D01*
X183025000Y-106899360D01*
X183025000Y-107012095D01*
X183036901Y-107071925D01*
X183075119Y-107626090D01*
X183118316Y-107882292D01*
X183241541Y-108206342D01*
X183425619Y-108500127D01*
X183663474Y-108752354D01*
X183945966Y-108953332D01*
X184262239Y-109095337D01*
X184600138Y-109172911D01*
X184946677Y-109183074D01*
X185288541Y-109125434D01*
X185612592Y-109002209D01*
X185906376Y-108818131D01*
X186158604Y-108580276D01*
X186359581Y-108297784D01*
X186501587Y-107981512D01*
X186579160Y-107643613D01*
X186586777Y-107383906D01*
X186545000Y-106778137D01*
X186545000Y-106665405D01*
X186516205Y-106520642D01*
X186491684Y-106375209D01*
X186482442Y-106350904D01*
X186477364Y-106325377D01*
X186420879Y-106189010D01*
X186368459Y-106051158D01*
X186354652Y-106029122D01*
X186344692Y-106005077D01*
X186262684Y-105882343D01*
X186184381Y-105757374D01*
X186166541Y-105738456D01*
X186152081Y-105716815D01*
X186047705Y-105612439D01*
X185946526Y-105505146D01*
X185925338Y-105490072D01*
X185906935Y-105471669D01*
X185784191Y-105389654D01*
X185664034Y-105304169D01*
X185640317Y-105293520D01*
X185618673Y-105279058D01*
X185482298Y-105222570D01*
X185347761Y-105162163D01*
X185322414Y-105156344D01*
X185298373Y-105146386D01*
X185153606Y-105117590D01*
X185009862Y-105084590D01*
X184983872Y-105083828D01*
X184958345Y-105078750D01*
X184810749Y-105078750D01*
X184663323Y-105074426D01*
X184637677Y-105078750D01*
X184611655Y-105078750D01*
X184466892Y-105107545D01*
X184321459Y-105132066D01*
X184297154Y-105141308D01*
X184271627Y-105146386D01*
X184135260Y-105202871D01*
X183997408Y-105255291D01*
X183975372Y-105269098D01*
X183951327Y-105279058D01*
X183828593Y-105361066D01*
X183703624Y-105439369D01*
X183684706Y-105457209D01*
X183663065Y-105471669D01*
X183558689Y-105576045D01*
X183451396Y-105677224D01*
X183436322Y-105698412D01*
X183417919Y-105716815D01*
X183335904Y-105839559D01*
X183250419Y-105959716D01*
X183239770Y-105983433D01*
X183225308Y-106005077D01*
X183168820Y-106141452D01*
X183108413Y-106275989D01*
X183102594Y-106301336D01*
X183092636Y-106325377D01*
X183063840Y-106470144D01*
X183030840Y-106613888D01*
X183030078Y-106639878D01*
X183025000Y-106665405D01*
X183025000Y-106813005D01*
X183023223Y-106873593D01*
X178460000Y-106873593D01*
X178460000Y-88136506D01*
X178531431Y-87359138D01*
X178735082Y-86637041D01*
X178922694Y-86256600D01*
X200831100Y-86256600D01*
X200831100Y-86806600D01*
X200877685Y-87025587D01*
X200966097Y-87231278D01*
X201092939Y-87415769D01*
X201253336Y-87571969D01*
X201441124Y-87693876D01*
X201664226Y-87773719D01*
X201839100Y-87647554D01*
X201839100Y-86256600D01*
X200831100Y-86256600D01*
X178922694Y-86256600D01*
X179066913Y-85964155D01*
X179448908Y-85452600D01*
X200831100Y-85452600D01*
X200831100Y-86002600D01*
X201839100Y-86002600D01*
X201839100Y-84611646D01*
X202093100Y-84611646D01*
X202093100Y-86002600D01*
X202113100Y-86002600D01*
X202113100Y-86256600D01*
X202093100Y-86256600D01*
X202093100Y-87647554D01*
X202267974Y-87773719D01*
X202491076Y-87693876D01*
X202678864Y-87571969D01*
X202839261Y-87415769D01*
X202966103Y-87231278D01*
X203054515Y-87025587D01*
X203101100Y-86806600D01*
X203101100Y-86516504D01*
X203116078Y-86522708D01*
X203301548Y-86559600D01*
X203490652Y-86559600D01*
X203676122Y-86522708D01*
X203850831Y-86450341D01*
X204008064Y-86345281D01*
X204141781Y-86211564D01*
X204246841Y-86054331D01*
X204319208Y-85879622D01*
X204356100Y-85694152D01*
X204356100Y-85505048D01*
X208216100Y-85505048D01*
X208216100Y-85694152D01*
X208252992Y-85879622D01*
X208325359Y-86054331D01*
X208430419Y-86211564D01*
X208564136Y-86345281D01*
X208721369Y-86450341D01*
X208896078Y-86522708D01*
X209081548Y-86559600D01*
X209270652Y-86559600D01*
X209456122Y-86522708D01*
X209471100Y-86516504D01*
X209471100Y-86806600D01*
X209517685Y-87025587D01*
X209606097Y-87231278D01*
X209732939Y-87415769D01*
X209893336Y-87571969D01*
X210081124Y-87693876D01*
X210304226Y-87773719D01*
X210479100Y-87647554D01*
X210479100Y-86256600D01*
X210733100Y-86256600D01*
X210733100Y-87647554D01*
X210907974Y-87773719D01*
X211131076Y-87693876D01*
X211318864Y-87571969D01*
X211479261Y-87415769D01*
X211606103Y-87231278D01*
X211694515Y-87025587D01*
X211741100Y-86806600D01*
X211741100Y-86256600D01*
X210733100Y-86256600D01*
X210479100Y-86256600D01*
X210459100Y-86256600D01*
X210459100Y-86002600D01*
X210479100Y-86002600D01*
X210479100Y-84611646D01*
X210733100Y-84611646D01*
X210733100Y-86002600D01*
X211741100Y-86002600D01*
X211741100Y-85452600D01*
X211694515Y-85233613D01*
X211606103Y-85027922D01*
X211479261Y-84843431D01*
X211318864Y-84687231D01*
X211131076Y-84565324D01*
X210907974Y-84485481D01*
X210733100Y-84611646D01*
X210479100Y-84611646D01*
X210304226Y-84485481D01*
X210081124Y-84565324D01*
X209893336Y-84687231D01*
X209748984Y-84827806D01*
X209630831Y-84748859D01*
X209456122Y-84676492D01*
X209270652Y-84639600D01*
X209081548Y-84639600D01*
X208896078Y-84676492D01*
X208721369Y-84748859D01*
X208564136Y-84853919D01*
X208430419Y-84987636D01*
X208325359Y-85144869D01*
X208252992Y-85319578D01*
X208216100Y-85505048D01*
X204356100Y-85505048D01*
X204319208Y-85319578D01*
X204246841Y-85144869D01*
X204141781Y-84987636D01*
X204008064Y-84853919D01*
X203850831Y-84748859D01*
X203676122Y-84676492D01*
X203490652Y-84639600D01*
X203301548Y-84639600D01*
X203116078Y-84676492D01*
X202941369Y-84748859D01*
X202823216Y-84827806D01*
X202678864Y-84687231D01*
X202491076Y-84565324D01*
X202267974Y-84485481D01*
X202093100Y-84611646D01*
X201839100Y-84611646D01*
X201664226Y-84485481D01*
X201441124Y-84565324D01*
X201253336Y-84687231D01*
X201092939Y-84843431D01*
X200966097Y-85027922D01*
X200877685Y-85233613D01*
X200831100Y-85452600D01*
X179448908Y-85452600D01*
X179515816Y-85363000D01*
X180066748Y-84853724D01*
X180701267Y-84453372D01*
X181398115Y-84175358D01*
X182146754Y-84026444D01*
X182579791Y-84003750D01*
X200786331Y-84003750D01*
X200818750Y-84006943D01*
X200851169Y-84003750D01*
X200948133Y-83994200D01*
X201072543Y-83956460D01*
X201187200Y-83895175D01*
X201287698Y-83812698D01*
X201370175Y-83712200D01*
X201431460Y-83597543D01*
X201469200Y-83473133D01*
X201469435Y-83470750D01*
X211280565Y-83470750D01*
X211280800Y-83473133D01*
D16*
%TO.N,+5V*%
G36*
X220859588Y-102921922D02*
G01*
X220860084Y-102937355D01*
X220860165Y-102938444D01*
X220863062Y-102962858D01*
X220863241Y-102963951D01*
X220868237Y-102987933D01*
X220868510Y-102989006D01*
X220875604Y-103012554D01*
X220875963Y-103013584D01*
X220885156Y-103036700D01*
X220885588Y-103037667D01*
X220896879Y-103060349D01*
X220897366Y-103061237D01*
X220910756Y-103083487D01*
X220911282Y-103084291D01*
X220926770Y-103106108D01*
X220927317Y-103106823D01*
X220944904Y-103128207D01*
X220945458Y-103128836D01*
X220956714Y-103140816D01*
X220704716Y-103392814D01*
X220692736Y-103381558D01*
X220692107Y-103381004D01*
X220670723Y-103363417D01*
X220670008Y-103362870D01*
X220648191Y-103347382D01*
X220647387Y-103346856D01*
X220625137Y-103333466D01*
X220624249Y-103332979D01*
X220601567Y-103321688D01*
X220600600Y-103321256D01*
X220577484Y-103312063D01*
X220576454Y-103311704D01*
X220552906Y-103304610D01*
X220551833Y-103304337D01*
X220527851Y-103299341D01*
X220526758Y-103299162D01*
X220502344Y-103296265D01*
X220501255Y-103296184D01*
X220485822Y-103295688D01*
X220348558Y-102784658D01*
X220859588Y-102921922D01*
G37*
X220859588Y-102921922D02*
X220860084Y-102937355D01*
X220860165Y-102938444D01*
X220863062Y-102962858D01*
X220863241Y-102963951D01*
X220868237Y-102987933D01*
X220868510Y-102989006D01*
X220875604Y-103012554D01*
X220875963Y-103013584D01*
X220885156Y-103036700D01*
X220885588Y-103037667D01*
X220896879Y-103060349D01*
X220897366Y-103061237D01*
X220910756Y-103083487D01*
X220911282Y-103084291D01*
X220926770Y-103106108D01*
X220927317Y-103106823D01*
X220944904Y-103128207D01*
X220945458Y-103128836D01*
X220956714Y-103140816D01*
X220704716Y-103392814D01*
X220692736Y-103381558D01*
X220692107Y-103381004D01*
X220670723Y-103363417D01*
X220670008Y-103362870D01*
X220648191Y-103347382D01*
X220647387Y-103346856D01*
X220625137Y-103333466D01*
X220624249Y-103332979D01*
X220601567Y-103321688D01*
X220600600Y-103321256D01*
X220577484Y-103312063D01*
X220576454Y-103311704D01*
X220552906Y-103304610D01*
X220551833Y-103304337D01*
X220527851Y-103299341D01*
X220526758Y-103299162D01*
X220502344Y-103296265D01*
X220501255Y-103296184D01*
X220485822Y-103295688D01*
X220348558Y-102784658D01*
X220859588Y-102921922D01*
%TO.N,col0*%
G36*
X190937302Y-126989754D02*
G01*
X190938326Y-127158637D01*
X190938337Y-127159092D01*
X190945288Y-127324838D01*
X190945321Y-127325367D01*
X190958139Y-127478298D01*
X190958206Y-127478916D01*
X190976891Y-127619033D01*
X190977010Y-127619759D01*
X191001563Y-127747061D01*
X191001759Y-127747917D01*
X191032178Y-127862404D01*
X191032491Y-127863412D01*
X191068778Y-127965085D01*
X191069265Y-127966259D01*
X191111419Y-128055117D01*
X191112155Y-128056455D01*
X191160175Y-128132499D01*
X191161247Y-128133956D01*
X191207529Y-128188260D01*
X191044510Y-128351279D01*
X190990206Y-128304997D01*
X190988749Y-128303925D01*
X190912705Y-128255905D01*
X190911367Y-128255169D01*
X190822509Y-128213015D01*
X190821335Y-128212528D01*
X190719662Y-128176241D01*
X190718654Y-128175928D01*
X190604167Y-128145509D01*
X190603311Y-128145313D01*
X190476009Y-128120760D01*
X190475283Y-128120641D01*
X190335166Y-128101956D01*
X190334548Y-128101889D01*
X190181617Y-128089071D01*
X190181088Y-128089038D01*
X190015342Y-128082087D01*
X190014887Y-128082076D01*
X189846004Y-128081052D01*
X189445232Y-126588982D01*
X190937302Y-126989754D01*
G37*
X190937302Y-126989754D02*
X190938326Y-127158637D01*
X190938337Y-127159092D01*
X190945288Y-127324838D01*
X190945321Y-127325367D01*
X190958139Y-127478298D01*
X190958206Y-127478916D01*
X190976891Y-127619033D01*
X190977010Y-127619759D01*
X191001563Y-127747061D01*
X191001759Y-127747917D01*
X191032178Y-127862404D01*
X191032491Y-127863412D01*
X191068778Y-127965085D01*
X191069265Y-127966259D01*
X191111419Y-128055117D01*
X191112155Y-128056455D01*
X191160175Y-128132499D01*
X191161247Y-128133956D01*
X191207529Y-128188260D01*
X191044510Y-128351279D01*
X190990206Y-128304997D01*
X190988749Y-128303925D01*
X190912705Y-128255905D01*
X190911367Y-128255169D01*
X190822509Y-128213015D01*
X190821335Y-128212528D01*
X190719662Y-128176241D01*
X190718654Y-128175928D01*
X190604167Y-128145509D01*
X190603311Y-128145313D01*
X190476009Y-128120760D01*
X190475283Y-128120641D01*
X190335166Y-128101956D01*
X190334548Y-128101889D01*
X190181617Y-128089071D01*
X190181088Y-128089038D01*
X190015342Y-128082087D01*
X190014887Y-128082076D01*
X189846004Y-128081052D01*
X189445232Y-126588982D01*
X190937302Y-126989754D01*
G36*
X189967956Y-126969068D02*
G01*
X189969204Y-126970467D01*
X190045248Y-127043987D01*
X190046603Y-127045125D01*
X190135461Y-127109779D01*
X190136824Y-127110644D01*
X190238497Y-127166431D01*
X190239790Y-127167048D01*
X190354277Y-127213967D01*
X190355456Y-127214384D01*
X190482758Y-127252437D01*
X190483805Y-127252702D01*
X190623922Y-127281887D01*
X190624839Y-127282043D01*
X190777770Y-127302361D01*
X190778568Y-127302442D01*
X190944314Y-127313893D01*
X190945005Y-127313922D01*
X191113974Y-127316367D01*
X191514768Y-128808518D01*
X190022699Y-128407746D01*
X190021673Y-128237363D01*
X190021662Y-128236921D01*
X190014711Y-128066675D01*
X190014682Y-128066182D01*
X190001864Y-127905751D01*
X190001807Y-127905198D01*
X189983122Y-127754581D01*
X189983030Y-127753963D01*
X189958477Y-127613161D01*
X189958337Y-127612470D01*
X189927918Y-127481483D01*
X189927713Y-127480713D01*
X189891426Y-127359540D01*
X189891137Y-127358687D01*
X189848983Y-127247329D01*
X189848587Y-127246396D01*
X189800567Y-127144852D01*
X189800036Y-127143848D01*
X189751123Y-127060588D01*
X189913544Y-126898167D01*
X189967956Y-126969068D01*
G37*
X189967956Y-126969068D02*
X189969204Y-126970467D01*
X190045248Y-127043987D01*
X190046603Y-127045125D01*
X190135461Y-127109779D01*
X190136824Y-127110644D01*
X190238497Y-127166431D01*
X190239790Y-127167048D01*
X190354277Y-127213967D01*
X190355456Y-127214384D01*
X190482758Y-127252437D01*
X190483805Y-127252702D01*
X190623922Y-127281887D01*
X190624839Y-127282043D01*
X190777770Y-127302361D01*
X190778568Y-127302442D01*
X190944314Y-127313893D01*
X190945005Y-127313922D01*
X191113974Y-127316367D01*
X191514768Y-128808518D01*
X190022699Y-128407746D01*
X190021673Y-128237363D01*
X190021662Y-128236921D01*
X190014711Y-128066675D01*
X190014682Y-128066182D01*
X190001864Y-127905751D01*
X190001807Y-127905198D01*
X189983122Y-127754581D01*
X189983030Y-127753963D01*
X189958477Y-127613161D01*
X189958337Y-127612470D01*
X189927918Y-127481483D01*
X189927713Y-127480713D01*
X189891426Y-127359540D01*
X189891137Y-127358687D01*
X189848983Y-127247329D01*
X189848587Y-127246396D01*
X189800567Y-127144852D01*
X189800036Y-127143848D01*
X189751123Y-127060588D01*
X189913544Y-126898167D01*
X189967956Y-126969068D01*
G36*
X217081296Y-91295060D02*
G01*
X217082207Y-91327886D01*
X217082273Y-91328877D01*
X217086649Y-91370036D01*
X217086800Y-91371055D01*
X217094378Y-91411090D01*
X217094617Y-91412119D01*
X217105399Y-91451029D01*
X217105728Y-91452046D01*
X217119713Y-91489832D01*
X217120124Y-91490815D01*
X217137311Y-91527476D01*
X217137795Y-91528406D01*
X217158186Y-91563943D01*
X217158726Y-91564803D01*
X217182319Y-91599215D01*
X217182901Y-91599998D01*
X217209697Y-91633285D01*
X217210303Y-91633984D01*
X217231937Y-91657177D01*
X217069677Y-91819437D01*
X217046484Y-91797803D01*
X217045785Y-91797197D01*
X217012498Y-91770401D01*
X217011715Y-91769819D01*
X216977303Y-91746226D01*
X216976443Y-91745686D01*
X216940906Y-91725295D01*
X216939976Y-91724811D01*
X216903315Y-91707624D01*
X216902332Y-91707213D01*
X216864546Y-91693228D01*
X216863529Y-91692899D01*
X216824619Y-91682117D01*
X216823590Y-91681878D01*
X216783555Y-91674300D01*
X216782536Y-91674149D01*
X216741377Y-91669773D01*
X216740386Y-91669707D01*
X216707560Y-91668796D01*
X216570308Y-91157808D01*
X217081296Y-91295060D01*
G37*
X217081296Y-91295060D02*
X217082207Y-91327886D01*
X217082273Y-91328877D01*
X217086649Y-91370036D01*
X217086800Y-91371055D01*
X217094378Y-91411090D01*
X217094617Y-91412119D01*
X217105399Y-91451029D01*
X217105728Y-91452046D01*
X217119713Y-91489832D01*
X217120124Y-91490815D01*
X217137311Y-91527476D01*
X217137795Y-91528406D01*
X217158186Y-91563943D01*
X217158726Y-91564803D01*
X217182319Y-91599215D01*
X217182901Y-91599998D01*
X217209697Y-91633285D01*
X217210303Y-91633984D01*
X217231937Y-91657177D01*
X217069677Y-91819437D01*
X217046484Y-91797803D01*
X217045785Y-91797197D01*
X217012498Y-91770401D01*
X217011715Y-91769819D01*
X216977303Y-91746226D01*
X216976443Y-91745686D01*
X216940906Y-91725295D01*
X216939976Y-91724811D01*
X216903315Y-91707624D01*
X216902332Y-91707213D01*
X216864546Y-91693228D01*
X216863529Y-91692899D01*
X216824619Y-91682117D01*
X216823590Y-91681878D01*
X216783555Y-91674300D01*
X216782536Y-91674149D01*
X216741377Y-91669773D01*
X216740386Y-91669707D01*
X216707560Y-91668796D01*
X216570308Y-91157808D01*
X217081296Y-91295060D01*
G36*
X192062275Y-108725969D02*
G01*
X192063018Y-108726619D01*
X192201835Y-108838904D01*
X192202659Y-108839517D01*
X192347699Y-108938592D01*
X192348592Y-108939150D01*
X192499855Y-109025015D01*
X192500805Y-109025502D01*
X192658290Y-109098157D01*
X192659275Y-109098562D01*
X192822982Y-109158007D01*
X192823983Y-109158325D01*
X192993913Y-109204560D01*
X192994907Y-109204788D01*
X193171059Y-109237813D01*
X193172027Y-109237956D01*
X193354402Y-109257771D01*
X193355329Y-109257837D01*
X193531671Y-109264013D01*
X193531671Y-109493487D01*
X193355329Y-109499663D01*
X193354402Y-109499729D01*
X193172027Y-109519544D01*
X193171059Y-109519687D01*
X192994907Y-109552712D01*
X192993913Y-109552940D01*
X192823983Y-109599175D01*
X192822982Y-109599493D01*
X192659275Y-109658938D01*
X192658290Y-109659343D01*
X192500805Y-109731998D01*
X192499855Y-109732485D01*
X192348592Y-109818350D01*
X192347699Y-109818908D01*
X192202659Y-109917983D01*
X192201835Y-109918596D01*
X192063018Y-110030881D01*
X192062275Y-110031531D01*
X191936553Y-110150521D01*
X190597926Y-109378750D01*
X191936553Y-108606979D01*
X192062275Y-108725969D01*
G37*
X192062275Y-108725969D02*
X192063018Y-108726619D01*
X192201835Y-108838904D01*
X192202659Y-108839517D01*
X192347699Y-108938592D01*
X192348592Y-108939150D01*
X192499855Y-109025015D01*
X192500805Y-109025502D01*
X192658290Y-109098157D01*
X192659275Y-109098562D01*
X192822982Y-109158007D01*
X192823983Y-109158325D01*
X192993913Y-109204560D01*
X192994907Y-109204788D01*
X193171059Y-109237813D01*
X193172027Y-109237956D01*
X193354402Y-109257771D01*
X193355329Y-109257837D01*
X193531671Y-109264013D01*
X193531671Y-109493487D01*
X193355329Y-109499663D01*
X193354402Y-109499729D01*
X193172027Y-109519544D01*
X193171059Y-109519687D01*
X192994907Y-109552712D01*
X192993913Y-109552940D01*
X192823983Y-109599175D01*
X192822982Y-109599493D01*
X192659275Y-109658938D01*
X192658290Y-109659343D01*
X192500805Y-109731998D01*
X192499855Y-109732485D01*
X192348592Y-109818350D01*
X192347699Y-109818908D01*
X192202659Y-109917983D01*
X192201835Y-109918596D01*
X192063018Y-110030881D01*
X192062275Y-110031531D01*
X191936553Y-110150521D01*
X190597926Y-109378750D01*
X191936553Y-108606979D01*
X192062275Y-108725969D01*
%TO.N,col1*%
G36*
X210305913Y-107158420D02*
G01*
X210305979Y-107159347D01*
X210325794Y-107341722D01*
X210325937Y-107342690D01*
X210358962Y-107518842D01*
X210359190Y-107519836D01*
X210405425Y-107689766D01*
X210405743Y-107690767D01*
X210465188Y-107854474D01*
X210465593Y-107855459D01*
X210538248Y-108012944D01*
X210538735Y-108013894D01*
X210624600Y-108165157D01*
X210625158Y-108166050D01*
X210724233Y-108311090D01*
X210724846Y-108311914D01*
X210837131Y-108450731D01*
X210837781Y-108451474D01*
X210956771Y-108577197D01*
X210185000Y-109915824D01*
X209413229Y-108577197D01*
X209532219Y-108451474D01*
X209532869Y-108450731D01*
X209645154Y-108311914D01*
X209645767Y-108311090D01*
X209744842Y-108166050D01*
X209745400Y-108165157D01*
X209831265Y-108013894D01*
X209831752Y-108012944D01*
X209904407Y-107855459D01*
X209904812Y-107854474D01*
X209964257Y-107690767D01*
X209964575Y-107689766D01*
X210010810Y-107519836D01*
X210011038Y-107518842D01*
X210044063Y-107342690D01*
X210044206Y-107341722D01*
X210064021Y-107159347D01*
X210064087Y-107158420D01*
X210070263Y-106982079D01*
X210299737Y-106982079D01*
X210305913Y-107158420D01*
G37*
X210305913Y-107158420D02*
X210305979Y-107159347D01*
X210325794Y-107341722D01*
X210325937Y-107342690D01*
X210358962Y-107518842D01*
X210359190Y-107519836D01*
X210405425Y-107689766D01*
X210405743Y-107690767D01*
X210465188Y-107854474D01*
X210465593Y-107855459D01*
X210538248Y-108012944D01*
X210538735Y-108013894D01*
X210624600Y-108165157D01*
X210625158Y-108166050D01*
X210724233Y-108311090D01*
X210724846Y-108311914D01*
X210837131Y-108450731D01*
X210837781Y-108451474D01*
X210956771Y-108577197D01*
X210185000Y-109915824D01*
X209413229Y-108577197D01*
X209532219Y-108451474D01*
X209532869Y-108450731D01*
X209645154Y-108311914D01*
X209645767Y-108311090D01*
X209744842Y-108166050D01*
X209745400Y-108165157D01*
X209831265Y-108013894D01*
X209831752Y-108012944D01*
X209904407Y-107855459D01*
X209904812Y-107854474D01*
X209964257Y-107690767D01*
X209964575Y-107689766D01*
X210010810Y-107519836D01*
X210011038Y-107518842D01*
X210044063Y-107342690D01*
X210044206Y-107341722D01*
X210064021Y-107159347D01*
X210064087Y-107158420D01*
X210070263Y-106982079D01*
X210299737Y-106982079D01*
X210305913Y-107158420D01*
G36*
X217081466Y-90295103D02*
G01*
X217082974Y-90328111D01*
X217083124Y-90329558D01*
X217089779Y-90370717D01*
X217090100Y-90372162D01*
X217101477Y-90412197D01*
X217101958Y-90413580D01*
X217118057Y-90452490D01*
X217118669Y-90453764D01*
X217139490Y-90491550D01*
X217140193Y-90492681D01*
X217165736Y-90529342D01*
X217166487Y-90530316D01*
X217196752Y-90565853D01*
X217197515Y-90566673D01*
X217232502Y-90601085D01*
X217233249Y-90601764D01*
X217272958Y-90635051D01*
X217273670Y-90635606D01*
X217306036Y-90659034D01*
X217144206Y-90820864D01*
X217106223Y-90796409D01*
X217105720Y-90796101D01*
X217059519Y-90769305D01*
X217058962Y-90769001D01*
X217013157Y-90745408D01*
X217012544Y-90745112D01*
X216967132Y-90724721D01*
X216966460Y-90724442D01*
X216921444Y-90707255D01*
X216920712Y-90707001D01*
X216876090Y-90693016D01*
X216875300Y-90692796D01*
X216872530Y-90692121D01*
X216872468Y-90692095D01*
X216872232Y-90692048D01*
X216831072Y-90682014D01*
X216830228Y-90681839D01*
X216786395Y-90674261D01*
X216785504Y-90674139D01*
X216778798Y-90673463D01*
X216754096Y-90668550D01*
X216707495Y-90668550D01*
X216570308Y-90157805D01*
X217081466Y-90295103D01*
G37*
X217081466Y-90295103D02*
X217082974Y-90328111D01*
X217083124Y-90329558D01*
X217089779Y-90370717D01*
X217090100Y-90372162D01*
X217101477Y-90412197D01*
X217101958Y-90413580D01*
X217118057Y-90452490D01*
X217118669Y-90453764D01*
X217139490Y-90491550D01*
X217140193Y-90492681D01*
X217165736Y-90529342D01*
X217166487Y-90530316D01*
X217196752Y-90565853D01*
X217197515Y-90566673D01*
X217232502Y-90601085D01*
X217233249Y-90601764D01*
X217272958Y-90635051D01*
X217273670Y-90635606D01*
X217306036Y-90659034D01*
X217144206Y-90820864D01*
X217106223Y-90796409D01*
X217105720Y-90796101D01*
X217059519Y-90769305D01*
X217058962Y-90769001D01*
X217013157Y-90745408D01*
X217012544Y-90745112D01*
X216967132Y-90724721D01*
X216966460Y-90724442D01*
X216921444Y-90707255D01*
X216920712Y-90707001D01*
X216876090Y-90693016D01*
X216875300Y-90692796D01*
X216872530Y-90692121D01*
X216872468Y-90692095D01*
X216872232Y-90692048D01*
X216831072Y-90682014D01*
X216830228Y-90681839D01*
X216786395Y-90674261D01*
X216785504Y-90674139D01*
X216778798Y-90673463D01*
X216754096Y-90668550D01*
X216707495Y-90668550D01*
X216570308Y-90157805D01*
X217081466Y-90295103D01*
%TO.N,col2*%
G36*
X229355913Y-107158420D02*
G01*
X229355979Y-107159347D01*
X229375794Y-107341722D01*
X229375937Y-107342690D01*
X229408962Y-107518842D01*
X229409190Y-107519836D01*
X229455425Y-107689766D01*
X229455743Y-107690767D01*
X229515188Y-107854474D01*
X229515593Y-107855459D01*
X229588248Y-108012944D01*
X229588735Y-108013894D01*
X229674600Y-108165157D01*
X229675158Y-108166050D01*
X229774233Y-108311090D01*
X229774846Y-108311914D01*
X229887131Y-108450731D01*
X229887781Y-108451474D01*
X230006771Y-108577197D01*
X229235000Y-109915824D01*
X228463229Y-108577197D01*
X228582219Y-108451474D01*
X228582869Y-108450731D01*
X228695154Y-108311914D01*
X228695767Y-108311090D01*
X228794842Y-108166050D01*
X228795400Y-108165157D01*
X228881265Y-108013894D01*
X228881752Y-108012944D01*
X228954407Y-107855459D01*
X228954812Y-107854474D01*
X229014257Y-107690767D01*
X229014575Y-107689766D01*
X229060810Y-107519836D01*
X229061038Y-107518842D01*
X229094063Y-107342690D01*
X229094206Y-107341722D01*
X229114021Y-107159347D01*
X229114087Y-107158420D01*
X229120263Y-106982079D01*
X229349737Y-106982079D01*
X229355913Y-107158420D01*
G37*
X229355913Y-107158420D02*
X229355979Y-107159347D01*
X229375794Y-107341722D01*
X229375937Y-107342690D01*
X229408962Y-107518842D01*
X229409190Y-107519836D01*
X229455425Y-107689766D01*
X229455743Y-107690767D01*
X229515188Y-107854474D01*
X229515593Y-107855459D01*
X229588248Y-108012944D01*
X229588735Y-108013894D01*
X229674600Y-108165157D01*
X229675158Y-108166050D01*
X229774233Y-108311090D01*
X229774846Y-108311914D01*
X229887131Y-108450731D01*
X229887781Y-108451474D01*
X230006771Y-108577197D01*
X229235000Y-109915824D01*
X228463229Y-108577197D01*
X228582219Y-108451474D01*
X228582869Y-108450731D01*
X228695154Y-108311914D01*
X228695767Y-108311090D01*
X228794842Y-108166050D01*
X228795400Y-108165157D01*
X228881265Y-108013894D01*
X228881752Y-108012944D01*
X228954407Y-107855459D01*
X228954812Y-107854474D01*
X229014257Y-107690767D01*
X229014575Y-107689766D01*
X229060810Y-107519836D01*
X229061038Y-107518842D01*
X229094063Y-107342690D01*
X229094206Y-107341722D01*
X229114021Y-107159347D01*
X229114087Y-107158420D01*
X229120263Y-106982079D01*
X229349737Y-106982079D01*
X229355913Y-107158420D01*
G36*
X218329979Y-90265730D02*
G01*
X218330890Y-90298556D01*
X218330956Y-90299547D01*
X218335332Y-90340706D01*
X218335483Y-90341725D01*
X218343061Y-90381760D01*
X218343300Y-90382789D01*
X218354082Y-90421699D01*
X218354411Y-90422716D01*
X218368396Y-90460502D01*
X218368807Y-90461485D01*
X218385994Y-90498146D01*
X218386478Y-90499076D01*
X218406869Y-90534613D01*
X218407409Y-90535473D01*
X218431002Y-90569885D01*
X218431584Y-90570668D01*
X218458380Y-90603955D01*
X218458986Y-90604654D01*
X218480620Y-90627847D01*
X218318360Y-90790107D01*
X218295167Y-90768473D01*
X218294468Y-90767867D01*
X218261181Y-90741071D01*
X218260398Y-90740489D01*
X218225986Y-90716896D01*
X218225126Y-90716356D01*
X218189589Y-90695965D01*
X218188659Y-90695481D01*
X218151998Y-90678294D01*
X218151015Y-90677883D01*
X218113229Y-90663898D01*
X218112212Y-90663569D01*
X218073302Y-90652787D01*
X218072273Y-90652548D01*
X218032238Y-90644970D01*
X218031219Y-90644819D01*
X217990060Y-90640443D01*
X217989069Y-90640377D01*
X217956243Y-90639466D01*
X217818991Y-90128478D01*
X218329979Y-90265730D01*
G37*
X218329979Y-90265730D02*
X218330890Y-90298556D01*
X218330956Y-90299547D01*
X218335332Y-90340706D01*
X218335483Y-90341725D01*
X218343061Y-90381760D01*
X218343300Y-90382789D01*
X218354082Y-90421699D01*
X218354411Y-90422716D01*
X218368396Y-90460502D01*
X218368807Y-90461485D01*
X218385994Y-90498146D01*
X218386478Y-90499076D01*
X218406869Y-90534613D01*
X218407409Y-90535473D01*
X218431002Y-90569885D01*
X218431584Y-90570668D01*
X218458380Y-90603955D01*
X218458986Y-90604654D01*
X218480620Y-90627847D01*
X218318360Y-90790107D01*
X218295167Y-90768473D01*
X218294468Y-90767867D01*
X218261181Y-90741071D01*
X218260398Y-90740489D01*
X218225986Y-90716896D01*
X218225126Y-90716356D01*
X218189589Y-90695965D01*
X218188659Y-90695481D01*
X218151998Y-90678294D01*
X218151015Y-90677883D01*
X218113229Y-90663898D01*
X218112212Y-90663569D01*
X218073302Y-90652787D01*
X218072273Y-90652548D01*
X218032238Y-90644970D01*
X218031219Y-90644819D01*
X217990060Y-90640443D01*
X217989069Y-90640377D01*
X217956243Y-90639466D01*
X217818991Y-90128478D01*
X218329979Y-90265730D01*
%TO.N,row0*%
G36*
X232684587Y-112891571D02*
G01*
X232684652Y-112892493D01*
X232689242Y-112934978D01*
X232689384Y-112935943D01*
X232697034Y-112976959D01*
X232697261Y-112977950D01*
X232707971Y-113017496D01*
X232708286Y-113018495D01*
X232722056Y-113056572D01*
X232722460Y-113057558D01*
X232739290Y-113094165D01*
X232739777Y-113095116D01*
X232759667Y-113130253D01*
X232760225Y-113131150D01*
X232783175Y-113164818D01*
X232783790Y-113165645D01*
X232809800Y-113197844D01*
X232810453Y-113198592D01*
X232833022Y-113222448D01*
X232568750Y-113680824D01*
X232304478Y-113222448D01*
X232327046Y-113198592D01*
X232327699Y-113197844D01*
X232353709Y-113165645D01*
X232354324Y-113164818D01*
X232377274Y-113131150D01*
X232377832Y-113130253D01*
X232397722Y-113095116D01*
X232398209Y-113094165D01*
X232415039Y-113057558D01*
X232415443Y-113056572D01*
X232429213Y-113018495D01*
X232429528Y-113017496D01*
X232440238Y-112977950D01*
X232440465Y-112976959D01*
X232448115Y-112935943D01*
X232448257Y-112934978D01*
X232452847Y-112892493D01*
X232452912Y-112891571D01*
X232454015Y-112859874D01*
X232683484Y-112859874D01*
X232684587Y-112891571D01*
G37*
X232684587Y-112891571D02*
X232684652Y-112892493D01*
X232689242Y-112934978D01*
X232689384Y-112935943D01*
X232697034Y-112976959D01*
X232697261Y-112977950D01*
X232707971Y-113017496D01*
X232708286Y-113018495D01*
X232722056Y-113056572D01*
X232722460Y-113057558D01*
X232739290Y-113094165D01*
X232739777Y-113095116D01*
X232759667Y-113130253D01*
X232760225Y-113131150D01*
X232783175Y-113164818D01*
X232783790Y-113165645D01*
X232809800Y-113197844D01*
X232810453Y-113198592D01*
X232833022Y-113222448D01*
X232568750Y-113680824D01*
X232304478Y-113222448D01*
X232327046Y-113198592D01*
X232327699Y-113197844D01*
X232353709Y-113165645D01*
X232354324Y-113164818D01*
X232377274Y-113131150D01*
X232377832Y-113130253D01*
X232397722Y-113095116D01*
X232398209Y-113094165D01*
X232415039Y-113057558D01*
X232415443Y-113056572D01*
X232429213Y-113018495D01*
X232429528Y-113017496D01*
X232440238Y-112977950D01*
X232440465Y-112976959D01*
X232448115Y-112935943D01*
X232448257Y-112934978D01*
X232452847Y-112892493D01*
X232452912Y-112891571D01*
X232454015Y-112859874D01*
X232683484Y-112859874D01*
X232684587Y-112891571D01*
G36*
X218520969Y-89284136D02*
G01*
X218521885Y-89317921D01*
X218521942Y-89318832D01*
X218526318Y-89362890D01*
X218526433Y-89363750D01*
X218534011Y-89408616D01*
X218534174Y-89409419D01*
X218544956Y-89455093D01*
X218545154Y-89455834D01*
X218559139Y-89502317D01*
X218559365Y-89502996D01*
X218576552Y-89550285D01*
X218576795Y-89550904D01*
X218597186Y-89599002D01*
X218597440Y-89599563D01*
X218621033Y-89648469D01*
X218621293Y-89648977D01*
X218648089Y-89698691D01*
X218648348Y-89699149D01*
X218673309Y-89741186D01*
X218511648Y-89902847D01*
X218488074Y-89867401D01*
X218487561Y-89866685D01*
X218454274Y-89823463D01*
X218453635Y-89822698D01*
X218419223Y-89784610D01*
X218418435Y-89783811D01*
X218382898Y-89750860D01*
X218381940Y-89750056D01*
X218345279Y-89722239D01*
X218344138Y-89721467D01*
X218306352Y-89698786D01*
X218305036Y-89698098D01*
X218266126Y-89680553D01*
X218264666Y-89679999D01*
X218224631Y-89667589D01*
X218223082Y-89667214D01*
X218181923Y-89659939D01*
X218180354Y-89659761D01*
X218147296Y-89658089D01*
X218009986Y-89146885D01*
X218520969Y-89284136D01*
G37*
X218520969Y-89284136D02*
X218521885Y-89317921D01*
X218521942Y-89318832D01*
X218526318Y-89362890D01*
X218526433Y-89363750D01*
X218534011Y-89408616D01*
X218534174Y-89409419D01*
X218544956Y-89455093D01*
X218545154Y-89455834D01*
X218559139Y-89502317D01*
X218559365Y-89502996D01*
X218576552Y-89550285D01*
X218576795Y-89550904D01*
X218597186Y-89599002D01*
X218597440Y-89599563D01*
X218621033Y-89648469D01*
X218621293Y-89648977D01*
X218648089Y-89698691D01*
X218648348Y-89699149D01*
X218673309Y-89741186D01*
X218511648Y-89902847D01*
X218488074Y-89867401D01*
X218487561Y-89866685D01*
X218454274Y-89823463D01*
X218453635Y-89822698D01*
X218419223Y-89784610D01*
X218418435Y-89783811D01*
X218382898Y-89750860D01*
X218381940Y-89750056D01*
X218345279Y-89722239D01*
X218344138Y-89721467D01*
X218306352Y-89698786D01*
X218305036Y-89698098D01*
X218266126Y-89680553D01*
X218264666Y-89679999D01*
X218224631Y-89667589D01*
X218223082Y-89667214D01*
X218181923Y-89659939D01*
X218180354Y-89659761D01*
X218147296Y-89658089D01*
X218009986Y-89146885D01*
X218520969Y-89284136D01*
%TO.N,row1*%
G36*
X233684590Y-112891571D02*
G01*
X233684655Y-112892493D01*
X233689245Y-112934978D01*
X233689387Y-112935943D01*
X233697037Y-112976959D01*
X233697264Y-112977950D01*
X233707974Y-113017496D01*
X233708289Y-113018495D01*
X233722059Y-113056572D01*
X233722463Y-113057558D01*
X233739293Y-113094165D01*
X233739780Y-113095116D01*
X233759670Y-113130253D01*
X233760228Y-113131150D01*
X233783178Y-113164818D01*
X233783793Y-113165645D01*
X233809803Y-113197844D01*
X233810456Y-113198592D01*
X233833025Y-113222448D01*
X233568753Y-113680824D01*
X233304481Y-113222448D01*
X233327049Y-113198592D01*
X233327702Y-113197844D01*
X233353712Y-113165645D01*
X233354327Y-113164818D01*
X233377277Y-113131150D01*
X233377835Y-113130253D01*
X233397725Y-113095116D01*
X233398212Y-113094165D01*
X233415042Y-113057558D01*
X233415446Y-113056572D01*
X233429216Y-113018495D01*
X233429531Y-113017496D01*
X233440241Y-112977950D01*
X233440468Y-112976959D01*
X233448118Y-112935943D01*
X233448260Y-112934978D01*
X233452850Y-112892493D01*
X233452915Y-112891571D01*
X233454018Y-112859874D01*
X233683487Y-112859874D01*
X233684590Y-112891571D01*
G37*
X233684590Y-112891571D02*
X233684655Y-112892493D01*
X233689245Y-112934978D01*
X233689387Y-112935943D01*
X233697037Y-112976959D01*
X233697264Y-112977950D01*
X233707974Y-113017496D01*
X233708289Y-113018495D01*
X233722059Y-113056572D01*
X233722463Y-113057558D01*
X233739293Y-113094165D01*
X233739780Y-113095116D01*
X233759670Y-113130253D01*
X233760228Y-113131150D01*
X233783178Y-113164818D01*
X233783793Y-113165645D01*
X233809803Y-113197844D01*
X233810456Y-113198592D01*
X233833025Y-113222448D01*
X233568753Y-113680824D01*
X233304481Y-113222448D01*
X233327049Y-113198592D01*
X233327702Y-113197844D01*
X233353712Y-113165645D01*
X233354327Y-113164818D01*
X233377277Y-113131150D01*
X233377835Y-113130253D01*
X233397725Y-113095116D01*
X233398212Y-113094165D01*
X233415042Y-113057558D01*
X233415446Y-113056572D01*
X233429216Y-113018495D01*
X233429531Y-113017496D01*
X233440241Y-112977950D01*
X233440468Y-112976959D01*
X233448118Y-112935943D01*
X233448260Y-112934978D01*
X233452850Y-112892493D01*
X233452915Y-112891571D01*
X233454018Y-112859874D01*
X233683487Y-112859874D01*
X233684590Y-112891571D01*
G36*
X219462546Y-88913810D02*
G01*
X219463457Y-88946636D01*
X219463523Y-88947627D01*
X219467899Y-88988786D01*
X219468050Y-88989805D01*
X219475628Y-89029840D01*
X219475867Y-89030869D01*
X219486649Y-89069779D01*
X219486978Y-89070796D01*
X219500963Y-89108582D01*
X219501374Y-89109565D01*
X219518561Y-89146226D01*
X219519045Y-89147156D01*
X219539436Y-89182693D01*
X219539976Y-89183553D01*
X219563569Y-89217965D01*
X219564151Y-89218748D01*
X219590947Y-89252035D01*
X219591553Y-89252734D01*
X219613187Y-89275927D01*
X219450927Y-89438187D01*
X219427734Y-89416553D01*
X219427035Y-89415947D01*
X219393748Y-89389151D01*
X219392965Y-89388569D01*
X219358553Y-89364976D01*
X219357693Y-89364436D01*
X219322156Y-89344045D01*
X219321226Y-89343561D01*
X219284565Y-89326374D01*
X219283582Y-89325963D01*
X219245796Y-89311978D01*
X219244779Y-89311649D01*
X219205869Y-89300867D01*
X219204840Y-89300628D01*
X219164805Y-89293050D01*
X219163786Y-89292899D01*
X219122627Y-89288523D01*
X219121636Y-89288457D01*
X219088810Y-89287546D01*
X218951558Y-88776558D01*
X219462546Y-88913810D01*
G37*
X219462546Y-88913810D02*
X219463457Y-88946636D01*
X219463523Y-88947627D01*
X219467899Y-88988786D01*
X219468050Y-88989805D01*
X219475628Y-89029840D01*
X219475867Y-89030869D01*
X219486649Y-89069779D01*
X219486978Y-89070796D01*
X219500963Y-89108582D01*
X219501374Y-89109565D01*
X219518561Y-89146226D01*
X219519045Y-89147156D01*
X219539436Y-89182693D01*
X219539976Y-89183553D01*
X219563569Y-89217965D01*
X219564151Y-89218748D01*
X219590947Y-89252035D01*
X219591553Y-89252734D01*
X219613187Y-89275927D01*
X219450927Y-89438187D01*
X219427734Y-89416553D01*
X219427035Y-89415947D01*
X219393748Y-89389151D01*
X219392965Y-89388569D01*
X219358553Y-89364976D01*
X219357693Y-89364436D01*
X219322156Y-89344045D01*
X219321226Y-89343561D01*
X219284565Y-89326374D01*
X219283582Y-89325963D01*
X219245796Y-89311978D01*
X219244779Y-89311649D01*
X219205869Y-89300867D01*
X219204840Y-89300628D01*
X219164805Y-89293050D01*
X219163786Y-89292899D01*
X219122627Y-89288523D01*
X219121636Y-89288457D01*
X219088810Y-89287546D01*
X218951558Y-88776558D01*
X219462546Y-88913810D01*
%TO.N,col0*%
G36*
X191255913Y-126208420D02*
G01*
X191255979Y-126209347D01*
X191275794Y-126391722D01*
X191275937Y-126392690D01*
X191308962Y-126568842D01*
X191309190Y-126569836D01*
X191355425Y-126739766D01*
X191355743Y-126740767D01*
X191415188Y-126904474D01*
X191415593Y-126905459D01*
X191488248Y-127062944D01*
X191488735Y-127063894D01*
X191574600Y-127215157D01*
X191575158Y-127216050D01*
X191674233Y-127361090D01*
X191674846Y-127361914D01*
X191787131Y-127500731D01*
X191787781Y-127501474D01*
X191906771Y-127627197D01*
X191135000Y-128965824D01*
X190363229Y-127627197D01*
X190482219Y-127501474D01*
X190482869Y-127500731D01*
X190595154Y-127361914D01*
X190595767Y-127361090D01*
X190694842Y-127216050D01*
X190695400Y-127215157D01*
X190781265Y-127063894D01*
X190781752Y-127062944D01*
X190854407Y-126905459D01*
X190854812Y-126904474D01*
X190914257Y-126740767D01*
X190914575Y-126739766D01*
X190960810Y-126569836D01*
X190961038Y-126568842D01*
X190994063Y-126392690D01*
X190994206Y-126391722D01*
X191014021Y-126209347D01*
X191014087Y-126208420D01*
X191020263Y-126032079D01*
X191249737Y-126032079D01*
X191255913Y-126208420D01*
G37*
X191255913Y-126208420D02*
X191255979Y-126209347D01*
X191275794Y-126391722D01*
X191275937Y-126392690D01*
X191308962Y-126568842D01*
X191309190Y-126569836D01*
X191355425Y-126739766D01*
X191355743Y-126740767D01*
X191415188Y-126904474D01*
X191415593Y-126905459D01*
X191488248Y-127062944D01*
X191488735Y-127063894D01*
X191574600Y-127215157D01*
X191575158Y-127216050D01*
X191674233Y-127361090D01*
X191674846Y-127361914D01*
X191787131Y-127500731D01*
X191787781Y-127501474D01*
X191906771Y-127627197D01*
X191135000Y-128965824D01*
X190363229Y-127627197D01*
X190482219Y-127501474D01*
X190482869Y-127500731D01*
X190595154Y-127361914D01*
X190595767Y-127361090D01*
X190694842Y-127216050D01*
X190695400Y-127215157D01*
X190781265Y-127063894D01*
X190781752Y-127062944D01*
X190854407Y-126905459D01*
X190854812Y-126904474D01*
X190914257Y-126740767D01*
X190914575Y-126739766D01*
X190960810Y-126569836D01*
X190961038Y-126568842D01*
X190994063Y-126392690D01*
X190994206Y-126391722D01*
X191014021Y-126209347D01*
X191014087Y-126208420D01*
X191020263Y-126032079D01*
X191249737Y-126032079D01*
X191255913Y-126208420D01*
G36*
X191906771Y-110180303D02*
G01*
X191787781Y-110306025D01*
X191787131Y-110306768D01*
X191674846Y-110445585D01*
X191674233Y-110446409D01*
X191575158Y-110591449D01*
X191574600Y-110592342D01*
X191488735Y-110743605D01*
X191488248Y-110744555D01*
X191415593Y-110902040D01*
X191415188Y-110903025D01*
X191355743Y-111066732D01*
X191355425Y-111067733D01*
X191309190Y-111237663D01*
X191308962Y-111238657D01*
X191275937Y-111414809D01*
X191275794Y-111415777D01*
X191255979Y-111598152D01*
X191255913Y-111599079D01*
X191249737Y-111775421D01*
X191020263Y-111775421D01*
X191014087Y-111599079D01*
X191014021Y-111598152D01*
X190994206Y-111415777D01*
X190994063Y-111414809D01*
X190961038Y-111238657D01*
X190960810Y-111237663D01*
X190914575Y-111067733D01*
X190914257Y-111066732D01*
X190854812Y-110903025D01*
X190854407Y-110902040D01*
X190781752Y-110744555D01*
X190781265Y-110743605D01*
X190695400Y-110592342D01*
X190694842Y-110591449D01*
X190595767Y-110446409D01*
X190595154Y-110445585D01*
X190482869Y-110306768D01*
X190482219Y-110306025D01*
X190363229Y-110180303D01*
X191135000Y-108841676D01*
X191906771Y-110180303D01*
G37*
X191906771Y-110180303D02*
X191787781Y-110306025D01*
X191787131Y-110306768D01*
X191674846Y-110445585D01*
X191674233Y-110446409D01*
X191575158Y-110591449D01*
X191574600Y-110592342D01*
X191488735Y-110743605D01*
X191488248Y-110744555D01*
X191415593Y-110902040D01*
X191415188Y-110903025D01*
X191355743Y-111066732D01*
X191355425Y-111067733D01*
X191309190Y-111237663D01*
X191308962Y-111238657D01*
X191275937Y-111414809D01*
X191275794Y-111415777D01*
X191255979Y-111598152D01*
X191255913Y-111599079D01*
X191249737Y-111775421D01*
X191020263Y-111775421D01*
X191014087Y-111599079D01*
X191014021Y-111598152D01*
X190994206Y-111415777D01*
X190994063Y-111414809D01*
X190961038Y-111238657D01*
X190960810Y-111237663D01*
X190914575Y-111067733D01*
X190914257Y-111066732D01*
X190854812Y-110903025D01*
X190854407Y-110902040D01*
X190781752Y-110744555D01*
X190781265Y-110743605D01*
X190695400Y-110592342D01*
X190694842Y-110591449D01*
X190595767Y-110446409D01*
X190595154Y-110445585D01*
X190482869Y-110306768D01*
X190482219Y-110306025D01*
X190363229Y-110180303D01*
X191135000Y-108841676D01*
X191906771Y-110180303D01*
%TO.N,col1*%
G36*
X210305913Y-126208420D02*
G01*
X210305979Y-126209347D01*
X210325794Y-126391722D01*
X210325937Y-126392690D01*
X210358962Y-126568842D01*
X210359190Y-126569836D01*
X210405425Y-126739766D01*
X210405743Y-126740767D01*
X210465188Y-126904474D01*
X210465593Y-126905459D01*
X210538248Y-127062944D01*
X210538735Y-127063894D01*
X210624600Y-127215157D01*
X210625158Y-127216050D01*
X210724233Y-127361090D01*
X210724846Y-127361914D01*
X210837131Y-127500731D01*
X210837781Y-127501474D01*
X210956771Y-127627197D01*
X210185000Y-128965824D01*
X209413229Y-127627197D01*
X209532219Y-127501474D01*
X209532869Y-127500731D01*
X209645154Y-127361914D01*
X209645767Y-127361090D01*
X209744842Y-127216050D01*
X209745400Y-127215157D01*
X209831265Y-127063894D01*
X209831752Y-127062944D01*
X209904407Y-126905459D01*
X209904812Y-126904474D01*
X209964257Y-126740767D01*
X209964575Y-126739766D01*
X210010810Y-126569836D01*
X210011038Y-126568842D01*
X210044063Y-126392690D01*
X210044206Y-126391722D01*
X210064021Y-126209347D01*
X210064087Y-126208420D01*
X210070263Y-126032079D01*
X210299737Y-126032079D01*
X210305913Y-126208420D01*
G37*
X210305913Y-126208420D02*
X210305979Y-126209347D01*
X210325794Y-126391722D01*
X210325937Y-126392690D01*
X210358962Y-126568842D01*
X210359190Y-126569836D01*
X210405425Y-126739766D01*
X210405743Y-126740767D01*
X210465188Y-126904474D01*
X210465593Y-126905459D01*
X210538248Y-127062944D01*
X210538735Y-127063894D01*
X210624600Y-127215157D01*
X210625158Y-127216050D01*
X210724233Y-127361090D01*
X210724846Y-127361914D01*
X210837131Y-127500731D01*
X210837781Y-127501474D01*
X210956771Y-127627197D01*
X210185000Y-128965824D01*
X209413229Y-127627197D01*
X209532219Y-127501474D01*
X209532869Y-127500731D01*
X209645154Y-127361914D01*
X209645767Y-127361090D01*
X209744842Y-127216050D01*
X209745400Y-127215157D01*
X209831265Y-127063894D01*
X209831752Y-127062944D01*
X209904407Y-126905459D01*
X209904812Y-126904474D01*
X209964257Y-126740767D01*
X209964575Y-126739766D01*
X210010810Y-126569836D01*
X210011038Y-126568842D01*
X210044063Y-126392690D01*
X210044206Y-126391722D01*
X210064021Y-126209347D01*
X210064087Y-126208420D01*
X210070263Y-126032079D01*
X210299737Y-126032079D01*
X210305913Y-126208420D01*
G36*
X210956771Y-110180303D02*
G01*
X210837781Y-110306025D01*
X210837131Y-110306768D01*
X210724846Y-110445585D01*
X210724233Y-110446409D01*
X210625158Y-110591449D01*
X210624600Y-110592342D01*
X210538735Y-110743605D01*
X210538248Y-110744555D01*
X210465593Y-110902040D01*
X210465188Y-110903025D01*
X210405743Y-111066732D01*
X210405425Y-111067733D01*
X210359190Y-111237663D01*
X210358962Y-111238657D01*
X210325937Y-111414809D01*
X210325794Y-111415777D01*
X210305979Y-111598152D01*
X210305913Y-111599079D01*
X210299737Y-111775421D01*
X210070263Y-111775421D01*
X210064087Y-111599079D01*
X210064021Y-111598152D01*
X210044206Y-111415777D01*
X210044063Y-111414809D01*
X210011038Y-111238657D01*
X210010810Y-111237663D01*
X209964575Y-111067733D01*
X209964257Y-111066732D01*
X209904812Y-110903025D01*
X209904407Y-110902040D01*
X209831752Y-110744555D01*
X209831265Y-110743605D01*
X209745400Y-110592342D01*
X209744842Y-110591449D01*
X209645767Y-110446409D01*
X209645154Y-110445585D01*
X209532869Y-110306768D01*
X209532219Y-110306025D01*
X209413229Y-110180303D01*
X210185000Y-108841676D01*
X210956771Y-110180303D01*
G37*
X210956771Y-110180303D02*
X210837781Y-110306025D01*
X210837131Y-110306768D01*
X210724846Y-110445585D01*
X210724233Y-110446409D01*
X210625158Y-110591449D01*
X210624600Y-110592342D01*
X210538735Y-110743605D01*
X210538248Y-110744555D01*
X210465593Y-110902040D01*
X210465188Y-110903025D01*
X210405743Y-111066732D01*
X210405425Y-111067733D01*
X210359190Y-111237663D01*
X210358962Y-111238657D01*
X210325937Y-111414809D01*
X210325794Y-111415777D01*
X210305979Y-111598152D01*
X210305913Y-111599079D01*
X210299737Y-111775421D01*
X210070263Y-111775421D01*
X210064087Y-111599079D01*
X210064021Y-111598152D01*
X210044206Y-111415777D01*
X210044063Y-111414809D01*
X210011038Y-111238657D01*
X210010810Y-111237663D01*
X209964575Y-111067733D01*
X209964257Y-111066732D01*
X209904812Y-110903025D01*
X209904407Y-110902040D01*
X209831752Y-110744555D01*
X209831265Y-110743605D01*
X209745400Y-110592342D01*
X209744842Y-110591449D01*
X209645767Y-110446409D01*
X209645154Y-110445585D01*
X209532869Y-110306768D01*
X209532219Y-110306025D01*
X209413229Y-110180303D01*
X210185000Y-108841676D01*
X210956771Y-110180303D01*
%TO.N,col2*%
G36*
X229355913Y-126208420D02*
G01*
X229355979Y-126209347D01*
X229375794Y-126391722D01*
X229375937Y-126392690D01*
X229408962Y-126568842D01*
X229409190Y-126569836D01*
X229455425Y-126739766D01*
X229455743Y-126740767D01*
X229515188Y-126904474D01*
X229515593Y-126905459D01*
X229588248Y-127062944D01*
X229588735Y-127063894D01*
X229674600Y-127215157D01*
X229675158Y-127216050D01*
X229774233Y-127361090D01*
X229774846Y-127361914D01*
X229887131Y-127500731D01*
X229887781Y-127501474D01*
X230006771Y-127627197D01*
X229235000Y-128965824D01*
X228463229Y-127627197D01*
X228582219Y-127501474D01*
X228582869Y-127500731D01*
X228695154Y-127361914D01*
X228695767Y-127361090D01*
X228794842Y-127216050D01*
X228795400Y-127215157D01*
X228881265Y-127063894D01*
X228881752Y-127062944D01*
X228954407Y-126905459D01*
X228954812Y-126904474D01*
X229014257Y-126740767D01*
X229014575Y-126739766D01*
X229060810Y-126569836D01*
X229061038Y-126568842D01*
X229094063Y-126392690D01*
X229094206Y-126391722D01*
X229114021Y-126209347D01*
X229114087Y-126208420D01*
X229120263Y-126032079D01*
X229349737Y-126032079D01*
X229355913Y-126208420D01*
G37*
X229355913Y-126208420D02*
X229355979Y-126209347D01*
X229375794Y-126391722D01*
X229375937Y-126392690D01*
X229408962Y-126568842D01*
X229409190Y-126569836D01*
X229455425Y-126739766D01*
X229455743Y-126740767D01*
X229515188Y-126904474D01*
X229515593Y-126905459D01*
X229588248Y-127062944D01*
X229588735Y-127063894D01*
X229674600Y-127215157D01*
X229675158Y-127216050D01*
X229774233Y-127361090D01*
X229774846Y-127361914D01*
X229887131Y-127500731D01*
X229887781Y-127501474D01*
X230006771Y-127627197D01*
X229235000Y-128965824D01*
X228463229Y-127627197D01*
X228582219Y-127501474D01*
X228582869Y-127500731D01*
X228695154Y-127361914D01*
X228695767Y-127361090D01*
X228794842Y-127216050D01*
X228795400Y-127215157D01*
X228881265Y-127063894D01*
X228881752Y-127062944D01*
X228954407Y-126905459D01*
X228954812Y-126904474D01*
X229014257Y-126740767D01*
X229014575Y-126739766D01*
X229060810Y-126569836D01*
X229061038Y-126568842D01*
X229094063Y-126392690D01*
X229094206Y-126391722D01*
X229114021Y-126209347D01*
X229114087Y-126208420D01*
X229120263Y-126032079D01*
X229349737Y-126032079D01*
X229355913Y-126208420D01*
G36*
X230006771Y-110180303D02*
G01*
X229887781Y-110306025D01*
X229887131Y-110306768D01*
X229774846Y-110445585D01*
X229774233Y-110446409D01*
X229675158Y-110591449D01*
X229674600Y-110592342D01*
X229588735Y-110743605D01*
X229588248Y-110744555D01*
X229515593Y-110902040D01*
X229515188Y-110903025D01*
X229455743Y-111066732D01*
X229455425Y-111067733D01*
X229409190Y-111237663D01*
X229408962Y-111238657D01*
X229375937Y-111414809D01*
X229375794Y-111415777D01*
X229355979Y-111598152D01*
X229355913Y-111599079D01*
X229349737Y-111775421D01*
X229120263Y-111775421D01*
X229114087Y-111599079D01*
X229114021Y-111598152D01*
X229094206Y-111415777D01*
X229094063Y-111414809D01*
X229061038Y-111238657D01*
X229060810Y-111237663D01*
X229014575Y-111067733D01*
X229014257Y-111066732D01*
X228954812Y-110903025D01*
X228954407Y-110902040D01*
X228881752Y-110744555D01*
X228881265Y-110743605D01*
X228795400Y-110592342D01*
X228794842Y-110591449D01*
X228695767Y-110446409D01*
X228695154Y-110445585D01*
X228582869Y-110306768D01*
X228582219Y-110306025D01*
X228463229Y-110180303D01*
X229235000Y-108841676D01*
X230006771Y-110180303D01*
G37*
X230006771Y-110180303D02*
X229887781Y-110306025D01*
X229887131Y-110306768D01*
X229774846Y-110445585D01*
X229774233Y-110446409D01*
X229675158Y-110591449D01*
X229674600Y-110592342D01*
X229588735Y-110743605D01*
X229588248Y-110744555D01*
X229515593Y-110902040D01*
X229515188Y-110903025D01*
X229455743Y-111066732D01*
X229455425Y-111067733D01*
X229409190Y-111237663D01*
X229408962Y-111238657D01*
X229375937Y-111414809D01*
X229375794Y-111415777D01*
X229355979Y-111598152D01*
X229355913Y-111599079D01*
X229349737Y-111775421D01*
X229120263Y-111775421D01*
X229114087Y-111599079D01*
X229114021Y-111598152D01*
X229094206Y-111415777D01*
X229094063Y-111414809D01*
X229061038Y-111238657D01*
X229060810Y-111237663D01*
X229014575Y-111067733D01*
X229014257Y-111066732D01*
X228954812Y-110903025D01*
X228954407Y-110902040D01*
X228881752Y-110744555D01*
X228881265Y-110743605D01*
X228795400Y-110592342D01*
X228794842Y-110591449D01*
X228695767Y-110446409D01*
X228695154Y-110445585D01*
X228582869Y-110306768D01*
X228582219Y-110306025D01*
X228463229Y-110180303D01*
X229235000Y-108841676D01*
X230006771Y-110180303D01*
%TD*%
M02*
