%TF.GenerationSoftware,KiCad,Pcbnew,(5.1.6)-1*%
%TF.CreationDate,2020-07-11T20:12:46-04:00*%
%TF.ProjectId,4x5,3478352e-6b69-4636-9164-5f7063625858,rev?*%
%TF.SameCoordinates,Original*%
%TF.FileFunction,Legend,Top*%
%TF.FilePolarity,Positive*%
%FSLAX46Y46*%
G04 Gerber Fmt 4.6, Leading zero omitted, Abs format (unit mm)*
G04 Created by KiCad (PCBNEW (5.1.6)-1) date 2020-07-11 20:12:46*
%MOMM*%
%LPD*%
G01*
G04 APERTURE LIST*
%ADD10C,0.120000*%
%ADD11C,0.150000*%
G04 APERTURE END LIST*
D10*
%TO.C,R6*%
X207252500Y-91539828D02*
X207252500Y-91022672D01*
X208672500Y-91539828D02*
X208672500Y-91022672D01*
%TO.C,R5*%
X203264700Y-91571578D02*
X203264700Y-91054422D01*
X204684700Y-91571578D02*
X204684700Y-91054422D01*
%TO.C,F1*%
X211564900Y-94381236D02*
X211564900Y-95585364D01*
X209744900Y-94381236D02*
X209744900Y-95585364D01*
%TO.C,D6*%
X216487500Y-132487500D02*
X218487500Y-132487500D01*
X218487500Y-132487500D02*
X218487500Y-128587500D01*
X216487500Y-132487500D02*
X216487500Y-128587500D01*
%TO.C,D5*%
X197437500Y-132487500D02*
X199437500Y-132487500D01*
X199437500Y-132487500D02*
X199437500Y-128587500D01*
X197437500Y-132487500D02*
X197437500Y-128587500D01*
%TO.C,D4*%
X178387500Y-132425000D02*
X180387500Y-132425000D01*
X180387500Y-132425000D02*
X180387500Y-128525000D01*
X178387500Y-132425000D02*
X178387500Y-128525000D01*
%TO.C,D3*%
X216487500Y-113375000D02*
X218487500Y-113375000D01*
X218487500Y-113375000D02*
X218487500Y-109475000D01*
X216487500Y-113375000D02*
X216487500Y-109475000D01*
%TO.C,D2*%
X197437500Y-113437500D02*
X199437500Y-113437500D01*
X199437500Y-113437500D02*
X199437500Y-109537500D01*
X197437500Y-113437500D02*
X197437500Y-109537500D01*
%TO.C,D1*%
X178387500Y-113437500D02*
X180387500Y-113437500D01*
X180387500Y-113437500D02*
X180387500Y-109537500D01*
X178387500Y-113437500D02*
X178387500Y-109537500D01*
D11*
%TO.C,U1*%
X223043750Y-102568555D02*
X223450336Y-102161969D01*
X215725195Y-95250000D02*
X216202492Y-94772703D01*
X223043750Y-87931445D02*
X222566453Y-88408742D01*
X230362305Y-95250000D02*
X229885008Y-95727297D01*
X223043750Y-102568555D02*
X222566453Y-102091258D01*
X230362305Y-95250000D02*
X229885008Y-94772703D01*
X223043750Y-87931445D02*
X223521047Y-88408742D01*
X215725195Y-95250000D02*
X216202492Y-95727297D01*
X223450336Y-102161969D02*
X224351898Y-103063530D01*
D10*
%TO.C,Y1*%
X231781250Y-86412500D02*
X228481250Y-86412500D01*
X228481250Y-86412500D02*
X228481250Y-90412500D01*
D11*
%TO.C,SW1*%
X200231250Y-98425000D02*
G75*
G03*
X200231250Y-98425000I-1000000J0D01*
G01*
X201831250Y-95825000D02*
X201831250Y-101025000D01*
X196631250Y-95825000D02*
X201831250Y-95825000D01*
X196631250Y-101025000D02*
X196631250Y-95825000D01*
X201831250Y-101025000D02*
X196631250Y-101025000D01*
D10*
%TO.C,R4*%
X233397388Y-98744204D02*
X233031704Y-99109888D01*
X232393296Y-97740112D02*
X232027612Y-98105796D01*
%TO.C,R3*%
X204077500Y-97239828D02*
X204077500Y-96722672D01*
X205497500Y-97239828D02*
X205497500Y-96722672D01*
%TO.C,R2*%
X206033300Y-97225378D02*
X206033300Y-96708222D01*
X207453300Y-97225378D02*
X207453300Y-96708222D01*
%TO.C,R1*%
X213707117Y-90465525D02*
X214072801Y-90831209D01*
X212703025Y-91469617D02*
X213068709Y-91835301D01*
%TO.C,C7*%
X217622983Y-102930075D02*
X217257299Y-102564391D01*
X218627075Y-101925983D02*
X218261391Y-101560299D01*
%TO.C,C6*%
X218533862Y-85405796D02*
X218899546Y-85040112D01*
X219537954Y-86409888D02*
X219903638Y-86044204D01*
%TO.C,C5*%
X214494517Y-98517325D02*
X214860201Y-98883009D01*
X213490425Y-99521417D02*
X213856109Y-99887101D01*
%TO.C,C4*%
X232576804Y-92444212D02*
X232942488Y-92809896D01*
X231572712Y-93448304D02*
X231938396Y-93813988D01*
%TO.C,C3*%
X232258800Y-89008478D02*
X232258800Y-88491322D01*
X233678800Y-89008478D02*
X233678800Y-88491322D01*
%TO.C,C2*%
X229888522Y-84405400D02*
X230405678Y-84405400D01*
X229888522Y-85825400D02*
X230405678Y-85825400D01*
%TO.C,C1*%
X229945288Y-101233404D02*
X229579604Y-101599088D01*
X228941196Y-100229312D02*
X228575512Y-100594996D01*
%TO.C,USB1*%
D11*
X204548004Y-88051980D02*
X204548004Y-88861504D01*
X204595623Y-88956742D01*
X204643242Y-89004361D01*
X204738480Y-89051980D01*
X204928957Y-89051980D01*
X205024195Y-89004361D01*
X205071814Y-88956742D01*
X205119433Y-88861504D01*
X205119433Y-88051980D01*
X205548004Y-89004361D02*
X205690861Y-89051980D01*
X205928957Y-89051980D01*
X206024195Y-89004361D01*
X206071814Y-88956742D01*
X206119433Y-88861504D01*
X206119433Y-88766266D01*
X206071814Y-88671028D01*
X206024195Y-88623409D01*
X205928957Y-88575790D01*
X205738480Y-88528171D01*
X205643242Y-88480552D01*
X205595623Y-88432933D01*
X205548004Y-88337695D01*
X205548004Y-88242457D01*
X205595623Y-88147219D01*
X205643242Y-88099600D01*
X205738480Y-88051980D01*
X205976576Y-88051980D01*
X206119433Y-88099600D01*
X206881338Y-88528171D02*
X207024195Y-88575790D01*
X207071814Y-88623409D01*
X207119433Y-88718647D01*
X207119433Y-88861504D01*
X207071814Y-88956742D01*
X207024195Y-89004361D01*
X206928957Y-89051980D01*
X206548004Y-89051980D01*
X206548004Y-88051980D01*
X206881338Y-88051980D01*
X206976576Y-88099600D01*
X207024195Y-88147219D01*
X207071814Y-88242457D01*
X207071814Y-88337695D01*
X207024195Y-88432933D01*
X206976576Y-88480552D01*
X206881338Y-88528171D01*
X206548004Y-88528171D01*
X208071814Y-89051980D02*
X207500385Y-89051980D01*
X207786100Y-89051980D02*
X207786100Y-88051980D01*
X207690861Y-88194838D01*
X207595623Y-88290076D01*
X207500385Y-88337695D01*
%TO.C,R6*%
X210002380Y-91447916D02*
X209526190Y-91781250D01*
X210002380Y-92019345D02*
X209002380Y-92019345D01*
X209002380Y-91638392D01*
X209050000Y-91543154D01*
X209097619Y-91495535D01*
X209192857Y-91447916D01*
X209335714Y-91447916D01*
X209430952Y-91495535D01*
X209478571Y-91543154D01*
X209526190Y-91638392D01*
X209526190Y-92019345D01*
X209002380Y-90590773D02*
X209002380Y-90781250D01*
X209050000Y-90876488D01*
X209097619Y-90924107D01*
X209240476Y-91019345D01*
X209430952Y-91066964D01*
X209811904Y-91066964D01*
X209907142Y-91019345D01*
X209954761Y-90971726D01*
X210002380Y-90876488D01*
X210002380Y-90686011D01*
X209954761Y-90590773D01*
X209907142Y-90543154D01*
X209811904Y-90495535D01*
X209573809Y-90495535D01*
X209478571Y-90543154D01*
X209430952Y-90590773D01*
X209383333Y-90686011D01*
X209383333Y-90876488D01*
X209430952Y-90971726D01*
X209478571Y-91019345D01*
X209573809Y-91066964D01*
%TO.C,R5*%
X204427080Y-91479666D02*
X203950890Y-91813000D01*
X204427080Y-92051095D02*
X203427080Y-92051095D01*
X203427080Y-91670142D01*
X203474700Y-91574904D01*
X203522319Y-91527285D01*
X203617557Y-91479666D01*
X203760414Y-91479666D01*
X203855652Y-91527285D01*
X203903271Y-91574904D01*
X203950890Y-91670142D01*
X203950890Y-92051095D01*
X203427080Y-90574904D02*
X203427080Y-91051095D01*
X203903271Y-91098714D01*
X203855652Y-91051095D01*
X203808033Y-90955857D01*
X203808033Y-90717761D01*
X203855652Y-90622523D01*
X203903271Y-90574904D01*
X203998509Y-90527285D01*
X204236604Y-90527285D01*
X204331842Y-90574904D01*
X204379461Y-90622523D01*
X204427080Y-90717761D01*
X204427080Y-90955857D01*
X204379461Y-91051095D01*
X204331842Y-91098714D01*
%TO.C,F1*%
X210583471Y-95316633D02*
X210583471Y-95649966D01*
X211107280Y-95649966D02*
X210107280Y-95649966D01*
X210107280Y-95173776D01*
X211107280Y-94269014D02*
X211107280Y-94840442D01*
X211107280Y-94554728D02*
X210107280Y-94554728D01*
X210250138Y-94649966D01*
X210345376Y-94745204D01*
X210392995Y-94840442D01*
%TO.C,D6*%
X215939880Y-130975595D02*
X214939880Y-130975595D01*
X214939880Y-130737500D01*
X214987500Y-130594642D01*
X215082738Y-130499404D01*
X215177976Y-130451785D01*
X215368452Y-130404166D01*
X215511309Y-130404166D01*
X215701785Y-130451785D01*
X215797023Y-130499404D01*
X215892261Y-130594642D01*
X215939880Y-130737500D01*
X215939880Y-130975595D01*
X214939880Y-129547023D02*
X214939880Y-129737500D01*
X214987500Y-129832738D01*
X215035119Y-129880357D01*
X215177976Y-129975595D01*
X215368452Y-130023214D01*
X215749404Y-130023214D01*
X215844642Y-129975595D01*
X215892261Y-129927976D01*
X215939880Y-129832738D01*
X215939880Y-129642261D01*
X215892261Y-129547023D01*
X215844642Y-129499404D01*
X215749404Y-129451785D01*
X215511309Y-129451785D01*
X215416071Y-129499404D01*
X215368452Y-129547023D01*
X215320833Y-129642261D01*
X215320833Y-129832738D01*
X215368452Y-129927976D01*
X215416071Y-129975595D01*
X215511309Y-130023214D01*
%TO.C,D5*%
X196889880Y-130975595D02*
X195889880Y-130975595D01*
X195889880Y-130737500D01*
X195937500Y-130594642D01*
X196032738Y-130499404D01*
X196127976Y-130451785D01*
X196318452Y-130404166D01*
X196461309Y-130404166D01*
X196651785Y-130451785D01*
X196747023Y-130499404D01*
X196842261Y-130594642D01*
X196889880Y-130737500D01*
X196889880Y-130975595D01*
X195889880Y-129499404D02*
X195889880Y-129975595D01*
X196366071Y-130023214D01*
X196318452Y-129975595D01*
X196270833Y-129880357D01*
X196270833Y-129642261D01*
X196318452Y-129547023D01*
X196366071Y-129499404D01*
X196461309Y-129451785D01*
X196699404Y-129451785D01*
X196794642Y-129499404D01*
X196842261Y-129547023D01*
X196889880Y-129642261D01*
X196889880Y-129880357D01*
X196842261Y-129975595D01*
X196794642Y-130023214D01*
%TO.C,D4*%
X177839880Y-130913095D02*
X176839880Y-130913095D01*
X176839880Y-130675000D01*
X176887500Y-130532142D01*
X176982738Y-130436904D01*
X177077976Y-130389285D01*
X177268452Y-130341666D01*
X177411309Y-130341666D01*
X177601785Y-130389285D01*
X177697023Y-130436904D01*
X177792261Y-130532142D01*
X177839880Y-130675000D01*
X177839880Y-130913095D01*
X177173214Y-129484523D02*
X177839880Y-129484523D01*
X176792261Y-129722619D02*
X177506547Y-129960714D01*
X177506547Y-129341666D01*
%TO.C,D3*%
X215939880Y-111863095D02*
X214939880Y-111863095D01*
X214939880Y-111625000D01*
X214987500Y-111482142D01*
X215082738Y-111386904D01*
X215177976Y-111339285D01*
X215368452Y-111291666D01*
X215511309Y-111291666D01*
X215701785Y-111339285D01*
X215797023Y-111386904D01*
X215892261Y-111482142D01*
X215939880Y-111625000D01*
X215939880Y-111863095D01*
X214939880Y-110958333D02*
X214939880Y-110339285D01*
X215320833Y-110672619D01*
X215320833Y-110529761D01*
X215368452Y-110434523D01*
X215416071Y-110386904D01*
X215511309Y-110339285D01*
X215749404Y-110339285D01*
X215844642Y-110386904D01*
X215892261Y-110434523D01*
X215939880Y-110529761D01*
X215939880Y-110815476D01*
X215892261Y-110910714D01*
X215844642Y-110958333D01*
%TO.C,D2*%
X196889880Y-111925595D02*
X195889880Y-111925595D01*
X195889880Y-111687500D01*
X195937500Y-111544642D01*
X196032738Y-111449404D01*
X196127976Y-111401785D01*
X196318452Y-111354166D01*
X196461309Y-111354166D01*
X196651785Y-111401785D01*
X196747023Y-111449404D01*
X196842261Y-111544642D01*
X196889880Y-111687500D01*
X196889880Y-111925595D01*
X195985119Y-110973214D02*
X195937500Y-110925595D01*
X195889880Y-110830357D01*
X195889880Y-110592261D01*
X195937500Y-110497023D01*
X195985119Y-110449404D01*
X196080357Y-110401785D01*
X196175595Y-110401785D01*
X196318452Y-110449404D01*
X196889880Y-111020833D01*
X196889880Y-110401785D01*
%TO.C,D1*%
X177839880Y-111925595D02*
X176839880Y-111925595D01*
X176839880Y-111687500D01*
X176887500Y-111544642D01*
X176982738Y-111449404D01*
X177077976Y-111401785D01*
X177268452Y-111354166D01*
X177411309Y-111354166D01*
X177601785Y-111401785D01*
X177697023Y-111449404D01*
X177792261Y-111544642D01*
X177839880Y-111687500D01*
X177839880Y-111925595D01*
X177839880Y-110401785D02*
X177839880Y-110973214D01*
X177839880Y-110687500D02*
X176839880Y-110687500D01*
X176982738Y-110782738D01*
X177077976Y-110877976D01*
X177125595Y-110973214D01*
%TO.C,U1*%
X222281845Y-91527380D02*
X222281845Y-92336904D01*
X222329464Y-92432142D01*
X222377083Y-92479761D01*
X222472321Y-92527380D01*
X222662797Y-92527380D01*
X222758035Y-92479761D01*
X222805654Y-92432142D01*
X222853273Y-92336904D01*
X222853273Y-91527380D01*
X223853273Y-92527380D02*
X223281845Y-92527380D01*
X223567559Y-92527380D02*
X223567559Y-91527380D01*
X223472321Y-91670238D01*
X223377083Y-91765476D01*
X223281845Y-91813095D01*
%TO.C,Y1*%
X229973190Y-88830090D02*
X230449380Y-88830090D01*
X229449380Y-89163423D02*
X229973190Y-88830090D01*
X229449380Y-88496757D01*
X230449380Y-87639614D02*
X230449380Y-88211042D01*
X230449380Y-87925328D02*
X229449380Y-87925328D01*
X229592238Y-88020566D01*
X229687476Y-88115804D01*
X229735095Y-88211042D01*
%TO.C,SW1*%
X197897916Y-94765761D02*
X198040773Y-94813380D01*
X198278869Y-94813380D01*
X198374107Y-94765761D01*
X198421726Y-94718142D01*
X198469345Y-94622904D01*
X198469345Y-94527666D01*
X198421726Y-94432428D01*
X198374107Y-94384809D01*
X198278869Y-94337190D01*
X198088392Y-94289571D01*
X197993154Y-94241952D01*
X197945535Y-94194333D01*
X197897916Y-94099095D01*
X197897916Y-94003857D01*
X197945535Y-93908619D01*
X197993154Y-93861000D01*
X198088392Y-93813380D01*
X198326488Y-93813380D01*
X198469345Y-93861000D01*
X198802678Y-93813380D02*
X199040773Y-94813380D01*
X199231250Y-94099095D01*
X199421726Y-94813380D01*
X199659821Y-93813380D01*
X200564583Y-94813380D02*
X199993154Y-94813380D01*
X200278869Y-94813380D02*
X200278869Y-93813380D01*
X200183630Y-93956238D01*
X200088392Y-94051476D01*
X199993154Y-94099095D01*
%TO.C,R4*%
X232954930Y-98850032D02*
X232382510Y-98749017D01*
X232550869Y-99254093D02*
X231843762Y-98546987D01*
X232113136Y-98277612D01*
X232214151Y-98243941D01*
X232281495Y-98243941D01*
X232382510Y-98277612D01*
X232483525Y-98378628D01*
X232517197Y-98479643D01*
X232517197Y-98546987D01*
X232483525Y-98648002D01*
X232214151Y-98917376D01*
X233089617Y-97772536D02*
X233561022Y-98243941D01*
X232651884Y-97671521D02*
X232988602Y-98344956D01*
X233426335Y-97907223D01*
%TO.C,R3*%
X205267820Y-97204826D02*
X204791630Y-97538160D01*
X205267820Y-97776255D02*
X204267820Y-97776255D01*
X204267820Y-97395302D01*
X204315440Y-97300064D01*
X204363059Y-97252445D01*
X204458297Y-97204826D01*
X204601154Y-97204826D01*
X204696392Y-97252445D01*
X204744011Y-97300064D01*
X204791630Y-97395302D01*
X204791630Y-97776255D01*
X204267820Y-96871493D02*
X204267820Y-96252445D01*
X204648773Y-96585779D01*
X204648773Y-96442921D01*
X204696392Y-96347683D01*
X204744011Y-96300064D01*
X204839249Y-96252445D01*
X205077344Y-96252445D01*
X205172582Y-96300064D01*
X205220201Y-96347683D01*
X205267820Y-96442921D01*
X205267820Y-96728636D01*
X205220201Y-96823874D01*
X205172582Y-96871493D01*
%TO.C,R2*%
X207170280Y-97093066D02*
X206694090Y-97426400D01*
X207170280Y-97664495D02*
X206170280Y-97664495D01*
X206170280Y-97283542D01*
X206217900Y-97188304D01*
X206265519Y-97140685D01*
X206360757Y-97093066D01*
X206503614Y-97093066D01*
X206598852Y-97140685D01*
X206646471Y-97188304D01*
X206694090Y-97283542D01*
X206694090Y-97664495D01*
X206265519Y-96712114D02*
X206217900Y-96664495D01*
X206170280Y-96569257D01*
X206170280Y-96331161D01*
X206217900Y-96235923D01*
X206265519Y-96188304D01*
X206360757Y-96140685D01*
X206455995Y-96140685D01*
X206598852Y-96188304D01*
X207170280Y-96759733D01*
X207170280Y-96140685D01*
%TO.C,R1*%
X212973067Y-91464230D02*
X213074082Y-90891810D01*
X212569006Y-91060169D02*
X213276112Y-90353062D01*
X213545487Y-90622436D01*
X213579158Y-90723451D01*
X213579158Y-90790795D01*
X213545487Y-90891810D01*
X213444471Y-90992825D01*
X213343456Y-91026497D01*
X213276112Y-91026497D01*
X213175097Y-90992825D01*
X212905723Y-90723451D01*
X213646502Y-92137665D02*
X213242441Y-91733604D01*
X213444471Y-91935635D02*
X214151578Y-91228528D01*
X213983219Y-91262200D01*
X213848532Y-91262200D01*
X213747517Y-91228528D01*
%TO.C,C7*%
X217409210Y-102395087D02*
X217341867Y-102395087D01*
X217207180Y-102327743D01*
X217139836Y-102260400D01*
X217072493Y-102125712D01*
X217072493Y-101991025D01*
X217106164Y-101890010D01*
X217207180Y-101721651D01*
X217308195Y-101620636D01*
X217476554Y-101519621D01*
X217577569Y-101485949D01*
X217712256Y-101485949D01*
X217846943Y-101553293D01*
X217914287Y-101620636D01*
X217981630Y-101755323D01*
X217981630Y-101822667D01*
X218284676Y-101991025D02*
X218756080Y-102462430D01*
X217745928Y-102866491D01*
%TO.C,C6*%
X219476387Y-86133489D02*
X219476387Y-86200832D01*
X219409043Y-86335519D01*
X219341700Y-86402863D01*
X219207012Y-86470206D01*
X219072325Y-86470206D01*
X218971310Y-86436535D01*
X218802951Y-86335519D01*
X218701936Y-86234504D01*
X218600921Y-86066145D01*
X218567249Y-85965130D01*
X218567249Y-85830443D01*
X218634593Y-85695756D01*
X218701936Y-85628412D01*
X218836623Y-85561069D01*
X218903967Y-85561069D01*
X219442715Y-84887634D02*
X219308028Y-85022321D01*
X219274356Y-85123336D01*
X219274356Y-85190680D01*
X219308028Y-85359038D01*
X219409043Y-85527397D01*
X219678417Y-85796771D01*
X219779432Y-85830443D01*
X219846776Y-85830443D01*
X219947791Y-85796771D01*
X220082478Y-85662084D01*
X220116150Y-85561069D01*
X220116150Y-85493725D01*
X220082478Y-85392710D01*
X219914119Y-85224351D01*
X219813104Y-85190680D01*
X219745761Y-85190680D01*
X219644745Y-85224351D01*
X219510058Y-85359038D01*
X219476387Y-85460054D01*
X219476387Y-85527397D01*
X219510058Y-85628412D01*
%TO.C,C5*%
X213713510Y-99550287D02*
X213646167Y-99550287D01*
X213511480Y-99482943D01*
X213444136Y-99415600D01*
X213376793Y-99280912D01*
X213376793Y-99146225D01*
X213410464Y-99045210D01*
X213511480Y-98876851D01*
X213612495Y-98775836D01*
X213780854Y-98674821D01*
X213881869Y-98641149D01*
X214016556Y-98641149D01*
X214151243Y-98708493D01*
X214218587Y-98775836D01*
X214285930Y-98910523D01*
X214285930Y-98977867D01*
X214993037Y-99550287D02*
X214656319Y-99213569D01*
X214285930Y-99516615D01*
X214353274Y-99516615D01*
X214454289Y-99550287D01*
X214622648Y-99718645D01*
X214656319Y-99819661D01*
X214656319Y-99887004D01*
X214622648Y-99988019D01*
X214454289Y-100156378D01*
X214353274Y-100190050D01*
X214285930Y-100190050D01*
X214184915Y-100156378D01*
X214016556Y-99988019D01*
X213982884Y-99887004D01*
X213982884Y-99819661D01*
%TO.C,C4*%
X231785610Y-93162187D02*
X231718267Y-93162187D01*
X231583580Y-93094843D01*
X231516236Y-93027500D01*
X231448893Y-92892812D01*
X231448893Y-92758125D01*
X231482564Y-92657110D01*
X231583580Y-92488751D01*
X231684595Y-92387736D01*
X231852954Y-92286721D01*
X231953969Y-92253049D01*
X232088656Y-92253049D01*
X232223343Y-92320393D01*
X232290687Y-92387736D01*
X232358030Y-92522423D01*
X232358030Y-92589767D01*
X232795763Y-93364217D02*
X232324358Y-93835622D01*
X232896778Y-92926484D02*
X232223343Y-93263202D01*
X232661076Y-93700935D01*
%TO.C,C3*%
X233313242Y-88939666D02*
X233360861Y-88987285D01*
X233408480Y-89130142D01*
X233408480Y-89225380D01*
X233360861Y-89368238D01*
X233265623Y-89463476D01*
X233170385Y-89511095D01*
X232979909Y-89558714D01*
X232837052Y-89558714D01*
X232646576Y-89511095D01*
X232551338Y-89463476D01*
X232456100Y-89368238D01*
X232408480Y-89225380D01*
X232408480Y-89130142D01*
X232456100Y-88987285D01*
X232503719Y-88939666D01*
X232408480Y-88606333D02*
X232408480Y-87987285D01*
X232789433Y-88320619D01*
X232789433Y-88177761D01*
X232837052Y-88082523D01*
X232884671Y-88034904D01*
X232979909Y-87987285D01*
X233218004Y-87987285D01*
X233313242Y-88034904D01*
X233360861Y-88082523D01*
X233408480Y-88177761D01*
X233408480Y-88463476D01*
X233360861Y-88558714D01*
X233313242Y-88606333D01*
%TO.C,C2*%
X229957333Y-85434442D02*
X229909714Y-85482061D01*
X229766857Y-85529680D01*
X229671619Y-85529680D01*
X229528761Y-85482061D01*
X229433523Y-85386823D01*
X229385904Y-85291585D01*
X229338285Y-85101109D01*
X229338285Y-84958252D01*
X229385904Y-84767776D01*
X229433523Y-84672538D01*
X229528761Y-84577300D01*
X229671619Y-84529680D01*
X229766857Y-84529680D01*
X229909714Y-84577300D01*
X229957333Y-84624919D01*
X230338285Y-84624919D02*
X230385904Y-84577300D01*
X230481142Y-84529680D01*
X230719238Y-84529680D01*
X230814476Y-84577300D01*
X230862095Y-84624919D01*
X230909714Y-84720157D01*
X230909714Y-84815395D01*
X230862095Y-84958252D01*
X230290666Y-85529680D01*
X230909714Y-85529680D01*
%TO.C,C1*%
X229458587Y-101462389D02*
X229458587Y-101529732D01*
X229391243Y-101664419D01*
X229323900Y-101731763D01*
X229189212Y-101799106D01*
X229054525Y-101799106D01*
X228953510Y-101765435D01*
X228785151Y-101664419D01*
X228684136Y-101563404D01*
X228583121Y-101395045D01*
X228549449Y-101294030D01*
X228549449Y-101159343D01*
X228616793Y-101024656D01*
X228684136Y-100957312D01*
X228818823Y-100889969D01*
X228886167Y-100889969D01*
X230199365Y-100856297D02*
X229795304Y-101260358D01*
X229997335Y-101058328D02*
X229290228Y-100351221D01*
X229323900Y-100519580D01*
X229323900Y-100654267D01*
X229290228Y-100755282D01*
%TD*%
M02*
