%TF.GenerationSoftware,KiCad,Pcbnew,(5.1.6)-1*%
%TF.CreationDate,2020-07-11T20:12:46-04:00*%
%TF.ProjectId,4x5,3478352e-6b69-4636-9164-5f7063625858,rev?*%
%TF.SameCoordinates,Original*%
%TF.FileFunction,Soldermask,Top*%
%TF.FilePolarity,Negative*%
%FSLAX46Y46*%
G04 Gerber Fmt 4.6, Leading zero omitted, Abs format (unit mm)*
G04 Created by KiCad (PCBNEW (5.1.6)-1) date 2020-07-11 20:12:46*
%MOMM*%
%LPD*%
G01*
G04 APERTURE LIST*
%ADD10R,0.700000X1.550000*%
%ADD11R,0.400000X1.550000*%
%ADD12C,0.750000*%
%ADD13R,1.300000X1.000000*%
%ADD14C,1.850000*%
%ADD15C,2.350000*%
%ADD16C,4.087800*%
%ADD17C,0.100000*%
%ADD18R,1.300000X1.500000*%
%ADD19R,1.900000X1.200000*%
G04 APERTURE END LIST*
D10*
%TO.C,USB1*%
X203061100Y-87044600D03*
X209511100Y-87044600D03*
X203836100Y-87044600D03*
X208736100Y-87044600D03*
D11*
X208036100Y-87044600D03*
X204536100Y-87044600D03*
X207536100Y-87044600D03*
X205036100Y-87044600D03*
X207036100Y-87044600D03*
X205536100Y-87044600D03*
X206036100Y-87044600D03*
X206536100Y-87044600D03*
D12*
X203396100Y-85599600D03*
X209176100Y-85599600D03*
%TD*%
%TO.C,R6*%
G36*
G01*
X208443750Y-90881250D02*
X207481250Y-90881250D01*
G75*
G02*
X207212500Y-90612500I0J268750D01*
G01*
X207212500Y-90075000D01*
G75*
G02*
X207481250Y-89806250I268750J0D01*
G01*
X208443750Y-89806250D01*
G75*
G02*
X208712500Y-90075000I0J-268750D01*
G01*
X208712500Y-90612500D01*
G75*
G02*
X208443750Y-90881250I-268750J0D01*
G01*
G37*
G36*
G01*
X208443750Y-92756250D02*
X207481250Y-92756250D01*
G75*
G02*
X207212500Y-92487500I0J268750D01*
G01*
X207212500Y-91950000D01*
G75*
G02*
X207481250Y-91681250I268750J0D01*
G01*
X208443750Y-91681250D01*
G75*
G02*
X208712500Y-91950000I0J-268750D01*
G01*
X208712500Y-92487500D01*
G75*
G02*
X208443750Y-92756250I-268750J0D01*
G01*
G37*
%TD*%
%TO.C,R5*%
G36*
G01*
X204455950Y-90913000D02*
X203493450Y-90913000D01*
G75*
G02*
X203224700Y-90644250I0J268750D01*
G01*
X203224700Y-90106750D01*
G75*
G02*
X203493450Y-89838000I268750J0D01*
G01*
X204455950Y-89838000D01*
G75*
G02*
X204724700Y-90106750I0J-268750D01*
G01*
X204724700Y-90644250D01*
G75*
G02*
X204455950Y-90913000I-268750J0D01*
G01*
G37*
G36*
G01*
X204455950Y-92788000D02*
X203493450Y-92788000D01*
G75*
G02*
X203224700Y-92519250I0J268750D01*
G01*
X203224700Y-91981750D01*
G75*
G02*
X203493450Y-91713000I268750J0D01*
G01*
X204455950Y-91713000D01*
G75*
G02*
X204724700Y-91981750I0J-268750D01*
G01*
X204724700Y-92519250D01*
G75*
G02*
X204455950Y-92788000I-268750J0D01*
G01*
G37*
%TD*%
%TO.C,F1*%
G36*
G01*
X209999900Y-95708300D02*
X211309900Y-95708300D01*
G75*
G02*
X211579900Y-95978300I0J-270000D01*
G01*
X211579900Y-96788300D01*
G75*
G02*
X211309900Y-97058300I-270000J0D01*
G01*
X209999900Y-97058300D01*
G75*
G02*
X209729900Y-96788300I0J270000D01*
G01*
X209729900Y-95978300D01*
G75*
G02*
X209999900Y-95708300I270000J0D01*
G01*
G37*
G36*
G01*
X209999900Y-92908300D02*
X211309900Y-92908300D01*
G75*
G02*
X211579900Y-93178300I0J-270000D01*
G01*
X211579900Y-93988300D01*
G75*
G02*
X211309900Y-94258300I-270000J0D01*
G01*
X209999900Y-94258300D01*
G75*
G02*
X209729900Y-93988300I0J270000D01*
G01*
X209729900Y-93178300D01*
G75*
G02*
X209999900Y-92908300I270000J0D01*
G01*
G37*
%TD*%
D13*
%TO.C,D6*%
X217487500Y-128587500D03*
X217487500Y-131887500D03*
%TD*%
%TO.C,D5*%
X198437500Y-128587500D03*
X198437500Y-131887500D03*
%TD*%
%TO.C,D4*%
X179387500Y-128525000D03*
X179387500Y-131825000D03*
%TD*%
%TO.C,D3*%
X217487500Y-109475000D03*
X217487500Y-112775000D03*
%TD*%
%TO.C,D2*%
X198437500Y-109537500D03*
X198437500Y-112837500D03*
%TD*%
%TO.C,D1*%
X179387500Y-109537500D03*
X179387500Y-112837500D03*
%TD*%
D14*
%TO.C,MX6*%
X220345000Y-130968750D03*
X230505000Y-130968750D03*
D15*
X227925000Y-126968750D03*
D16*
X225425000Y-130968750D03*
G36*
G01*
X230019709Y-129303310D02*
X230019709Y-129303311D01*
G75*
G02*
X228360439Y-129213459I-784709J874561D01*
G01*
X227050437Y-127753459D01*
G75*
G02*
X227140289Y-126094189I874561J784709D01*
G01*
X227140289Y-126094189D01*
G75*
G02*
X228799559Y-126184041I784709J-874561D01*
G01*
X230109561Y-127644041D01*
G75*
G02*
X230019709Y-129303311I-874561J-784709D01*
G01*
G37*
D15*
X222885000Y-125888750D03*
G36*
G01*
X223005843Y-127640966D02*
X223005843Y-127640966D01*
G75*
G02*
X221752784Y-126549593I-80843J1172216D01*
G01*
X221712784Y-125969593D01*
G75*
G02*
X222804157Y-124716534I1172216J80843D01*
G01*
X222804157Y-124716534D01*
G75*
G02*
X224057216Y-125807907I80843J-1172216D01*
G01*
X224097216Y-126387907D01*
G75*
G02*
X223005843Y-127640966I-1172216J-80843D01*
G01*
G37*
%TD*%
D14*
%TO.C,MX5*%
X201295000Y-130968750D03*
X211455000Y-130968750D03*
D15*
X208875000Y-126968750D03*
D16*
X206375000Y-130968750D03*
G36*
G01*
X210969709Y-129303310D02*
X210969709Y-129303311D01*
G75*
G02*
X209310439Y-129213459I-784709J874561D01*
G01*
X208000437Y-127753459D01*
G75*
G02*
X208090289Y-126094189I874561J784709D01*
G01*
X208090289Y-126094189D01*
G75*
G02*
X209749559Y-126184041I784709J-874561D01*
G01*
X211059561Y-127644041D01*
G75*
G02*
X210969709Y-129303311I-874561J-784709D01*
G01*
G37*
D15*
X203835000Y-125888750D03*
G36*
G01*
X203955843Y-127640966D02*
X203955843Y-127640966D01*
G75*
G02*
X202702784Y-126549593I-80843J1172216D01*
G01*
X202662784Y-125969593D01*
G75*
G02*
X203754157Y-124716534I1172216J80843D01*
G01*
X203754157Y-124716534D01*
G75*
G02*
X205007216Y-125807907I80843J-1172216D01*
G01*
X205047216Y-126387907D01*
G75*
G02*
X203955843Y-127640966I-1172216J-80843D01*
G01*
G37*
%TD*%
D14*
%TO.C,MX4*%
X182245000Y-130968750D03*
X192405000Y-130968750D03*
D15*
X189825000Y-126968750D03*
D16*
X187325000Y-130968750D03*
G36*
G01*
X191919709Y-129303310D02*
X191919709Y-129303311D01*
G75*
G02*
X190260439Y-129213459I-784709J874561D01*
G01*
X188950437Y-127753459D01*
G75*
G02*
X189040289Y-126094189I874561J784709D01*
G01*
X189040289Y-126094189D01*
G75*
G02*
X190699559Y-126184041I784709J-874561D01*
G01*
X192009561Y-127644041D01*
G75*
G02*
X191919709Y-129303311I-874561J-784709D01*
G01*
G37*
D15*
X184785000Y-125888750D03*
G36*
G01*
X184905843Y-127640966D02*
X184905843Y-127640966D01*
G75*
G02*
X183652784Y-126549593I-80843J1172216D01*
G01*
X183612784Y-125969593D01*
G75*
G02*
X184704157Y-124716534I1172216J80843D01*
G01*
X184704157Y-124716534D01*
G75*
G02*
X185957216Y-125807907I80843J-1172216D01*
G01*
X185997216Y-126387907D01*
G75*
G02*
X184905843Y-127640966I-1172216J-80843D01*
G01*
G37*
%TD*%
D14*
%TO.C,MX3*%
X220345000Y-111918750D03*
X230505000Y-111918750D03*
D15*
X227925000Y-107918750D03*
D16*
X225425000Y-111918750D03*
G36*
G01*
X230019709Y-110253310D02*
X230019709Y-110253311D01*
G75*
G02*
X228360439Y-110163459I-784709J874561D01*
G01*
X227050437Y-108703459D01*
G75*
G02*
X227140289Y-107044189I874561J784709D01*
G01*
X227140289Y-107044189D01*
G75*
G02*
X228799559Y-107134041I784709J-874561D01*
G01*
X230109561Y-108594041D01*
G75*
G02*
X230019709Y-110253311I-874561J-784709D01*
G01*
G37*
D15*
X222885000Y-106838750D03*
G36*
G01*
X223005843Y-108590966D02*
X223005843Y-108590966D01*
G75*
G02*
X221752784Y-107499593I-80843J1172216D01*
G01*
X221712784Y-106919593D01*
G75*
G02*
X222804157Y-105666534I1172216J80843D01*
G01*
X222804157Y-105666534D01*
G75*
G02*
X224057216Y-106757907I80843J-1172216D01*
G01*
X224097216Y-107337907D01*
G75*
G02*
X223005843Y-108590966I-1172216J-80843D01*
G01*
G37*
%TD*%
D14*
%TO.C,MX2*%
X201295000Y-111918750D03*
X211455000Y-111918750D03*
D15*
X208875000Y-107918750D03*
D16*
X206375000Y-111918750D03*
G36*
G01*
X210969709Y-110253310D02*
X210969709Y-110253311D01*
G75*
G02*
X209310439Y-110163459I-784709J874561D01*
G01*
X208000437Y-108703459D01*
G75*
G02*
X208090289Y-107044189I874561J784709D01*
G01*
X208090289Y-107044189D01*
G75*
G02*
X209749559Y-107134041I784709J-874561D01*
G01*
X211059561Y-108594041D01*
G75*
G02*
X210969709Y-110253311I-874561J-784709D01*
G01*
G37*
D15*
X203835000Y-106838750D03*
G36*
G01*
X203955843Y-108590966D02*
X203955843Y-108590966D01*
G75*
G02*
X202702784Y-107499593I-80843J1172216D01*
G01*
X202662784Y-106919593D01*
G75*
G02*
X203754157Y-105666534I1172216J80843D01*
G01*
X203754157Y-105666534D01*
G75*
G02*
X205007216Y-106757907I80843J-1172216D01*
G01*
X205047216Y-107337907D01*
G75*
G02*
X203955843Y-108590966I-1172216J-80843D01*
G01*
G37*
%TD*%
D17*
%TO.C,U1*%
G36*
X222177544Y-101313441D02*
G01*
X222637163Y-101773060D01*
X221505792Y-102904431D01*
X221046173Y-102444812D01*
X222177544Y-101313441D01*
G37*
G36*
X221611859Y-100747755D02*
G01*
X222071478Y-101207374D01*
X220940107Y-102338745D01*
X220480488Y-101879126D01*
X221611859Y-100747755D01*
G37*
G36*
X221046174Y-100182070D02*
G01*
X221505793Y-100641689D01*
X220374422Y-101773060D01*
X219914803Y-101313441D01*
X221046174Y-100182070D01*
G37*
G36*
X220480488Y-99616385D02*
G01*
X220940107Y-100076004D01*
X219808736Y-101207375D01*
X219349117Y-100747756D01*
X220480488Y-99616385D01*
G37*
G36*
X219914803Y-99050699D02*
G01*
X220374422Y-99510318D01*
X219243051Y-100641689D01*
X218783432Y-100182070D01*
X219914803Y-99050699D01*
G37*
G36*
X219349117Y-98485014D02*
G01*
X219808736Y-98944633D01*
X218677365Y-100076004D01*
X218217746Y-99616385D01*
X219349117Y-98485014D01*
G37*
G36*
X218783432Y-97919328D02*
G01*
X219243051Y-98378947D01*
X218111680Y-99510318D01*
X217652061Y-99050699D01*
X218783432Y-97919328D01*
G37*
G36*
X218217746Y-97353643D02*
G01*
X218677365Y-97813262D01*
X217545994Y-98944633D01*
X217086375Y-98485014D01*
X218217746Y-97353643D01*
G37*
G36*
X217652061Y-96787957D02*
G01*
X218111680Y-97247576D01*
X216980309Y-98378947D01*
X216520690Y-97919328D01*
X217652061Y-96787957D01*
G37*
G36*
X217086376Y-96222272D02*
G01*
X217545995Y-96681891D01*
X216414624Y-97813262D01*
X215955005Y-97353643D01*
X217086376Y-96222272D01*
G37*
G36*
X216520690Y-95656587D02*
G01*
X216980309Y-96116206D01*
X215848938Y-97247577D01*
X215389319Y-96787958D01*
X216520690Y-95656587D01*
G37*
G36*
X216980309Y-94383794D02*
G01*
X216520690Y-94843413D01*
X215389319Y-93712042D01*
X215848938Y-93252423D01*
X216980309Y-94383794D01*
G37*
G36*
X217545995Y-93818109D02*
G01*
X217086376Y-94277728D01*
X215955005Y-93146357D01*
X216414624Y-92686738D01*
X217545995Y-93818109D01*
G37*
G36*
X218111680Y-93252424D02*
G01*
X217652061Y-93712043D01*
X216520690Y-92580672D01*
X216980309Y-92121053D01*
X218111680Y-93252424D01*
G37*
G36*
X218677365Y-92686738D02*
G01*
X218217746Y-93146357D01*
X217086375Y-92014986D01*
X217545994Y-91555367D01*
X218677365Y-92686738D01*
G37*
G36*
X219243051Y-92121053D02*
G01*
X218783432Y-92580672D01*
X217652061Y-91449301D01*
X218111680Y-90989682D01*
X219243051Y-92121053D01*
G37*
G36*
X219808736Y-91555367D02*
G01*
X219349117Y-92014986D01*
X218217746Y-90883615D01*
X218677365Y-90423996D01*
X219808736Y-91555367D01*
G37*
G36*
X220374422Y-90989682D02*
G01*
X219914803Y-91449301D01*
X218783432Y-90317930D01*
X219243051Y-89858311D01*
X220374422Y-90989682D01*
G37*
G36*
X220940107Y-90423996D02*
G01*
X220480488Y-90883615D01*
X219349117Y-89752244D01*
X219808736Y-89292625D01*
X220940107Y-90423996D01*
G37*
G36*
X221505793Y-89858311D02*
G01*
X221046174Y-90317930D01*
X219914803Y-89186559D01*
X220374422Y-88726940D01*
X221505793Y-89858311D01*
G37*
G36*
X222071478Y-89292626D02*
G01*
X221611859Y-89752245D01*
X220480488Y-88620874D01*
X220940107Y-88161255D01*
X222071478Y-89292626D01*
G37*
G36*
X222637163Y-88726940D02*
G01*
X222177544Y-89186559D01*
X221046173Y-88055188D01*
X221505792Y-87595569D01*
X222637163Y-88726940D01*
G37*
G36*
X224581708Y-87595569D02*
G01*
X225041327Y-88055188D01*
X223909956Y-89186559D01*
X223450337Y-88726940D01*
X224581708Y-87595569D01*
G37*
G36*
X225147393Y-88161255D02*
G01*
X225607012Y-88620874D01*
X224475641Y-89752245D01*
X224016022Y-89292626D01*
X225147393Y-88161255D01*
G37*
G36*
X225713078Y-88726940D02*
G01*
X226172697Y-89186559D01*
X225041326Y-90317930D01*
X224581707Y-89858311D01*
X225713078Y-88726940D01*
G37*
G36*
X226278764Y-89292625D02*
G01*
X226738383Y-89752244D01*
X225607012Y-90883615D01*
X225147393Y-90423996D01*
X226278764Y-89292625D01*
G37*
G36*
X226844449Y-89858311D02*
G01*
X227304068Y-90317930D01*
X226172697Y-91449301D01*
X225713078Y-90989682D01*
X226844449Y-89858311D01*
G37*
G36*
X227410135Y-90423996D02*
G01*
X227869754Y-90883615D01*
X226738383Y-92014986D01*
X226278764Y-91555367D01*
X227410135Y-90423996D01*
G37*
G36*
X227975820Y-90989682D02*
G01*
X228435439Y-91449301D01*
X227304068Y-92580672D01*
X226844449Y-92121053D01*
X227975820Y-90989682D01*
G37*
G36*
X228541506Y-91555367D02*
G01*
X229001125Y-92014986D01*
X227869754Y-93146357D01*
X227410135Y-92686738D01*
X228541506Y-91555367D01*
G37*
G36*
X229107191Y-92121053D02*
G01*
X229566810Y-92580672D01*
X228435439Y-93712043D01*
X227975820Y-93252424D01*
X229107191Y-92121053D01*
G37*
G36*
X229672876Y-92686738D02*
G01*
X230132495Y-93146357D01*
X229001124Y-94277728D01*
X228541505Y-93818109D01*
X229672876Y-92686738D01*
G37*
G36*
X230238562Y-93252423D02*
G01*
X230698181Y-93712042D01*
X229566810Y-94843413D01*
X229107191Y-94383794D01*
X230238562Y-93252423D01*
G37*
G36*
X230698181Y-96787958D02*
G01*
X230238562Y-97247577D01*
X229107191Y-96116206D01*
X229566810Y-95656587D01*
X230698181Y-96787958D01*
G37*
G36*
X230132495Y-97353643D02*
G01*
X229672876Y-97813262D01*
X228541505Y-96681891D01*
X229001124Y-96222272D01*
X230132495Y-97353643D01*
G37*
G36*
X229566810Y-97919328D02*
G01*
X229107191Y-98378947D01*
X227975820Y-97247576D01*
X228435439Y-96787957D01*
X229566810Y-97919328D01*
G37*
G36*
X229001125Y-98485014D02*
G01*
X228541506Y-98944633D01*
X227410135Y-97813262D01*
X227869754Y-97353643D01*
X229001125Y-98485014D01*
G37*
G36*
X228435439Y-99050699D02*
G01*
X227975820Y-99510318D01*
X226844449Y-98378947D01*
X227304068Y-97919328D01*
X228435439Y-99050699D01*
G37*
G36*
X227869754Y-99616385D02*
G01*
X227410135Y-100076004D01*
X226278764Y-98944633D01*
X226738383Y-98485014D01*
X227869754Y-99616385D01*
G37*
G36*
X227304068Y-100182070D02*
G01*
X226844449Y-100641689D01*
X225713078Y-99510318D01*
X226172697Y-99050699D01*
X227304068Y-100182070D01*
G37*
G36*
X226738383Y-100747756D02*
G01*
X226278764Y-101207375D01*
X225147393Y-100076004D01*
X225607012Y-99616385D01*
X226738383Y-100747756D01*
G37*
G36*
X226172697Y-101313441D02*
G01*
X225713078Y-101773060D01*
X224581707Y-100641689D01*
X225041326Y-100182070D01*
X226172697Y-101313441D01*
G37*
G36*
X225607012Y-101879126D02*
G01*
X225147393Y-102338745D01*
X224016022Y-101207374D01*
X224475641Y-100747755D01*
X225607012Y-101879126D01*
G37*
G36*
X225041327Y-102444812D02*
G01*
X224581708Y-102904431D01*
X223450337Y-101773060D01*
X223909956Y-101313441D01*
X225041327Y-102444812D01*
G37*
%TD*%
D14*
%TO.C,MX1*%
X182245000Y-111918750D03*
X192405000Y-111918750D03*
D15*
X189825000Y-107918750D03*
D16*
X187325000Y-111918750D03*
G36*
G01*
X191919709Y-110253310D02*
X191919709Y-110253311D01*
G75*
G02*
X190260439Y-110163459I-784709J874561D01*
G01*
X188950437Y-108703459D01*
G75*
G02*
X189040289Y-107044189I874561J784709D01*
G01*
X189040289Y-107044189D01*
G75*
G02*
X190699559Y-107134041I784709J-874561D01*
G01*
X192009561Y-108594041D01*
G75*
G02*
X191919709Y-110253311I-874561J-784709D01*
G01*
G37*
D15*
X184785000Y-106838750D03*
G36*
G01*
X184905843Y-108590966D02*
X184905843Y-108590966D01*
G75*
G02*
X183652784Y-107499593I-80843J1172216D01*
G01*
X183612784Y-106919593D01*
G75*
G02*
X184704157Y-105666534I1172216J80843D01*
G01*
X184704157Y-105666534D01*
G75*
G02*
X185957216Y-106757907I80843J-1172216D01*
G01*
X185997216Y-107337907D01*
G75*
G02*
X184905843Y-108590966I-1172216J-80843D01*
G01*
G37*
%TD*%
D18*
%TO.C,Y1*%
X230981250Y-87312500D03*
X230981250Y-89512500D03*
X229281250Y-89512500D03*
X229281250Y-87312500D03*
%TD*%
D19*
%TO.C,SW1*%
X202331250Y-96575000D03*
X196131250Y-100275000D03*
X202331250Y-100275000D03*
X196131250Y-96575000D03*
%TD*%
%TO.C,R4*%
G36*
G01*
X232089362Y-98367548D02*
X232769952Y-99048138D01*
G75*
G02*
X232769952Y-99428208I-190035J-190035D01*
G01*
X232389882Y-99808278D01*
G75*
G02*
X232009812Y-99808278I-190035J190035D01*
G01*
X231329222Y-99127688D01*
G75*
G02*
X231329222Y-98747618I190035J190035D01*
G01*
X231709292Y-98367548D01*
G75*
G02*
X232089362Y-98367548I190035J-190035D01*
G01*
G37*
G36*
G01*
X233415188Y-97041722D02*
X234095778Y-97722312D01*
G75*
G02*
X234095778Y-98102382I-190035J-190035D01*
G01*
X233715708Y-98482452D01*
G75*
G02*
X233335638Y-98482452I-190035J190035D01*
G01*
X232655048Y-97801862D01*
G75*
G02*
X232655048Y-97421792I190035J190035D01*
G01*
X233035118Y-97041722D01*
G75*
G02*
X233415188Y-97041722I190035J-190035D01*
G01*
G37*
%TD*%
%TO.C,R3*%
G36*
G01*
X205268750Y-96581250D02*
X204306250Y-96581250D01*
G75*
G02*
X204037500Y-96312500I0J268750D01*
G01*
X204037500Y-95775000D01*
G75*
G02*
X204306250Y-95506250I268750J0D01*
G01*
X205268750Y-95506250D01*
G75*
G02*
X205537500Y-95775000I0J-268750D01*
G01*
X205537500Y-96312500D01*
G75*
G02*
X205268750Y-96581250I-268750J0D01*
G01*
G37*
G36*
G01*
X205268750Y-98456250D02*
X204306250Y-98456250D01*
G75*
G02*
X204037500Y-98187500I0J268750D01*
G01*
X204037500Y-97650000D01*
G75*
G02*
X204306250Y-97381250I268750J0D01*
G01*
X205268750Y-97381250D01*
G75*
G02*
X205537500Y-97650000I0J-268750D01*
G01*
X205537500Y-98187500D01*
G75*
G02*
X205268750Y-98456250I-268750J0D01*
G01*
G37*
%TD*%
%TO.C,R2*%
G36*
G01*
X207224550Y-96566800D02*
X206262050Y-96566800D01*
G75*
G02*
X205993300Y-96298050I0J268750D01*
G01*
X205993300Y-95760550D01*
G75*
G02*
X206262050Y-95491800I268750J0D01*
G01*
X207224550Y-95491800D01*
G75*
G02*
X207493300Y-95760550I0J-268750D01*
G01*
X207493300Y-96298050D01*
G75*
G02*
X207224550Y-96566800I-268750J0D01*
G01*
G37*
G36*
G01*
X207224550Y-98441800D02*
X206262050Y-98441800D01*
G75*
G02*
X205993300Y-98173050I0J268750D01*
G01*
X205993300Y-97635550D01*
G75*
G02*
X206262050Y-97366800I268750J0D01*
G01*
X207224550Y-97366800D01*
G75*
G02*
X207493300Y-97635550I0J-268750D01*
G01*
X207493300Y-98173050D01*
G75*
G02*
X207224550Y-98441800I-268750J0D01*
G01*
G37*
%TD*%
%TO.C,R1*%
G36*
G01*
X213330461Y-91773551D02*
X214011051Y-91092961D01*
G75*
G02*
X214391121Y-91092961I190035J-190035D01*
G01*
X214771191Y-91473031D01*
G75*
G02*
X214771191Y-91853101I-190035J-190035D01*
G01*
X214090601Y-92533691D01*
G75*
G02*
X213710531Y-92533691I-190035J190035D01*
G01*
X213330461Y-92153621D01*
G75*
G02*
X213330461Y-91773551I190035J190035D01*
G01*
G37*
G36*
G01*
X212004635Y-90447725D02*
X212685225Y-89767135D01*
G75*
G02*
X213065295Y-89767135I190035J-190035D01*
G01*
X213445365Y-90147205D01*
G75*
G02*
X213445365Y-90527275I-190035J-190035D01*
G01*
X212764775Y-91207865D01*
G75*
G02*
X212384705Y-91207865I-190035J190035D01*
G01*
X212004635Y-90827795D01*
G75*
G02*
X212004635Y-90447725I190035J190035D01*
G01*
G37*
%TD*%
%TO.C,C7*%
G36*
G01*
X217999639Y-101622049D02*
X217319049Y-102302639D01*
G75*
G02*
X216938979Y-102302639I-190035J190035D01*
G01*
X216558909Y-101922569D01*
G75*
G02*
X216558909Y-101542499I190035J190035D01*
G01*
X217239499Y-100861909D01*
G75*
G02*
X217619569Y-100861909I190035J-190035D01*
G01*
X217999639Y-101241979D01*
G75*
G02*
X217999639Y-101622049I-190035J-190035D01*
G01*
G37*
G36*
G01*
X219325465Y-102947875D02*
X218644875Y-103628465D01*
G75*
G02*
X218264805Y-103628465I-190035J190035D01*
G01*
X217884735Y-103248395D01*
G75*
G02*
X217884735Y-102868325I190035J190035D01*
G01*
X218565325Y-102187735D01*
G75*
G02*
X218945395Y-102187735I190035J-190035D01*
G01*
X219325465Y-102567805D01*
G75*
G02*
X219325465Y-102947875I-190035J-190035D01*
G01*
G37*
%TD*%
%TO.C,C6*%
G36*
G01*
X219841888Y-85782452D02*
X219161298Y-85101862D01*
G75*
G02*
X219161298Y-84721792I190035J190035D01*
G01*
X219541368Y-84341722D01*
G75*
G02*
X219921438Y-84341722I190035J-190035D01*
G01*
X220602028Y-85022312D01*
G75*
G02*
X220602028Y-85402382I-190035J-190035D01*
G01*
X220221958Y-85782452D01*
G75*
G02*
X219841888Y-85782452I-190035J190035D01*
G01*
G37*
G36*
G01*
X218516062Y-87108278D02*
X217835472Y-86427688D01*
G75*
G02*
X217835472Y-86047618I190035J190035D01*
G01*
X218215542Y-85667548D01*
G75*
G02*
X218595612Y-85667548I190035J-190035D01*
G01*
X219276202Y-86348138D01*
G75*
G02*
X219276202Y-86728208I-190035J-190035D01*
G01*
X218896132Y-87108278D01*
G75*
G02*
X218516062Y-87108278I-190035J190035D01*
G01*
G37*
%TD*%
%TO.C,C5*%
G36*
G01*
X214117861Y-99825351D02*
X214798451Y-99144761D01*
G75*
G02*
X215178521Y-99144761I190035J-190035D01*
G01*
X215558591Y-99524831D01*
G75*
G02*
X215558591Y-99904901I-190035J-190035D01*
G01*
X214878001Y-100585491D01*
G75*
G02*
X214497931Y-100585491I-190035J190035D01*
G01*
X214117861Y-100205421D01*
G75*
G02*
X214117861Y-99825351I190035J190035D01*
G01*
G37*
G36*
G01*
X212792035Y-98499525D02*
X213472625Y-97818935D01*
G75*
G02*
X213852695Y-97818935I190035J-190035D01*
G01*
X214232765Y-98199005D01*
G75*
G02*
X214232765Y-98579075I-190035J-190035D01*
G01*
X213552175Y-99259665D01*
G75*
G02*
X213172105Y-99259665I-190035J190035D01*
G01*
X212792035Y-98879595D01*
G75*
G02*
X212792035Y-98499525I190035J190035D01*
G01*
G37*
%TD*%
%TO.C,C4*%
G36*
G01*
X232200148Y-93752238D02*
X232880738Y-93071648D01*
G75*
G02*
X233260808Y-93071648I190035J-190035D01*
G01*
X233640878Y-93451718D01*
G75*
G02*
X233640878Y-93831788I-190035J-190035D01*
G01*
X232960288Y-94512378D01*
G75*
G02*
X232580218Y-94512378I-190035J190035D01*
G01*
X232200148Y-94132308D01*
G75*
G02*
X232200148Y-93752238I190035J190035D01*
G01*
G37*
G36*
G01*
X230874322Y-92426412D02*
X231554912Y-91745822D01*
G75*
G02*
X231934982Y-91745822I190035J-190035D01*
G01*
X232315052Y-92125892D01*
G75*
G02*
X232315052Y-92505962I-190035J-190035D01*
G01*
X231634462Y-93186552D01*
G75*
G02*
X231254392Y-93186552I-190035J190035D01*
G01*
X230874322Y-92806482D01*
G75*
G02*
X230874322Y-92426412I190035J190035D01*
G01*
G37*
%TD*%
%TO.C,C3*%
G36*
G01*
X233450050Y-88349900D02*
X232487550Y-88349900D01*
G75*
G02*
X232218800Y-88081150I0J268750D01*
G01*
X232218800Y-87543650D01*
G75*
G02*
X232487550Y-87274900I268750J0D01*
G01*
X233450050Y-87274900D01*
G75*
G02*
X233718800Y-87543650I0J-268750D01*
G01*
X233718800Y-88081150D01*
G75*
G02*
X233450050Y-88349900I-268750J0D01*
G01*
G37*
G36*
G01*
X233450050Y-90224900D02*
X232487550Y-90224900D01*
G75*
G02*
X232218800Y-89956150I0J268750D01*
G01*
X232218800Y-89418650D01*
G75*
G02*
X232487550Y-89149900I268750J0D01*
G01*
X233450050Y-89149900D01*
G75*
G02*
X233718800Y-89418650I0J-268750D01*
G01*
X233718800Y-89956150D01*
G75*
G02*
X233450050Y-90224900I-268750J0D01*
G01*
G37*
%TD*%
%TO.C,C2*%
G36*
G01*
X230547100Y-85596650D02*
X230547100Y-84634150D01*
G75*
G02*
X230815850Y-84365400I268750J0D01*
G01*
X231353350Y-84365400D01*
G75*
G02*
X231622100Y-84634150I0J-268750D01*
G01*
X231622100Y-85596650D01*
G75*
G02*
X231353350Y-85865400I-268750J0D01*
G01*
X230815850Y-85865400D01*
G75*
G02*
X230547100Y-85596650I0J268750D01*
G01*
G37*
G36*
G01*
X228672100Y-85596650D02*
X228672100Y-84634150D01*
G75*
G02*
X228940850Y-84365400I268750J0D01*
G01*
X229478350Y-84365400D01*
G75*
G02*
X229747100Y-84634150I0J-268750D01*
G01*
X229747100Y-85596650D01*
G75*
G02*
X229478350Y-85865400I-268750J0D01*
G01*
X228940850Y-85865400D01*
G75*
G02*
X228672100Y-85596650I0J268750D01*
G01*
G37*
%TD*%
%TO.C,C1*%
G36*
G01*
X228637262Y-100856748D02*
X229317852Y-101537338D01*
G75*
G02*
X229317852Y-101917408I-190035J-190035D01*
G01*
X228937782Y-102297478D01*
G75*
G02*
X228557712Y-102297478I-190035J190035D01*
G01*
X227877122Y-101616888D01*
G75*
G02*
X227877122Y-101236818I190035J190035D01*
G01*
X228257192Y-100856748D01*
G75*
G02*
X228637262Y-100856748I190035J-190035D01*
G01*
G37*
G36*
G01*
X229963088Y-99530922D02*
X230643678Y-100211512D01*
G75*
G02*
X230643678Y-100591582I-190035J-190035D01*
G01*
X230263608Y-100971652D01*
G75*
G02*
X229883538Y-100971652I-190035J190035D01*
G01*
X229202948Y-100291062D01*
G75*
G02*
X229202948Y-99910992I190035J190035D01*
G01*
X229583018Y-99530922D01*
G75*
G02*
X229963088Y-99530922I190035J-190035D01*
G01*
G37*
%TD*%
M02*
