%TF.GenerationSoftware,KiCad,Pcbnew,(5.1.6)-1*%
%TF.CreationDate,2020-07-11T20:12:46-04:00*%
%TF.ProjectId,4x5,3478352e-6b69-4636-9164-5f7063625858,rev?*%
%TF.SameCoordinates,Original*%
%TF.FileFunction,Paste,Top*%
%TF.FilePolarity,Positive*%
%FSLAX46Y46*%
G04 Gerber Fmt 4.6, Leading zero omitted, Abs format (unit mm)*
G04 Created by KiCad (PCBNEW (5.1.6)-1) date 2020-07-11 20:12:46*
%MOMM*%
%LPD*%
G01*
G04 APERTURE LIST*
%ADD10R,0.600000X1.450000*%
%ADD11R,0.300000X1.450000*%
%ADD12R,1.200000X0.900000*%
%ADD13C,0.100000*%
%ADD14R,1.200000X1.400000*%
%ADD15R,1.800000X1.100000*%
G04 APERTURE END LIST*
D10*
%TO.C,USB1*%
X203061100Y-87044600D03*
X209511100Y-87044600D03*
X203836100Y-87044600D03*
X208736100Y-87044600D03*
D11*
X208036100Y-87044600D03*
X204536100Y-87044600D03*
X207536100Y-87044600D03*
X205036100Y-87044600D03*
X207036100Y-87044600D03*
X205536100Y-87044600D03*
X206036100Y-87044600D03*
X206536100Y-87044600D03*
%TD*%
%TO.C,R6*%
G36*
G01*
X208418750Y-90831250D02*
X207506250Y-90831250D01*
G75*
G02*
X207262500Y-90587500I0J243750D01*
G01*
X207262500Y-90100000D01*
G75*
G02*
X207506250Y-89856250I243750J0D01*
G01*
X208418750Y-89856250D01*
G75*
G02*
X208662500Y-90100000I0J-243750D01*
G01*
X208662500Y-90587500D01*
G75*
G02*
X208418750Y-90831250I-243750J0D01*
G01*
G37*
G36*
G01*
X208418750Y-92706250D02*
X207506250Y-92706250D01*
G75*
G02*
X207262500Y-92462500I0J243750D01*
G01*
X207262500Y-91975000D01*
G75*
G02*
X207506250Y-91731250I243750J0D01*
G01*
X208418750Y-91731250D01*
G75*
G02*
X208662500Y-91975000I0J-243750D01*
G01*
X208662500Y-92462500D01*
G75*
G02*
X208418750Y-92706250I-243750J0D01*
G01*
G37*
%TD*%
%TO.C,R5*%
G36*
G01*
X204430950Y-90863000D02*
X203518450Y-90863000D01*
G75*
G02*
X203274700Y-90619250I0J243750D01*
G01*
X203274700Y-90131750D01*
G75*
G02*
X203518450Y-89888000I243750J0D01*
G01*
X204430950Y-89888000D01*
G75*
G02*
X204674700Y-90131750I0J-243750D01*
G01*
X204674700Y-90619250D01*
G75*
G02*
X204430950Y-90863000I-243750J0D01*
G01*
G37*
G36*
G01*
X204430950Y-92738000D02*
X203518450Y-92738000D01*
G75*
G02*
X203274700Y-92494250I0J243750D01*
G01*
X203274700Y-92006750D01*
G75*
G02*
X203518450Y-91763000I243750J0D01*
G01*
X204430950Y-91763000D01*
G75*
G02*
X204674700Y-92006750I0J-243750D01*
G01*
X204674700Y-92494250D01*
G75*
G02*
X204430950Y-92738000I-243750J0D01*
G01*
G37*
%TD*%
%TO.C,F1*%
G36*
G01*
X210029900Y-95758300D02*
X211279900Y-95758300D01*
G75*
G02*
X211529900Y-96008300I0J-250000D01*
G01*
X211529900Y-96758300D01*
G75*
G02*
X211279900Y-97008300I-250000J0D01*
G01*
X210029900Y-97008300D01*
G75*
G02*
X209779900Y-96758300I0J250000D01*
G01*
X209779900Y-96008300D01*
G75*
G02*
X210029900Y-95758300I250000J0D01*
G01*
G37*
G36*
G01*
X210029900Y-92958300D02*
X211279900Y-92958300D01*
G75*
G02*
X211529900Y-93208300I0J-250000D01*
G01*
X211529900Y-93958300D01*
G75*
G02*
X211279900Y-94208300I-250000J0D01*
G01*
X210029900Y-94208300D01*
G75*
G02*
X209779900Y-93958300I0J250000D01*
G01*
X209779900Y-93208300D01*
G75*
G02*
X210029900Y-92958300I250000J0D01*
G01*
G37*
%TD*%
D12*
%TO.C,D6*%
X217487500Y-128587500D03*
X217487500Y-131887500D03*
%TD*%
%TO.C,D5*%
X198437500Y-128587500D03*
X198437500Y-131887500D03*
%TD*%
%TO.C,D4*%
X179387500Y-128525000D03*
X179387500Y-131825000D03*
%TD*%
%TO.C,D3*%
X217487500Y-109475000D03*
X217487500Y-112775000D03*
%TD*%
%TO.C,D2*%
X198437500Y-109537500D03*
X198437500Y-112837500D03*
%TD*%
%TO.C,D1*%
X179387500Y-109537500D03*
X179387500Y-112837500D03*
%TD*%
D13*
%TO.C,U1*%
G36*
X222177544Y-101384152D02*
G01*
X222566452Y-101773060D01*
X221505792Y-102833720D01*
X221116884Y-102444812D01*
X222177544Y-101384152D01*
G37*
G36*
X221611859Y-100818466D02*
G01*
X222000767Y-101207374D01*
X220940107Y-102268034D01*
X220551199Y-101879126D01*
X221611859Y-100818466D01*
G37*
G36*
X221046174Y-100252781D02*
G01*
X221435082Y-100641689D01*
X220374422Y-101702349D01*
X219985514Y-101313441D01*
X221046174Y-100252781D01*
G37*
G36*
X220480488Y-99687096D02*
G01*
X220869396Y-100076004D01*
X219808736Y-101136664D01*
X219419828Y-100747756D01*
X220480488Y-99687096D01*
G37*
G36*
X219914803Y-99121410D02*
G01*
X220303711Y-99510318D01*
X219243051Y-100570978D01*
X218854143Y-100182070D01*
X219914803Y-99121410D01*
G37*
G36*
X219349117Y-98555725D02*
G01*
X219738025Y-98944633D01*
X218677365Y-100005293D01*
X218288457Y-99616385D01*
X219349117Y-98555725D01*
G37*
G36*
X218783432Y-97990039D02*
G01*
X219172340Y-98378947D01*
X218111680Y-99439607D01*
X217722772Y-99050699D01*
X218783432Y-97990039D01*
G37*
G36*
X218217746Y-97424354D02*
G01*
X218606654Y-97813262D01*
X217545994Y-98873922D01*
X217157086Y-98485014D01*
X218217746Y-97424354D01*
G37*
G36*
X217652061Y-96858668D02*
G01*
X218040969Y-97247576D01*
X216980309Y-98308236D01*
X216591401Y-97919328D01*
X217652061Y-96858668D01*
G37*
G36*
X217086376Y-96292983D02*
G01*
X217475284Y-96681891D01*
X216414624Y-97742551D01*
X216025716Y-97353643D01*
X217086376Y-96292983D01*
G37*
G36*
X216520690Y-95727298D02*
G01*
X216909598Y-96116206D01*
X215848938Y-97176866D01*
X215460030Y-96787958D01*
X216520690Y-95727298D01*
G37*
G36*
X216909598Y-94383794D02*
G01*
X216520690Y-94772702D01*
X215460030Y-93712042D01*
X215848938Y-93323134D01*
X216909598Y-94383794D01*
G37*
G36*
X217475284Y-93818109D02*
G01*
X217086376Y-94207017D01*
X216025716Y-93146357D01*
X216414624Y-92757449D01*
X217475284Y-93818109D01*
G37*
G36*
X218040969Y-93252424D02*
G01*
X217652061Y-93641332D01*
X216591401Y-92580672D01*
X216980309Y-92191764D01*
X218040969Y-93252424D01*
G37*
G36*
X218606654Y-92686738D02*
G01*
X218217746Y-93075646D01*
X217157086Y-92014986D01*
X217545994Y-91626078D01*
X218606654Y-92686738D01*
G37*
G36*
X219172340Y-92121053D02*
G01*
X218783432Y-92509961D01*
X217722772Y-91449301D01*
X218111680Y-91060393D01*
X219172340Y-92121053D01*
G37*
G36*
X219738025Y-91555367D02*
G01*
X219349117Y-91944275D01*
X218288457Y-90883615D01*
X218677365Y-90494707D01*
X219738025Y-91555367D01*
G37*
G36*
X220303711Y-90989682D02*
G01*
X219914803Y-91378590D01*
X218854143Y-90317930D01*
X219243051Y-89929022D01*
X220303711Y-90989682D01*
G37*
G36*
X220869396Y-90423996D02*
G01*
X220480488Y-90812904D01*
X219419828Y-89752244D01*
X219808736Y-89363336D01*
X220869396Y-90423996D01*
G37*
G36*
X221435082Y-89858311D02*
G01*
X221046174Y-90247219D01*
X219985514Y-89186559D01*
X220374422Y-88797651D01*
X221435082Y-89858311D01*
G37*
G36*
X222000767Y-89292626D02*
G01*
X221611859Y-89681534D01*
X220551199Y-88620874D01*
X220940107Y-88231966D01*
X222000767Y-89292626D01*
G37*
G36*
X222566452Y-88726940D02*
G01*
X222177544Y-89115848D01*
X221116884Y-88055188D01*
X221505792Y-87666280D01*
X222566452Y-88726940D01*
G37*
G36*
X224581708Y-87666280D02*
G01*
X224970616Y-88055188D01*
X223909956Y-89115848D01*
X223521048Y-88726940D01*
X224581708Y-87666280D01*
G37*
G36*
X225147393Y-88231966D02*
G01*
X225536301Y-88620874D01*
X224475641Y-89681534D01*
X224086733Y-89292626D01*
X225147393Y-88231966D01*
G37*
G36*
X225713078Y-88797651D02*
G01*
X226101986Y-89186559D01*
X225041326Y-90247219D01*
X224652418Y-89858311D01*
X225713078Y-88797651D01*
G37*
G36*
X226278764Y-89363336D02*
G01*
X226667672Y-89752244D01*
X225607012Y-90812904D01*
X225218104Y-90423996D01*
X226278764Y-89363336D01*
G37*
G36*
X226844449Y-89929022D02*
G01*
X227233357Y-90317930D01*
X226172697Y-91378590D01*
X225783789Y-90989682D01*
X226844449Y-89929022D01*
G37*
G36*
X227410135Y-90494707D02*
G01*
X227799043Y-90883615D01*
X226738383Y-91944275D01*
X226349475Y-91555367D01*
X227410135Y-90494707D01*
G37*
G36*
X227975820Y-91060393D02*
G01*
X228364728Y-91449301D01*
X227304068Y-92509961D01*
X226915160Y-92121053D01*
X227975820Y-91060393D01*
G37*
G36*
X228541506Y-91626078D02*
G01*
X228930414Y-92014986D01*
X227869754Y-93075646D01*
X227480846Y-92686738D01*
X228541506Y-91626078D01*
G37*
G36*
X229107191Y-92191764D02*
G01*
X229496099Y-92580672D01*
X228435439Y-93641332D01*
X228046531Y-93252424D01*
X229107191Y-92191764D01*
G37*
G36*
X229672876Y-92757449D02*
G01*
X230061784Y-93146357D01*
X229001124Y-94207017D01*
X228612216Y-93818109D01*
X229672876Y-92757449D01*
G37*
G36*
X230238562Y-93323134D02*
G01*
X230627470Y-93712042D01*
X229566810Y-94772702D01*
X229177902Y-94383794D01*
X230238562Y-93323134D01*
G37*
G36*
X230627470Y-96787958D02*
G01*
X230238562Y-97176866D01*
X229177902Y-96116206D01*
X229566810Y-95727298D01*
X230627470Y-96787958D01*
G37*
G36*
X230061784Y-97353643D02*
G01*
X229672876Y-97742551D01*
X228612216Y-96681891D01*
X229001124Y-96292983D01*
X230061784Y-97353643D01*
G37*
G36*
X229496099Y-97919328D02*
G01*
X229107191Y-98308236D01*
X228046531Y-97247576D01*
X228435439Y-96858668D01*
X229496099Y-97919328D01*
G37*
G36*
X228930414Y-98485014D02*
G01*
X228541506Y-98873922D01*
X227480846Y-97813262D01*
X227869754Y-97424354D01*
X228930414Y-98485014D01*
G37*
G36*
X228364728Y-99050699D02*
G01*
X227975820Y-99439607D01*
X226915160Y-98378947D01*
X227304068Y-97990039D01*
X228364728Y-99050699D01*
G37*
G36*
X227799043Y-99616385D02*
G01*
X227410135Y-100005293D01*
X226349475Y-98944633D01*
X226738383Y-98555725D01*
X227799043Y-99616385D01*
G37*
G36*
X227233357Y-100182070D02*
G01*
X226844449Y-100570978D01*
X225783789Y-99510318D01*
X226172697Y-99121410D01*
X227233357Y-100182070D01*
G37*
G36*
X226667672Y-100747756D02*
G01*
X226278764Y-101136664D01*
X225218104Y-100076004D01*
X225607012Y-99687096D01*
X226667672Y-100747756D01*
G37*
G36*
X226101986Y-101313441D02*
G01*
X225713078Y-101702349D01*
X224652418Y-100641689D01*
X225041326Y-100252781D01*
X226101986Y-101313441D01*
G37*
G36*
X225536301Y-101879126D02*
G01*
X225147393Y-102268034D01*
X224086733Y-101207374D01*
X224475641Y-100818466D01*
X225536301Y-101879126D01*
G37*
G36*
X224970616Y-102444812D02*
G01*
X224581708Y-102833720D01*
X223521048Y-101773060D01*
X223909956Y-101384152D01*
X224970616Y-102444812D01*
G37*
%TD*%
D14*
%TO.C,Y1*%
X230981250Y-87312500D03*
X230981250Y-89512500D03*
X229281250Y-89512500D03*
X229281250Y-87312500D03*
%TD*%
D15*
%TO.C,SW1*%
X202331250Y-96575000D03*
X196131250Y-100275000D03*
X202331250Y-100275000D03*
X196131250Y-96575000D03*
%TD*%
%TO.C,R4*%
G36*
G01*
X232071684Y-98420581D02*
X232716919Y-99065816D01*
G75*
G02*
X232716919Y-99410530I-172357J-172357D01*
G01*
X232372204Y-99755245D01*
G75*
G02*
X232027490Y-99755245I-172357J172357D01*
G01*
X231382255Y-99110010D01*
G75*
G02*
X231382255Y-98765296I172357J172357D01*
G01*
X231726970Y-98420581D01*
G75*
G02*
X232071684Y-98420581I172357J-172357D01*
G01*
G37*
G36*
G01*
X233397510Y-97094755D02*
X234042745Y-97739990D01*
G75*
G02*
X234042745Y-98084704I-172357J-172357D01*
G01*
X233698030Y-98429419D01*
G75*
G02*
X233353316Y-98429419I-172357J172357D01*
G01*
X232708081Y-97784184D01*
G75*
G02*
X232708081Y-97439470I172357J172357D01*
G01*
X233052796Y-97094755D01*
G75*
G02*
X233397510Y-97094755I172357J-172357D01*
G01*
G37*
%TD*%
%TO.C,R3*%
G36*
G01*
X205243750Y-96531250D02*
X204331250Y-96531250D01*
G75*
G02*
X204087500Y-96287500I0J243750D01*
G01*
X204087500Y-95800000D01*
G75*
G02*
X204331250Y-95556250I243750J0D01*
G01*
X205243750Y-95556250D01*
G75*
G02*
X205487500Y-95800000I0J-243750D01*
G01*
X205487500Y-96287500D01*
G75*
G02*
X205243750Y-96531250I-243750J0D01*
G01*
G37*
G36*
G01*
X205243750Y-98406250D02*
X204331250Y-98406250D01*
G75*
G02*
X204087500Y-98162500I0J243750D01*
G01*
X204087500Y-97675000D01*
G75*
G02*
X204331250Y-97431250I243750J0D01*
G01*
X205243750Y-97431250D01*
G75*
G02*
X205487500Y-97675000I0J-243750D01*
G01*
X205487500Y-98162500D01*
G75*
G02*
X205243750Y-98406250I-243750J0D01*
G01*
G37*
%TD*%
%TO.C,R2*%
G36*
G01*
X207199550Y-96516800D02*
X206287050Y-96516800D01*
G75*
G02*
X206043300Y-96273050I0J243750D01*
G01*
X206043300Y-95785550D01*
G75*
G02*
X206287050Y-95541800I243750J0D01*
G01*
X207199550Y-95541800D01*
G75*
G02*
X207443300Y-95785550I0J-243750D01*
G01*
X207443300Y-96273050D01*
G75*
G02*
X207199550Y-96516800I-243750J0D01*
G01*
G37*
G36*
G01*
X207199550Y-98391800D02*
X206287050Y-98391800D01*
G75*
G02*
X206043300Y-98148050I0J243750D01*
G01*
X206043300Y-97660550D01*
G75*
G02*
X206287050Y-97416800I243750J0D01*
G01*
X207199550Y-97416800D01*
G75*
G02*
X207443300Y-97660550I0J-243750D01*
G01*
X207443300Y-98148050D01*
G75*
G02*
X207199550Y-98391800I-243750J0D01*
G01*
G37*
%TD*%
%TO.C,R1*%
G36*
G01*
X213383494Y-91791229D02*
X214028729Y-91145994D01*
G75*
G02*
X214373443Y-91145994I172357J-172357D01*
G01*
X214718158Y-91490709D01*
G75*
G02*
X214718158Y-91835423I-172357J-172357D01*
G01*
X214072923Y-92480658D01*
G75*
G02*
X213728209Y-92480658I-172357J172357D01*
G01*
X213383494Y-92135943D01*
G75*
G02*
X213383494Y-91791229I172357J172357D01*
G01*
G37*
G36*
G01*
X212057668Y-90465403D02*
X212702903Y-89820168D01*
G75*
G02*
X213047617Y-89820168I172357J-172357D01*
G01*
X213392332Y-90164883D01*
G75*
G02*
X213392332Y-90509597I-172357J-172357D01*
G01*
X212747097Y-91154832D01*
G75*
G02*
X212402383Y-91154832I-172357J172357D01*
G01*
X212057668Y-90810117D01*
G75*
G02*
X212057668Y-90465403I172357J172357D01*
G01*
G37*
%TD*%
%TO.C,C7*%
G36*
G01*
X217946606Y-101604371D02*
X217301371Y-102249606D01*
G75*
G02*
X216956657Y-102249606I-172357J172357D01*
G01*
X216611942Y-101904891D01*
G75*
G02*
X216611942Y-101560177I172357J172357D01*
G01*
X217257177Y-100914942D01*
G75*
G02*
X217601891Y-100914942I172357J-172357D01*
G01*
X217946606Y-101259657D01*
G75*
G02*
X217946606Y-101604371I-172357J-172357D01*
G01*
G37*
G36*
G01*
X219272432Y-102930197D02*
X218627197Y-103575432D01*
G75*
G02*
X218282483Y-103575432I-172357J172357D01*
G01*
X217937768Y-103230717D01*
G75*
G02*
X217937768Y-102886003I172357J172357D01*
G01*
X218583003Y-102240768D01*
G75*
G02*
X218927717Y-102240768I172357J-172357D01*
G01*
X219272432Y-102585483D01*
G75*
G02*
X219272432Y-102930197I-172357J-172357D01*
G01*
G37*
%TD*%
%TO.C,C6*%
G36*
G01*
X219859566Y-85729419D02*
X219214331Y-85084184D01*
G75*
G02*
X219214331Y-84739470I172357J172357D01*
G01*
X219559046Y-84394755D01*
G75*
G02*
X219903760Y-84394755I172357J-172357D01*
G01*
X220548995Y-85039990D01*
G75*
G02*
X220548995Y-85384704I-172357J-172357D01*
G01*
X220204280Y-85729419D01*
G75*
G02*
X219859566Y-85729419I-172357J172357D01*
G01*
G37*
G36*
G01*
X218533740Y-87055245D02*
X217888505Y-86410010D01*
G75*
G02*
X217888505Y-86065296I172357J172357D01*
G01*
X218233220Y-85720581D01*
G75*
G02*
X218577934Y-85720581I172357J-172357D01*
G01*
X219223169Y-86365816D01*
G75*
G02*
X219223169Y-86710530I-172357J-172357D01*
G01*
X218878454Y-87055245D01*
G75*
G02*
X218533740Y-87055245I-172357J172357D01*
G01*
G37*
%TD*%
%TO.C,C5*%
G36*
G01*
X214170894Y-99843029D02*
X214816129Y-99197794D01*
G75*
G02*
X215160843Y-99197794I172357J-172357D01*
G01*
X215505558Y-99542509D01*
G75*
G02*
X215505558Y-99887223I-172357J-172357D01*
G01*
X214860323Y-100532458D01*
G75*
G02*
X214515609Y-100532458I-172357J172357D01*
G01*
X214170894Y-100187743D01*
G75*
G02*
X214170894Y-99843029I172357J172357D01*
G01*
G37*
G36*
G01*
X212845068Y-98517203D02*
X213490303Y-97871968D01*
G75*
G02*
X213835017Y-97871968I172357J-172357D01*
G01*
X214179732Y-98216683D01*
G75*
G02*
X214179732Y-98561397I-172357J-172357D01*
G01*
X213534497Y-99206632D01*
G75*
G02*
X213189783Y-99206632I-172357J172357D01*
G01*
X212845068Y-98861917D01*
G75*
G02*
X212845068Y-98517203I172357J172357D01*
G01*
G37*
%TD*%
%TO.C,C4*%
G36*
G01*
X232253181Y-93769916D02*
X232898416Y-93124681D01*
G75*
G02*
X233243130Y-93124681I172357J-172357D01*
G01*
X233587845Y-93469396D01*
G75*
G02*
X233587845Y-93814110I-172357J-172357D01*
G01*
X232942610Y-94459345D01*
G75*
G02*
X232597896Y-94459345I-172357J172357D01*
G01*
X232253181Y-94114630D01*
G75*
G02*
X232253181Y-93769916I172357J172357D01*
G01*
G37*
G36*
G01*
X230927355Y-92444090D02*
X231572590Y-91798855D01*
G75*
G02*
X231917304Y-91798855I172357J-172357D01*
G01*
X232262019Y-92143570D01*
G75*
G02*
X232262019Y-92488284I-172357J-172357D01*
G01*
X231616784Y-93133519D01*
G75*
G02*
X231272070Y-93133519I-172357J172357D01*
G01*
X230927355Y-92788804D01*
G75*
G02*
X230927355Y-92444090I172357J172357D01*
G01*
G37*
%TD*%
%TO.C,C3*%
G36*
G01*
X233425050Y-88299900D02*
X232512550Y-88299900D01*
G75*
G02*
X232268800Y-88056150I0J243750D01*
G01*
X232268800Y-87568650D01*
G75*
G02*
X232512550Y-87324900I243750J0D01*
G01*
X233425050Y-87324900D01*
G75*
G02*
X233668800Y-87568650I0J-243750D01*
G01*
X233668800Y-88056150D01*
G75*
G02*
X233425050Y-88299900I-243750J0D01*
G01*
G37*
G36*
G01*
X233425050Y-90174900D02*
X232512550Y-90174900D01*
G75*
G02*
X232268800Y-89931150I0J243750D01*
G01*
X232268800Y-89443650D01*
G75*
G02*
X232512550Y-89199900I243750J0D01*
G01*
X233425050Y-89199900D01*
G75*
G02*
X233668800Y-89443650I0J-243750D01*
G01*
X233668800Y-89931150D01*
G75*
G02*
X233425050Y-90174900I-243750J0D01*
G01*
G37*
%TD*%
%TO.C,C2*%
G36*
G01*
X230597100Y-85571650D02*
X230597100Y-84659150D01*
G75*
G02*
X230840850Y-84415400I243750J0D01*
G01*
X231328350Y-84415400D01*
G75*
G02*
X231572100Y-84659150I0J-243750D01*
G01*
X231572100Y-85571650D01*
G75*
G02*
X231328350Y-85815400I-243750J0D01*
G01*
X230840850Y-85815400D01*
G75*
G02*
X230597100Y-85571650I0J243750D01*
G01*
G37*
G36*
G01*
X228722100Y-85571650D02*
X228722100Y-84659150D01*
G75*
G02*
X228965850Y-84415400I243750J0D01*
G01*
X229453350Y-84415400D01*
G75*
G02*
X229697100Y-84659150I0J-243750D01*
G01*
X229697100Y-85571650D01*
G75*
G02*
X229453350Y-85815400I-243750J0D01*
G01*
X228965850Y-85815400D01*
G75*
G02*
X228722100Y-85571650I0J243750D01*
G01*
G37*
%TD*%
%TO.C,C1*%
G36*
G01*
X228619584Y-100909781D02*
X229264819Y-101555016D01*
G75*
G02*
X229264819Y-101899730I-172357J-172357D01*
G01*
X228920104Y-102244445D01*
G75*
G02*
X228575390Y-102244445I-172357J172357D01*
G01*
X227930155Y-101599210D01*
G75*
G02*
X227930155Y-101254496I172357J172357D01*
G01*
X228274870Y-100909781D01*
G75*
G02*
X228619584Y-100909781I172357J-172357D01*
G01*
G37*
G36*
G01*
X229945410Y-99583955D02*
X230590645Y-100229190D01*
G75*
G02*
X230590645Y-100573904I-172357J-172357D01*
G01*
X230245930Y-100918619D01*
G75*
G02*
X229901216Y-100918619I-172357J172357D01*
G01*
X229255981Y-100273384D01*
G75*
G02*
X229255981Y-99928670I172357J172357D01*
G01*
X229600696Y-99583955D01*
G75*
G02*
X229945410Y-99583955I172357J-172357D01*
G01*
G37*
%TD*%
M02*
