M48
; DRILL file {KiCad (5.1.6)-1} date 07/11/20 20:13:15
; FORMAT={-:-/ absolute / inch / decimal}
; #@! TF.CreationDate,2020-07-11T20:13:15-04:00
; #@! TF.GenerationSoftware,Kicad,Pcbnew,(5.1.6)-1
FMAT,2
INCH
T1C0.0157
T2C0.0236
T3C0.0579
T4C0.0256
T5C0.0689
T6C0.1570
%
G90
G05
T1
X8.0305Y-3.734
X8.256Y-3.6265
X8.329Y-3.6255
X8.5312Y-3.5544
X8.5312Y-3.5938
X8.5804Y-3.5532
X8.5879Y-3.5146
X8.625Y-3.5
X8.68Y-4.0515
X8.954Y-4.1155
X8.9675Y-4.069
X9.0625Y-4.5
X9.0625Y-4.5
X9.0625Y-4.5625
X9.0625Y-5.25
X9.0625Y-5.25
X9.0625Y-5.3125
X9.1562Y-4.4688
X9.1745Y-3.3715
X9.1956Y-4.4688
X9.21Y-3.733
T3
X7.275Y-4.9562
X7.2766Y-4.9791
X7.4734Y-4.9988
X7.525Y-5.0562
X8.025Y-4.2062
X8.0266Y-4.2291
X8.2234Y-4.2488
X8.275Y-4.3062
X7.275Y-4.2062
X7.2766Y-4.2291
X7.4734Y-4.2488
X7.525Y-4.3062
X8.775Y-4.2062
X8.7766Y-4.2291
X8.9734Y-4.2488
X9.025Y-4.3062
X8.775Y-4.9562
X8.7766Y-4.9791
X8.9734Y-4.9988
X9.025Y-5.0562
X8.025Y-4.9562
X8.0266Y-4.9791
X8.2234Y-4.9988
X8.275Y-5.0562
T4
X8.0077Y-3.3701
X8.2353Y-3.3701
T5
X7.175Y-5.1562
X7.575Y-5.1562
X7.925Y-4.4062
X8.325Y-4.4062
X7.175Y-4.4062
X7.575Y-4.4062
X8.675Y-4.4062
X9.075Y-4.4062
X8.675Y-5.1562
X9.075Y-5.1562
X7.925Y-5.1562
X8.325Y-5.1562
T6
X8.125Y-4.4062
X7.375Y-4.4062
X8.875Y-4.4062
X8.875Y-5.1562
X8.125Y-5.1562
X7.375Y-5.1562
T2
G00X7.9514Y-3.2382
M15
G01X7.9514Y-3.2146
M16
G05
G00X7.9514Y-3.4126
M15
G01X7.9514Y-3.3693
M16
G05
G00X8.2916Y-3.2382
M15
G01X8.2916Y-3.2146
M16
G05
G00X8.2916Y-3.4126
M15
G01X8.2916Y-3.3693
M16
G05
T0
M30
